<svg xmlns="http://www.w3.org/2000/svg" viewBox="0 0 128 128"><path d="M113 20.5a8 8 0 0 0-5.5-5.9C99.5 12.3 81.8 8 64 8s-35.4 4.3-43.5 6.6a8 8 0 0 0-5.6 6C12.7 30 8 52 8 64v32a8 8 0 0 0 8 8v8a8 8 0 0 0 16 0v-8h64v8a8 8 0 0 0 16 0v-8a8 8 0 0 0 8-8V64c0-12-4.8-34-7-43.5zM40 20a4 4 0 0 1 4-4h40a4 4 0 0 1 4 4 4 4 0 0 1-4 4H44a4 4 0 0 1-4-4zM16 59.1l4.3-24a4 4 0 0 1 4-3.1h79.6a4 4 0 0 1 3.9 3l4 24a4 4 0 0 1-4 5H20a4 4 0 0 1-4-4.9zM26 91a10 10 0 1 1 10-10 10 10 0 0 1-10 10zm76 0a10 10 0 1 1 10-10 10 10 0 0 1-10 10z"/></svg>