<svg xmlns="http://www.w3.org/2000/svg" viewBox="0 0 128 128"><path d="M84 48a36.2 36.2 0 0 0-4 .2v-.7c0-2.2-.8-4.9-3.9-7.5 3-2.6 3.9-5.3 3.9-7.5v-9c0-3.5-2-8.3-12-11.9C61.5 9.3 53 8 44 8s-17.5 1.3-24 3.6C10 15.2 8 20 8 23.5v9c0 2.2.8 4.9 3.9 7.5-3 2.6-3.9 5.3-3.9 7.5v9c0 2.2.8 4.9 3.9 7.5-3 2.6-3.9 5.3-3.9 7.5v9c0 2.2.8 4.9 3.9 7.5-3 2.6-3.9 5.3-3.9 7.5v9c0 3.5 2 8.3 12 11.9 6.5 2.3 15 3.6 24 3.6s17.5-1.3 24-3.6h.2A36 36 0 1 0 84 48zM44 16c18.4 0 28 5.6 28 7.5S62.4 31 44 31s-28-5.6-28-7.5S25.6 16 44 16zM19.9 44.4h.1c6.5 2.3 15 3.6 24 3.6s17.5-1.3 24-3.6h.1c2.6 1.2 3.9 2.4 3.9 3.1 0 2-9.6 7.5-28 7.5s-28-5.6-28-7.5c0-.7 1.3-2 3.9-3.1zm0 24h.1a73.6 73.6 0 0 0 30.1 3.4 35.7 35.7 0 0 0-1.7 7c-1.4.2-2.9.2-4.4.2-18.4 0-28-5.6-28-7.5 0-.7 1.3-2 3.9-3.2zm-3.9 27c0-.7 1.3-2 3.9-3.1h.1a73.6 73.6 0 0 0 30 3.4 35.9 35.9 0 0 0 3.1 6.7 80 80 0 0 1-9.1.5c-18.4 0-28-5.6-28-7.5zM84 112a28 28 0 1 1 28-28 28 28 0 0 1-28 28z"/></svg>