<svg xmlns="http://www.w3.org/2000/svg" viewBox="0 0 128 128"><path d="M64 8a56 56 0 1 0 56 56A56 56 0 0 0 64 8zm0 104a48 48 0 1 1 48-48 48 48 0 0 1-48 48zm-6-84a6 6 0 1 1 6 6 6 6 0 0 1-6-6zm12 72a6 6 0 1 1-6-6 6 6 0 0 1 6 6zM28 70a6 6 0 1 1 6-6 6 6 0 0 1-6 6zm78-6a6 6 0 1 1-6-6 6 6 0 0 1 6 6zM95.5 35.7a2 2 0 0 0-.2-2.6l-.4-.4a2 2 0 0 0-2.6-.2L66.7 48.2a16 16 0 0 0-18.5 18.5L32.5 92.3a2 2 0 0 0 .2 2.6l.4.4a2 2 0 0 0 2.6.2l25.6-15.7a16 16 0 0 0 18.5-18.5zM64 72a8 8 0 1 1 8-8 8 8 0 0 1-8 8z"/></svg>