<svg xmlns="http://www.w3.org/2000/svg" viewBox="0 0 128 128"><path d="M38 18A10 10 0 1 1 28 8a10 10 0 0 1 10 10zM9.9 56h36.3l1.7-16c.3-2.6 0-5-4-6 0 0-9.8-2-16-2s-16 2-16 2c-4 1-4.2 3.4-4 6zm73.6 60.8L80 80H8v40h76.2a12.4 12.4 0 0 1-.7-3.2zm-8-45.5l-.8-7.3H8v8h67.6l-.1-.7zM80 40l3.4 30.5a4.3 4.3 0 0 0 1.3 2.6l1.8 1.8a4.3 4.3 0 0 1 1.3 2.7l3.5 38.4a4.4 4.4 0 0 0 4.5 4h8.2a4.4 4.4 0 0 0 4.4-4l3.6-38.4a4.3 4.3 0 0 1 1.3-2.7l1.8-1.8a4.3 4.3 0 0 0 1.3-2.6L120 40c.3-2.6 0-5-4-6 0 0-9.8-2-16-2s-16 2-16 2c-3.9 1-4.1 3.4-3.8 6zm20-32a10 10 0 1 0 10 10 10 10 0 0 0-10-10z"/></svg>