<svg xmlns="http://www.w3.org/2000/svg" viewBox="0 0 128 128"><path d="M116 8H60a4 4 0 0 0-4 4v24c8 2 14 11 16 20h8v16l16-16h20a4 4 0 0 0 4-4V12a4 4 0 0 0-4-4zM90.2 49a3.7 3.7 0 0 1-2.5 1 3.8 3.8 0 0 1-2.6-1 3.3 3.3 0 0 1-1-2.6 3.4 3.4 0 0 1 1-2.5 3.6 3.6 0 0 1 2.6-1 3.5 3.5 0 0 1 2.5 1 3.4 3.4 0 0 1 1 2.5 3.3 3.3 0 0 1-1 2.6zm9-22a10.8 10.8 0 0 1-2 2.6l-4 3.7a16.7 16.7 0 0 0-1.4 1.4 5.2 5.2 0 0 0-.7 1 5 5 0 0 0-.4.9l-.4 1.6a2.7 2.7 0 0 1-2.9 2.5 3 3 0 0 1-2-.8 3.2 3.2 0 0 1-.9-2.4 8.4 8.4 0 0 1 2.3-6 37.9 37.9 0 0 1 2.8-2.7l2.2-2a6.8 6.8 0 0 0 1.1-1.5 3.6 3.6 0 0 0 .5-1.8 4.2 4.2 0 0 0-1.4-3.2 5.2 5.2 0 0 0-3.7-1.3 5.1 5.1 0 0 0-3.9 1.3 10.5 10.5 0 0 0-2.1 4q-.8 2.6-3.1 2.6a3 3 0 0 1-2.3-.9 2.9 2.9 0 0 1-.9-2 8.5 8.5 0 0 1 1.5-4.6 11.2 11.2 0 0 1 4.2-3.8 13.6 13.6 0 0 1 6.6-1.6 14.1 14.1 0 0 1 6.1 1.3 10 10 0 0 1 4.2 3.4 8.4 8.4 0 0 1 1.4 4.8 7.3 7.3 0 0 1-.8 3.5zM24 60a20 20 0 1 1 20 20 20 20 0 0 1-20-20zm56 40.4V112a8 8 0 0 1-8 8H16a8 8 0 0 1-8-8v-11.6a58.4 58.4 0 0 1 72 0z"/></svg>