<svg xmlns="http://www.w3.org/2000/svg" viewBox="0 0 128 128"><defs><style>.cls-1{opacity:0.75;}.cls-1,.cls-10,.cls-11,.cls-12,.cls-2,.cls-3,.cls-4,.cls-5,.cls-6,.cls-7,.cls-8,.cls-9{isolation:isolate;}.cls-2{opacity:0.2;}.cls-3{opacity:0.25;}.cls-4{opacity:0.3;}.cls-5{opacity:0.35;}.cls-6{opacity:0.4;}.cls-7{opacity:0.45;}.cls-8{opacity:0.5;}.cls-9{opacity:0.55;}.cls-10{opacity:0.6;}.cls-11{opacity:0.65;}.cls-12{opacity:0.7;}</style></defs><title>loading</title><g id="_8x" data-name="8x"><g id="loading"><path class="cls-1" d="M64,8h0a4.67,4.67,0,0,1,4.67,4.67V31.33A4.67,4.67,0,0,1,64,36h0a4.67,4.67,0,0,1-4.67-4.67V12.67A4.67,4.67,0,0,1,64,8Z"/><path class="cls-2" d="M92,15.48h0a4.67,4.67,0,0,1,1.71,6.37L84.37,38A4.67,4.67,0,0,1,78,39.72h0a4.67,4.67,0,0,1-1.71-6.37l9.33-16.17A4.67,4.67,0,0,1,92,15.48Z"/><path class="cls-3" d="M112.52,36h0a4.67,4.67,0,0,1-1.71,6.37L94.65,51.71A4.67,4.67,0,0,1,88.28,50h0A4.67,4.67,0,0,1,90,43.63l16.17-9.33A4.67,4.67,0,0,1,112.52,36Z"/><path class="cls-4" d="M120,64h0a4.67,4.67,0,0,1-4.67,4.67H96.67A4.67,4.67,0,0,1,92,64h0a4.67,4.67,0,0,1,4.67-4.67h18.67A4.67,4.67,0,0,1,120,64Z"/><path class="cls-5" d="M112.52,92h0a4.67,4.67,0,0,1-6.37,1.71L90,84.37A4.67,4.67,0,0,1,88.28,78h0a4.67,4.67,0,0,1,6.37-1.71l16.17,9.33A4.67,4.67,0,0,1,112.52,92Z"/><path class="cls-6" d="M92,112.52h0a4.67,4.67,0,0,1-6.37-1.71L76.29,94.65A4.67,4.67,0,0,1,78,88.28h0A4.67,4.67,0,0,1,84.37,90l9.33,16.17A4.67,4.67,0,0,1,92,112.52Z"/><path class="cls-7" d="M64,120h0a4.67,4.67,0,0,1-4.67-4.67V96.67A4.67,4.67,0,0,1,64,92h0a4.67,4.67,0,0,1,4.67,4.67v18.67A4.67,4.67,0,0,1,64,120Z"/><path class="cls-8" d="M36,112.52h0a4.67,4.67,0,0,1-1.71-6.37L43.63,90A4.67,4.67,0,0,1,50,88.28h0a4.67,4.67,0,0,1,1.71,6.37l-9.33,16.17A4.67,4.67,0,0,1,36,112.52Z"/><path class="cls-9" d="M15.48,92h0a4.67,4.67,0,0,1,1.71-6.37l16.17-9.33A4.67,4.67,0,0,1,39.72,78h0A4.67,4.67,0,0,1,38,84.37L21.85,93.71A4.67,4.67,0,0,1,15.48,92Z"/><path class="cls-10" d="M8,64H8a4.67,4.67,0,0,1,4.67-4.67H31.33A4.67,4.67,0,0,1,36,64h0a4.67,4.67,0,0,1-4.67,4.67H12.67A4.67,4.67,0,0,1,8,64Z"/><path class="cls-11" d="M15.48,36h0a4.67,4.67,0,0,1,6.37-1.71L38,43.63A4.67,4.67,0,0,1,39.72,50h0a4.67,4.67,0,0,1-6.37,1.71L17.18,42.37A4.67,4.67,0,0,1,15.48,36Z"/><path class="cls-12" d="M36,15.48h0a4.67,4.67,0,0,1,6.37,1.71l9.33,16.17A4.67,4.67,0,0,1,50,39.72h0A4.67,4.67,0,0,1,43.63,38L34.29,21.85A4.67,4.67,0,0,1,36,15.48Z"/></g></g></svg>