<svg xmlns="http://www.w3.org/2000/svg" viewBox="0 0 128 128"><path d="M20.5 93.8L11.2 112l32.2-3.9a64.4 64.4 0 0 0 20.6 3.4c31 0 56-21.4 56-47.8S95 16 64 16 8 37.4 8 63.7c0 11.4 4.7 21.9 12.5 30zM75.2 85h-7.8a5.2 5.2 0 0 1-2.6-.6 3.6 3.6 0 0 1-1.4-2l-2.2-6.2V76H47.4l-2.2 6.4a4 4 0 0 1-1.5 2 5 5 0 0 1-2.5.5h-7.8l2.3-6 .3-.7 1.3-3.6L47.4 48l1.7-4.9a3.6 3.6 0 0 1 1.5-2 5.2 5.2 0 0 1 2.6-.5h2.9a4.1 4.1 0 0 1 2.4.6A4.2 4.2 0 0 1 60 43l15.2 42zM59.8 68l-5.5-16-5.5 16h11zM94 79a6 6 0 1 1-6-6 6 6 0 0 1 6 6z"/></svg>