<svg xmlns="http://www.w3.org/2000/svg" viewBox="0 0 128 128"><defs><style>.cls-4{fill:#231f20}</style><radialGradient id="payment_discover_radial-gradient" cx="66.9" cy="54" r="7.9" gradientUnits="userSpaceOnUse"><stop offset="0" stop-color="#ffeee0"/><stop offset=".1" stop-color="#fee9d7"/><stop offset=".3" stop-color="#fddbbf"/><stop offset=".5" stop-color="#fbc597"/><stop offset=".7" stop-color="#f8a560"/><stop offset="1" stop-color="#f48120"/></radialGradient></defs><rect x="10" y="30" width="108" height="68" style="fill:#fff"/><path d="M117.6 97h-83c53.7-9.3 83-30 83-30z" style="fill:#f58220"/><path d="M74.9 54a8 8 0 1 1-8-7.8 7.8 7.8 0 0 1 8 7.7z" style="fill:url(#payment_discover_radial-gradient)"/><path class="cls-4" d="M111.5 46.7a1.1 1.1 0 1 0 1.1 1.1 1.1 1.1 0 0 0-1.1-1.1zm0 2a1 1 0 1 1 .9-.9 1 1 0 0 1-1 1z"/><path class="cls-4" d="M21.6 46.4h-4.3v15h4.3a7.8 7.8 0 0 0 5.3-1.7 7.5 7.5 0 0 0 2.7-5.7c0-4.5-3.3-7.6-8-7.6zM25 57.7a5.5 5.5 0 0 1-4 1.2h-.8V49h.8a5.4 5.4 0 0 1 4 1.2 5 5 0 0 1 1.6 3.7 5.1 5.1 0 0 1-1.6 3.8zm6-11.3h3v15h-3zm9.2 15.4a5.8 5.8 0 0 1-5.2-2.9l1.9-1.8a3.5 3.5 0 0 0 3.2 2 2.1 2.1 0 0 0 2.2-2.1 1.8 1.8 0 0 0-.8-1.6 11.2 11.2 0 0 0-2-.8c-2.8-1-3.7-2-3.7-4.1a4.4 4.4 0 0 1 4.7-4.3 6.5 6.5 0 0 1 4.4 1.7l-1.6 2a3 3 0 0 0-2.3-1.2c-1.3 0-2.2.7-2.2 1.6s.5 1.2 2.3 1.9c3.3 1.2 4.3 2.3 4.3 4.7a4.8 4.8 0 0 1-5.2 4.9zm17.6-1a8 8 0 0 1-3.6 1 7.8 7.8 0 0 1-8-7.9 7.9 7.9 0 0 1 8-7.8 7.5 7.5 0 0 1 3.7 1v3.4a4.9 4.9 0 0 0-3.7-1.7 5 5 0 0 0-4.9 5.1 4.9 4.9 0 0 0 5 5.2 4.7 4.7 0 0 0 3.6-1.7zm27.8-14.4h3.1l-6.5 15.4h-1.5l-6.4-15.4h3.2l4 10.1zm4.4 0h8.3V49h-5.4v3.3h5.2v2.5h-5.2v4h5.4v2.6H90zM110 51c0-2.8-2-4.5-5.3-4.5h-4.3v15h2.9v-6h.3l4 6h3.6l-4.7-6.3A4 4 0 0 0 110 51zm-5.9 2.4h-.8v-4.5h.9c1.8 0 2.8.8 2.8 2.2s-1 2.3-2.9 2.3zm7.6-5.4a.4.4 0 0 0 .3-.3c0-.3-.2-.4-.5-.4h-.4v1.3h.3V48l.4.5h.4zm-.2-.2v-.3c.1 0 .2 0 .2.2s0 .1-.2.1zm-64 17.8h.6v5.4l-3.9-4v3.7h-.7v-5.4l4 4.1zm5.9 0v.6h-2v1.4h2v.6h-2V70h2v.6h-2.7v-5zm5.1 0v.6h-1.2v4.5h-.6v-4.5h-1.2v-.6zm8.3 0h.7l-2 5.5-1.6-4-1.6 4-2-5.5h.7l1.3 3.7 1.5-4 1.6 4zm5.2 0a2.6 2.6 0 1 0 2.7 2.6 2.7 2.7 0 0 0-2.7-2.7zm0 4.6a2 2 0 1 1 2-2 2 2 0 0 1-2 2zm7.7-3.2c0-1-.6-1.4-1.9-1.4h-.8v5.1h.7v-2.2l1.5 2.2H79.9l-1.6-2.3a1.4 1.4 0 0 0 1.2-1.4zm-2-.8c.7 0 1.3 0 1.3.9s-.6.8-1.2.8h-.1zm5.8 1.8l2.5 2.7h-1l-2-2.2v2.2h-.7v-5h.7v2l2-2h1z"/><path d="M116 32v64H12V32h104m0-4H12a4 4 0 0 0-4 4v64a4 4 0 0 0 4 4h104a4 4 0 0 0 4-4V32a4 4 0 0 0-4-4z" style="fill:#bdbdbd"/></svg>