<svg xmlns="http://www.w3.org/2000/svg" viewBox="0 0 128 37"><path d="M13.4 19.1L10.3 26H8l3.4-7.4c-1.6-.8-2.7-2.3-2.7-5C8.8 10 11.3 8 14.2 8H17v18h-2v-6.9zM15 9.6h-1c-1.6 0-3.1 1-3.1 4s1.4 3.9 3.1 3.9h1z" style="fill:red"/><path d="M26.5 13.3V26h-2v-5.7h-3V26h-2V13.3h2v5.4h3v-5.4zm10.2 15.2H35V26h-5.5v2.5h-1.8v-4.1h.8c1.2-2.7 1.3-6.6 1.3-10v-1h6v11h1zm-3-13.6h-2.2v.2c0 2.7-.1 6.6-1.2 9.3h3.4zm8.5 11.3c-2.6 0-4.3-2.1-4.3-6 0-4.1 1.2-7 4-7 2 0 3.5 1.5 3.5 5.8v1.1H40c0 2.9.8 4.4 2.4 4.4a4.5 4.5 0 0 0 2.5-.9l.5 1.5a5.1 5.1 0 0 1-3.2 1zM40 18.5h3.3c0-2.2-.4-3.8-1.5-3.8s-1.6 1.5-1.8 3.8zm9.4 1.2V26h-2V13.3h2v5.9l3-5.9h2l-3.1 6L55 26h-2.2zm5.8 0c0-4 1.6-6.5 4.6-6.5a4.1 4.1 0 0 1 2.4.6l-.3 1.9a3.4 3.4 0 0 0-2.1-1c-1.5 0-2.5 1.7-2.5 4.9s.8 5 2.4 5a3.3 3.3 0 0 0 2.2-.8l.4 1.4a4 4 0 0 1-2.6 1c-2.8 0-4.5-2.2-4.5-6.5zM76 26h-7.8l-.2 3h-1v-4h.5c1-.7 1.4-2.8 1.6-5.3s.4-6.7.5-11.7h6.3v17h1.3v4h-1zM74.6 9h-4c-.1 4.6-.2 8-.4 10.6s-.7 4.5-1.4 5.3h5.7zm7.8 16.2a3.3 3.3 0 0 0 2.6-1.3l.4 1a3.7 3.7 0 0 1-3 1.4c-2.8 0-4-2.4-4-6.6s1.6-6.6 3.7-6.6 3.7 2.3 3.3 6.8h-5.9c.1 3.4 1 5.3 2.9 5.3zm-2.8-6.3h4.7c.2-3.4-.9-4.9-2.2-4.9s-2.4 1.8-2.5 5zm13.7 1h-4.4V26h-1.2V13.3h1.2V19h4.4v-5.6h1.2V26h-1.2zm4-6.6h1.2V18h1c2.4 0 4 1.3 4 4s-1.8 4-4.2 4h-2zm1.2 5.7v6.1h.8a2.7 2.7 0 0 0 3-3c0-2.2-1.1-3-3-3zm8.2-4.7V26h-1.1V13.3h5.4v1zm12.2 3a17 17 0 0 1 0-1.8 11.2 11.2 0 0 1-.7 1.6L114 26h-1V13.3h1.1V24a13.7 13.7 0 0 1 .7-1.7l4.2-8.9h1V26h-1.1z"/></svg>