<svg xmlns="http://www.w3.org/2000/svg" viewBox="0 0 128 114"><path fill="#fff" d="M71.2 14.5c12.4 0 22.8 3.4 30 9.8 8.2 7.3 12.3 18.3 12.3 32.7 0 28.6-13.8 42.5-42.3 42.5H14.5v-85z"/><path d="M20.4 63.2h18V93h-18zM29.6 38a10.2 10.2 0 1 0 10.1 10.2A10.2 10.2 0 0 0 29.6 38zM120 57c0 17.4-4.9 30.3-14.5 38.5-7.9 6.8-19 10.3-33.1 10.5H8V8h64.4c13.5.2 25 4.2 33.2 11.4A40.3 40.3 0 0 1 116.2 35 60 60 0 0 1 120 57zm-6.5 0c0-14.4-4.1-25.4-12.2-32.7a44.4 44.4 0 0 0-30.1-9.8H14.5v85h56.7c28.5 0 42.3-14 42.3-42.5z"/><path fill="#cd0067" d="M84.2 46l1.6 4.5h-3.3zm23.5 12.2c-.2 29.2-20.3 35-39.2 35H46.6v-35h2.5a10.8 10.8 0 0 0 3.2-.4 6.5 6.5 0 0 0 2.6-1.5 8 8 0 0 0 2-3.2 11.7 11.7 0 0 0 .5-3.8 13.1 13.1 0 0 0-.6-4.1 8 8 0 0 0-1.7-3 6.1 6.1 0 0 0-2.8-1.6 12.5 12.5 0 0 0-3.3-.4h-2.4V22.4h21.9c18.1 0 37.4 7 39 32h-8v-14h-4.3V58zM74 54.3h-9.4v-3.6H73v-3.8h-8.4V44h9v-3.8H60.4v18h13.8zm19.4 3.8l-7.2-17.9H82l-6.9 18h4.6l1.4-4h6.2l1.4 4zm-42.8-4a2.7 2.7 0 0 0 1.1-.6 3.2 3.2 0 0 0 .8-1.4 10.7 10.7 0 0 0 .3-3 9.8 9.8 0 0 0-.3-2.9 3.5 3.5 0 0 0-.8-1.4 2.8 2.8 0 0 0-1.4-.7 14.5 14.5 0 0 0-2.7-.1h-1v10.3h2a9 9 0 0 0 2-.1z"/></svg>