<svg xmlns="http://www.w3.org/2000/svg" viewBox="0 0 128 128"><defs><style>.cls-1{fill:#fff}</style></defs><path class="cls-1" d="M118 98H10V30h108z"/><path d="M116 32v64H12V32h104m0-4H12a4 4 0 0 0-4 4v64a4 4 0 0 0 4 4h104a4 4 0 0 0 4-4V32a4 4 0 0 0-4-4z" style="fill:#bdbdbd"/><path d="M35.8 35h23.1c3.3 0 5.3 2.6 4.5 5.9L52.6 87a7.9 7.9 0 0 1-7.2 5.9H22.3c-3.2 0-5.3-2.6-4.5-5.9L28.6 41a7.8 7.8 0 0 1 7.2-5.9z" style="fill:#cf0a2c"/><path d="M57 35h26.6c3.3 0 1.8 2.6 1 5.9L74 87C73 90.4 73.3 93 70 93H43.5c-3.2 0-5.2-2.6-4.5-5.9L49.8 41A7.9 7.9 0 0 1 57 35z" style="fill:#002856"/><path d="M82.6 35h23.1c3.2 0 5.2 2.6 4.5 5.9L99.4 87a7.9 7.9 0 0 1-7.2 5.9H69.1c-3.3 0-5.3-2.6-4.5-5.9L75.4 41a7.8 7.8 0 0 1 7.2-5.9z" style="fill:#007078"/><path class="cls-1" d="M84.3 78.5h-.8l2.9-9.4h.9l.3-1v1.1c0 .7.5 1.3 1.8 1.2H91l.6-1.8H91c-.3 0-.5-.1-.5-.3v-1h-3a41.2 41.2 0 0 0-4.3.1 5.1 5.1 0 0 0-1.4.7l.3-1h-2.7l-.6 2-2.9 9.4h-.5l-.6 1.8h5.5l-.2.7h2.7l.2-.6h.7zm-3.4 0h-2.2l.6-2.1h2.2zm1.2-4l-1.1.1a11.1 11.1 0 0 0-1.3.6l.8-2.5h2.2zm0-3.5a12.2 12.2 0 0 0-1.2.5l.7-2.4h2.2l-.6 1.8a7 7 0 0 0-1.1.1zm4.6-.1h8.8l-.6 1.8H92l-.5 1.5h3l-.5 1.6h-3.2l-.6.6h1.3l.3 2a1 1 0 0 0 .1.4 1.6 1.6 0 0 0 .7.2h.4l-.6 2h-1.7a1.9 1.9 0 0 1-.7-.3 1 1 0 0 1-.5-.7l-.3-2-1.5 2a2.5 2.5 0 0 1-2.1 1h-2l.5-1.8h.8a1.3 1.3 0 0 0 .5-.1.9.9 0 0 0 .5-.4l2-3h-2.7l.4-1.6h3.2l.5-1.4H86zm-26.1 8.3l1.5-.2-.6 2H58a3.2 3.2 0 0 1-.8-.1.8.8 0 0 1-.5-.4.8.8 0 0 1-.2-.8l1-3.2h-1.7l.6-1.9H58l.5-1.5h-1.7l.5-1.7h7.4l-.5 1.7h-3l-.5 1.5h3l-.5 1.9h-3l-.8 2.4c0 .3.8.3 1.1.3zm2.3-12l-.5 1h3l-.5 1.9h-4.2l-.4.4c-.2.1-.3 0-.5.2a3 3 0 0 1-1.4.3h-1.3l.5-1.7h.4a1.5 1.5 0 0 0 .7-.1 1.6 1.6 0 0 0 .4-.6l.8-1.4zM66 79v-.7l1.2-3.7h5.3a2.6 2.6 0 0 0 1-.3 1.8 1.8 0 0 0 .7-.7 5.5 5.5 0 0 0 .7-1.6l1.5-4.7h-4.2a13.2 13.2 0 0 0-1.9.4 7.6 7.6 0 0 0-1.4.9l.4-1.3h-2.6l-3.6 12a7.4 7.4 0 0 0-.2 1c0 .2.3.4.5.6a1.6 1.6 0 0 0 .8.1h3.4l.6-2-1.8.2a.5.5 0 0 1-.4-.2zm2.8-9.7H73l-.4 1h-2.3a4.8 4.8 0 0 0-2.2 1zM68 72h4.2l-.3.8a3 3 0 0 0-.5 0h-3.7zm4.3 2.9h2L74 76a1.5 1.5 0 0 1-.5.8 1.9 1.9 0 0 1-1.3.5l-1.5.1v1.3c0 .3.1.3.2.4a.5.5 0 0 0 .1 0H73l-.6 1.9h-1.6a5 5 0 0 1-2.1-.2c-.3-.2-.3-.4-.3-.8v-5H71v1h.6a.8.8 0 0 0 .4 0 .5.5 0 0 0 .2-.3zm-30.5-25l-2 7.9-.2.7c-.4 1.5-.9 3.2-2.7 4.2a8.3 8.3 0 0 1-4.1 1c-1.3 0-3.5-.2-4.3-1.6a3.1 3.1 0 0 1-.4-1.5l.3-2.1.1-.7 1.8-7.6v-.5a24.8 24.8 0 0 0 4 0 .8.8 0 0 1 0 .2l-2 7.6-.4 2v.3a1.6 1.6 0 0 0 1.8 1.6 2.6 2.6 0 0 0 1.7-.6c.9-.7 1.1-1.8 1.5-3.3l1.7-7.8a25 25 0 0 0 3.3 0 .3.3 0 0 0 0 .2zm7.6 6.4c.3.7 0 1.5-.3 3l-.2 1-.6 3.2-.2.1h-2.9l.3-1.6.2-.7.5-2.7c0-.3.1-.9-.6-.9a2.2 2.2 0 0 0-.8.3l-.7 3-.5 2.6-3 .1-.2-.1.7-2.8A39.9 39.9 0 0 0 42 56h.1l3.1-.6.2.1-.3.9.8-.5a4.6 4.6 0 0 1 1.8-.4 1.6 1.6 0 0 1 1.7.9zm5 .9L54 59l-.4 1.6-.4 2-.2 1v.2H49.6a10 10 0 0 1 .3-1.2 8.1 8.1 0 0 0 .3-1.2l.4-2 .3-1.5 1.7-.3 1.6-.3zm4 6.6a5 5 0 0 0 3.6-1.4 6.6 6.6 0 0 0 1.3-2.7c.4-1.8 0-2.6-.3-3.1a3.4 3.4 0 0 0-2.8-1 5.1 5.1 0 0 0-3.5 1.2 5.7 5.7 0 0 0-1.6 3c-.2 1-.5 3 1.3 3.8a5.3 5.3 0 0 0 2 .3zm-.1-4c.3-1.3.7-2.5 1.6-2.5.7 0 .8.9.4 2.2a6 6 0 0 1-.6 2 1.1 1.1 0 0 1-1 .5s-.6 0-.6-.9a5.8 5.8 0 0 1 .1-1.3zm26 0c-.2 1.2-.5 3.1 1.3 3.8a3.5 3.5 0 0 0 1.6.3 2.7 2.7 0 0 0 1.6-.7l-.1.5v.1H92a67.2 67.2 0 0 1 1.7-8v-.2c-1.4.3-1.8.4-3.2.5l-.1.1v.4a2 2 0 0 0-1-.9A3.9 3.9 0 0 0 86 57a5.7 5.7 0 0 0-1.7 3zm3 .2c.4-1.4.7-2.5 1.6-2.5.6 0 1 .5.9 1.5l-.2.7-.3 1.2a2.7 2.7 0 0 1-.3.7 1.6 1.6 0 0 1-1.2.5s-.6 0-.6-.8a5.8 5.8 0 0 1 .1-1.3zm-23.6 3.7l-.1-.1.7-2.8a41.2 41.2 0 0 0 .9-4.8l3.2-.6v.1l-.1.9.7-.5a4.6 4.6 0 0 1 1.9-.4 1.6 1.6 0 0 1 1.6 1c.3.6.1 1.4-.3 3l-.1.8-.7 3.3-.1.1h-3l.4-1.6.1-.7a26.6 26.6 0 0 0 .5-2.7c0-.3.1-.9-.5-.9a2.2 2.2 0 0 0-.9.3l-.7 3-.5 2.5v.2h-3zm13 0l.6-2.9.4-1.8a1 1 0 0 1 .3-.3h.2c1.9 0 4 0 5.7-1.2a6 6 0 0 0 2.3-3.6 5.5 5.5 0 0 0 .1-1.3A2.6 2.6 0 0 0 86 51c-.9-1.2-2.6-1.2-4.5-1.2h-5v.5l-1 4.2-2.2 9.3h3.5zm1.6-7.4l1-4.2V51.9h.4l2 .2a1.6 1.6 0 0 1 .9 2 3 3 0 0 1-1.6 2.2 5 5 0 0 1-2.2.3h-.5zm18.4 10.8v.2l-1.2 2a2.2 2.2 0 0 1-2 1h-1.9l.5-1.6h.4a1 1 0 0 0 .4-.1.5.5 0 0 0 .2-.2l.7-1 2-3.5-.3-3.4-.3-2.1a19.4 19.4 0 0 0-.3-2 1 1 0 0 1 0-.2l.1-.2 3-.5v.1l.3 3.9v.2l1.7-3.6.1-.1 3-.5h.1s-5.7 10-6.5 11.7zM54.1 56.6a2.6 2.6 0 0 1-2.5.2c-.7-.3-.6-1.1.2-1.6a2.6 2.6 0 0 1 2.6-.3c.6.4.5 1.1-.3 1.7z"/></svg>