<svg xmlns="http://www.w3.org/2000/svg" viewBox="0 0 128 128"><path d="M67 8.1A55 55 0 0 0 13.4 87a52 52 0 0 1 0-7 80.7 80.7 0 0 1 3-17.4 39.3 39.3 0 0 1 16.3-23c7.6-4.8 16.4-7.7 23.7-13.1 3.7-2.7 9.2-6.1 11.5-10.2l.3-.5c.2 3.3 0 6 0 7.2 0 3.3.3 6.4-1.3 8.5s-1.8 3.2-.6 8 4 7.9 7.6 13.8-4.3 7.3-6.8 8.2-1.2 3.9-.7 4.3 2.7.6 1 3.3a22.1 22.1 0 0 1-4.7 5c3.2 3.4 1.4 7.4-1.7 6.9s-3.3 1.4-3.3 1.4a23 23 0 0 1-.4 6.6c-2 6.4-14.2 3-16.7 2s-10-6.5-16.7-.2a18.9 18.9 0 0 0-4.7 6.5A55.5 55.5 0 0 0 64.1 120h.4c.3-5.3.5-10 .9-13 1-10 7.8-39.8 7.8-39.8.4-2.1 1.6-3.7 3.9-3.4 2 .4 2.6 2 2.3 4.8l-3 21.5a2.5 2.5 0 0 1 0 .8c-.4 2.5 1.4 2.5 1.4 2.5a4.2 4.2 0 0 1 2-.2 4 4 0 0 1 3.3 3.9c.1.2.4.8 1.4.6a4 4 0 0 1 5.6 3.7s.2 1.1 2 .6a4 4 0 0 1 4.8 4.6l-.6 2.7-.2.6A56 56 0 0 0 67 8.1zm-9 32.6a3.3 3.3 0 0 0 0-6.6s-1.8-.1-4.7 2a8.7 8.7 0 0 0 2.3 3.5 3.3 3.3 0 0 0 2.4 1.1z"/></svg>