<svg xmlns="http://www.w3.org/2000/svg" viewBox="0 0 128 48"><path d="M68.1 14.8h-8.3V40h4.4v-6.3h4c3.6 0 5.2-.5 6.8-2a10.3 10.3 0 0 0 2.7-7.4c0-3.3-1-5.9-2.7-7.5-1.7-1.6-3.2-2-6.9-2zm3.7 14.1c-.8.9-2.2 1.3-4.2 1.3h-3.4v-12h3.6c3.7 0 5.4 1.9 5.4 5.8 0 2.2-.5 4-1.4 5zm16.8-14.1h-9.3v3.4h8.8c2.2 0 3 .3 3.6 1.1.5.7.5 1.2.5 2.9h-6.5a11 11 0 0 0-4.5.6 5.5 5.5 0 0 0-3 5.2 5.6 5.6 0 0 0 2.2 4.5c1.2 1 2.2 1.2 6 1.2h10.2V22.3c0-3-.3-4.3-1.4-5.6-1.2-1.5-2.7-2-6.6-2zm3.7 15.4H86c-2.4 0-3.3-.6-3.3-2.2a2.1 2.1 0 0 1 1.2-2.2 5 5 0 0 1 2-.2h6.2zm18-15.4h4.3v17c0 3.1-.5 5.2-1.8 6.5S110 40 106.6 40h-8.8v-3.5h8.6c2 0 2.5 0 3-.5s.7-.8.8-2.3h-5c-3 0-4.8-.6-6.1-2.2-1.1-1.4-1.3-2.5-1.3-6.2V14.8h4.4v10.8c0 3.6.7 4.6 3.5 4.6h4.5zm7-7a2.7 2.7 0 1 0 0 5.4 2.7 2.7 0 1 0 0-5.4zm0 4.8a2 2 0 0 1-2-2.1 2 2 0 0 1 2-2.1 2 2 0 0 1 2 2.1 2 2 0 0 1-2 2.1zm.7-2a.7.7 0 0 0 .5-.6.7.7 0 0 0-.3-.6 1.5 1.5 0 0 0-.9-.2 5.1 5.1 0 0 0-1 .1v2.6h.6v-1h.3c.4 0 .5.2.6.4a2.1 2.1 0 0 0 .2.7h.6a1.7 1.7 0 0 1-.1-.7c-.2-.4-.3-.6-.6-.7zm-.8-.2h-.3v-.8a1.5 1.5 0 0 1 .4 0c.4 0 .5.2.5.4s-.3.4-.6.4z" style="fill:#1d1d1b"/><path d="M21.9 14.8h-4.6a9.5 9.5 0 0 0-6 1.6C9.2 18 8 21 8 24.4a9.8 9.8 0 0 0 2.6 7.2c1.6 1.5 3.4 2 7 2h8.6V8H22zm0 15.4h-4.3c-3.4 0-5.1-2-5.1-6.1 0-4 1.8-5.9 5.4-5.9h4zm31.5-12v8.6c0 3 .5 3.4 3.1 3.4h2.1v3.5H55c-2.3 0-3.4-.4-4.4-1.3s-1.5-2.3-1.5-5v-9.2h-3.4v-3.4H49V8h4.4v6.8h5.2v3.5zm-14.8 2a.5.5 0 0 1 .2.4v2.8h-4.1v-2.8a.5.5 0 0 1 .1-.4.3.3 0 0 1 .3 0h3.3a.3.3 0 0 1 .3 0zM36.8 15a9.4 9.4 0 1 0 9.4 9.4 9.4 9.4 0 0 0-9.4-9.4zM41 28.6a1.3 1.3 0 0 1-1.3 1.3h-6a1.3 1.3 0 0 1-1.3-1.3v-3.9a1.3 1.3 0 0 1 .8-1.2v-2.9a1.9 1.9 0 0 1 1.8-1.9h3.3a1.9 1.9 0 0 1 1.9 2v2.8a1.3 1.3 0 0 1 .8 1.2z" style="fill:#9f1813"/></svg>