<svg xmlns="http://www.w3.org/2000/svg" xmlns:xlink="http://www.w3.org/1999/xlink" viewBox="0 0 128 128"><defs><linearGradient id="a" x1="25.3" y1="64" x2="49.1" y2="64" gradientUnits="userSpaceOnUse"><stop offset="0" stop-color="#313578"/><stop offset="1" stop-color="#0077bd"/></linearGradient><linearGradient id="c" x1="25.2" y1="70.6" x2="25.3" y2="70.6" xlink:href="#a"/><linearGradient id="d" x1="52.1" y1="64" x2="75.9" y2="64" gradientUnits="userSpaceOnUse"><stop offset="0" stop-color="#763137"/><stop offset="1" stop-color="#ee1846"/></linearGradient><linearGradient id="b" x1="83.5" y1="67.8" x2="91.8" y2="67.8" gradientUnits="userSpaceOnUse"><stop offset="0" stop-color="#008149"/><stop offset="1" stop-color="#62bb45"/></linearGradient><linearGradient id="e" x1="83.5" y1="60" x2="91.1" y2="60" xlink:href="#b"/><linearGradient id="f" x1="78.8" y1="64" x2="102.7" y2="64" xlink:href="#b"/></defs><g><path d="M118 98H10V30h108z" style="fill:#fff"/><path d="M116 32v64H12V32h104m0-4H12a4 4 0 0 0-4 4v64a4 4 0 0 0 4 4h104a4 4 0 0 0 4-4V32a4 4 0 0 0-4-4z" style="fill:#bdbdbd"/><path d="M49 35v48.6A9.7 9.7 0 0 1 40 93H25.3V72.6a40.7 40.7 0 0 0 6.8 1.1c8.8.5 14.6-.9 15-7.4V54.8h-8.4v11.7c-.3 3.2-2.7 4.5-6.5 4.2a26.4 26.4 0 0 1-7-2V44.3a9.7 9.7 0 0 1 9.4-9.4z" style="fill:url(#a)"/><path d="M25.2 68.6v4-4z" style="fill:url(#c)"/><path d="M76 35v48.6a9.7 9.7 0 0 1-9.3 9.4H52.1V70.8c2.5 2 6.5 3.1 12 3a36.7 36.7 0 0 0 9-1.2v-4a25.5 25.5 0 0 1-7 2.1c-6.3.4-8.6-2.9-8.6-6.8 0-4.3 3-7 8.7-6.5a21.5 21.5 0 0 1 7 2v-4a38.5 38.5 0 0 0-7.3-1.2c-6-.4-10.8.7-13.7 3V44.4a9.7 9.7 0 0 1 9.3-9.4z" style="fill:url(#d)"/><path d="M89.3 65.2h-5.8v5.1h5.8a2.6 2.6 0 0 0 2.5-2.6 2.5 2.5 0 0 0-2.5-2.5z" style="fill:url(#b)"/><path d="M91 60a2.3 2.3 0 0 0-2.2-2.4h-5.3v4.6h5.4a2.3 2.3 0 0 0 2.2-2.2z" style="fill:url(#e)"/><path d="M102.7 35v48.6a9.7 9.7 0 0 1-9.2 9.4H78.8V73.3h15.3c2 0 5.8-1 5.8-4.7s-3.5-4.8-5.6-4.8c3.5-.7 4.5-2.8 4.5-4.6 0-3.3-3.3-4.5-6-4.5h-14V44.4a9.7 9.7 0 0 1 9.4-9.4z" style="fill:url(#f)"/></g></svg>