<svg xmlns="http://www.w3.org/2000/svg" viewBox="0 0 128 94"><path fill="#71706e" d="M62.3 68.2V85c0 .6 0 1-.8.9h-6.2c-.6 0-.8-.1-.8-.8 0-11-.2-22.6 0-33.7a15.8 15.8 0 0 1 14.2-15.2 16 16 0 0 1 17.1 12.1 16 16 0 0 1-13 19.5 77.3 77.3 0 0 1-9.2.3zm.2-8h8a8.2 8.2 0 0 0 0-16.3 7.7 7.7 0 0 0-8 6.6 95.2 95.2 0 0 0 0 9.7zm19.7 8h27.3a15.2 15.2 0 0 0 2-.2 10 10 0 0 0-1.7-19.8h-10a2 2 0 0 1-2-1.4 1.9 1.9 0 0 1 .5-2.3 3 3 0 0 1 1.8-.7h14.6c.7 0 .9-.2.9-.9v-5.8c0-.8-.3-1-1-1h-14.4a12.9 12.9 0 0 0-1.8.2 9.9 9.9 0 0 0-1 19.4 13 13 0 0 0 2.6.3h10a2.1 2.1 0 0 1 2.2 2 2 2 0 0 1-1.5 2.1 5 5 0 0 1-1.2.1H89.2a1.4 1.4 0 0 0-1.5 1 15.7 15.7 0 0 1-6.3 7z"/><path fill="#c8036f" d="M50.3 60H29a7.8 7.8 0 0 1-6.9-3.5 2.5 2.5 0 0 1-.1-.3 1.2 1.2 0 0 1 0-.2h23.2c1.3-10.3-4.4-18.1-13.2-19.8A16 16 0 0 0 13.6 48 16.3 16.3 0 0 0 27.2 68a23 23 0 0 0 2.8.2h20.2a11.6 11.6 0 0 1-.3 1.2 6.1 6.1 0 0 1-5.7 3.8H14a6.2 6.2 0 0 1-6-6L8 37a6 6 0 0 1 5.8-5.9h30.7a6 6 0 0 1 5.8 5.8V60zM21.2 26c.8 0 1.1-.3 1.1-1.2v-3.5a6.7 6.7 0 0 1 6-6.5c3.7-.3 6.8 1.8 7.4 5.3a32.6 32.6 0 0 1 .2 4.7c0 1 .3 1.2 1.2 1.2h4.4c.9 0 1.2-.3 1.2-1.2v-3.5a13.3 13.3 0 0 0-12.5-13A13.7 13.7 0 0 0 16.7 16c-1.3 2.9-1 6-1 9 0 .3.6.7 1 .8a17 17 0 0 0 2.3 0zm7.5 17.7a8.8 8.8 0 0 0-7 4.4h14.7a8.5 8.5 0 0 0-7.7-4.4z"/></svg>