<svg xmlns="http://www.w3.org/2000/svg" viewBox="0 0 128 128"><path d="M119.3 60.3a8.2 8.2 0 0 0-1.6-9l-9.1-9.4a8.2 8.2 0 0 1-2-3.6L103 25.6a8.2 8.2 0 0 0-7.2-6l-12.7-1.2a8.2 8.2 0 0 1-4-1.5L68.8 9.5a8.2 8.2 0 0 0-9.5 0L48.8 17a8.2 8.2 0 0 1-4 1.5l-12.7 1.2a8.2 8.2 0 0 0-7.2 6l-3.3 12.6a8.2 8.2 0 0 1-2 3.6l-9.2 9.4a8.2 8.2 0 0 0-1.6 9.1l5.4 12a8.2 8.2 0 0 1 .7 4l-1 13.2a8.2 8.2 0 0 0 4.6 8.1l11.7 5.6a8.2 8.2 0 0 1 3.1 2.7l7.5 10.6a8.2 8.2 0 0 0 8.8 3.3l12.3-3.3a8.2 8.2 0 0 1 4.3 0l12.3 3.3a8.2 8.2 0 0 0 8.8-3.3l7.5-10.6a8.2 8.2 0 0 1 3.1-2.7l11.7-5.6a8.2 8.2 0 0 0 4.6-8l-1-13.2a8.2 8.2 0 0 1 .7-4zm-25-5l-35 35a6 6 0 0 1-8.6 0l-17-17a6 6 0 0 1 8.5-8.5L55 77.5l30.8-30.7a6 6 0 1 1 8.5 8.4z"/></svg>