<svg xmlns="http://www.w3.org/2000/svg" viewBox="0 0 112 113"><path d="M103.9,1 L66.6,1 C64.4573505,1.01459787 62.4077757,1.87757674 60.9,3.4 L1.2,63 C0.4365686,63.7518295 0.00668844014,64.7785173 0.00668844014,65.85 C0.00668844014,66.9214827 0.4365686,67.9481705 1.2,68.7 L44.2,111.7 C44.9518295,112.463431 45.9785173,112.893312 47.05,112.893312 C48.1214827,112.893312 49.1481705,112.463431 49.9,111.7 L109.6,52 C111.122423,50.4922243 111.985402,48.4426495 112,46.3 L112,9 C112,4.52649353 108.373506,0.9 103.9,0.9 L103.9,1 Z M78.3,54 L53.3,86 C51.8360943,87.8307275 49.6429254,88.927312 47.3,89 L47,89 C44.805617,88.9973996 42.7086379,88.0935293 41.2,86.5 L26.2,70.5 C23.3801613,67.2679217 23.6110863,62.3870806 26.7234815,59.4356714 C29.8358767,56.4842622 34.7220952,56.5126397 37.8,59.5 L46.5,68.7 L65.7,44.1 C67.3692765,41.6204508 70.2816215,40.2783192 73.2511015,40.6201335 C76.2205815,40.9619478 78.7518151,42.9306851 79.814061,45.7246576 C80.8763069,48.5186301 80.2923566,51.6717353 78.3,53.9 L78.3,54 Z M88,35 C82.4771525,35 78,30.5228475 78,25 C78,19.4771525 82.4771525,15 88,15 C93.5228475,15 98,19.4771525 98,25 C98,27.6521649 96.9464316,30.195704 95.0710678,32.0710678 C93.195704,33.9464316 90.6521649,35 88,35 Z"/>
</svg>
