<svg xmlns="http://www.w3.org/2000/svg" viewBox="0 0 128 128"><path d="M92 100a10 10 0 1 1-10 10 10 10 0 0 1 10-10zm-66 10a10 10 0 1 0 10-10 10 10 0 0 0-10 10zM16 56h88.2a8 8 0 0 1 7.6 5.5l7.8 26.3a8 8 0 0 1 .4 2.5V106a6 6 0 0 1-6 6h-6.1a16 16 0 1 0-31.8 0H52a16 16 0 1 0-31.8 0H16a8 8 0 0 1-8-8V64a8 8 0 0 1 8-8zm72 24l25 8-7-24H88zm-24 0h16V64H64zm-24 0h16V64H40zm-24 0h16V64H16zm8.2-44.6l8 4.5 4.4 8a.4.4 0 0 0 .6 0l1-1a.4.4 0 0 0 0-.3V37l6.5-5.9L56.1 46a1.4 1.4 0 0 0 2 .4l1-.5a1.4 1.4 0 0 0 .5-1.8L52 24.2l9-8.4a10.2 10.2 0 0 0 3-6.4A1.4 1.4 0 0 0 62.6 8a10.2 10.2 0 0 0-6.5 2.9L47.6 20l-19.8-7.5a1.4 1.4 0 0 0-1.8.6l-.5 1A1.4 1.4 0 0 0 26 16l15 11.5-5.8 6.2h-9.7a.4.4 0 0 0-.3.1l-1 1a.4.4 0 0 0 0 .6zm79.7-1.3a8.9 8.9 0 0 1-3.3 7.2 11.8 11.8 0 0 1-5.8 2.6v2.7a1.4 1.4 0 0 1-1.4 1.4h-2.9a1.4 1.4 0 0 1-1.4-1.4v-2.8a12.2 12.2 0 0 1-4.7-2A11.2 11.2 0 0 1 80 36a.8.8 0 0 1 .5-1l4.2-1.9a.7.7 0 0 1 1 .5 6.8 6.8 0 0 0 6.7 4.7 6 6 0 0 0 3.8-1 3.1 3.1 0 0 0 1.3-2.6q0-3-6.4-4.6a17.4 17.4 0 0 1-7.3-3.4 7.6 7.6 0 0 1-2.6-6 7.7 7.7 0 0 1 3.1-6.3 11.3 11.3 0 0 1 4.8-2.1V9.4A1.4 1.4 0 0 1 90.5 8h2.9a1.4 1.4 0 0 1 1.4 1.4v2.7a11 11 0 0 1 4 1.3 12.3 12.3 0 0 1 4.2 4.3q.3.5-.3 1L99 21.1q-.6.4-.9-.2a6.8 6.8 0 0 0-6-3.6 6.3 6.3 0 0 0-3.5 1 2.6 2.6 0 0 0-1.4 2.1 3 3 0 0 0 1.7 2.7 19.2 19.2 0 0 0 5.5 2 15.8 15.8 0 0 1 7 3.2A7.4 7.4 0 0 1 104 34z"/></svg>