<svg xmlns="http://www.w3.org/2000/svg" viewBox="0 0 128 128"><path d="M89.6 44.6L94 28.3a4 4 0 0 1 4.9-2.9 4 4 0 0 1 2.8 5l-2.3 8.5 7.7-4.4a4 4 0 0 1 5.5 1.4 4 4 0 0 1-1.5 5.5l-7.7 4.4 8.6 2.4a4 4 0 0 1 2.8 4.9 4 4 0 0 1-4.9 2.8l-16.3-4.4-15.5 9a4 4 0 0 1-5.5-1.5 4 4 0 0 1 1.5-5.5zM53.9 74.5a4 4 0 0 0 1.4-5.5 4 4 0 0 0-5.4-1.5l-15.6 9L18 72.2a4 4 0 0 0-5 2.8 4 4 0 0 0 2.9 5l8.4 2.2-7.5 4.3a4 4 0 0 0-1.4 5.5 4 4 0 0 0 5.4 1.5l7.8-4.5-2.4 8.8a4 4 0 0 0 2.9 4.9 4 4 0 0 0 4.9-2.9l4.4-16.4zM60 32.2V50a4 4 0 0 0 4 4 4 4 0 0 0 4-4V32l11.9-11.9a4 4 0 0 0 0-5.6 4 4 0 0 0-5.7 0L68 20.7V12a4 4 0 0 0-4-4 4 4 0 0 0-4 4v8.9l-6.4-6.4a4 4 0 0 0-5.6 0 4 4 0 0 0 0 5.7zM114.8 75a4 4 0 0 0-4.9-2.8l-16.3 4.3-15.5-9a4 4 0 0 0-5.5 1.5 4 4 0 0 0 1.5 5.5l15.5 8.9 4.3 16.4a4 4 0 0 0 4.9 2.8 4 4 0 0 0 2.8-4.9L99.3 89l7.7 4.5a4 4 0 0 0 5.5-1.5 4 4 0 0 0-1.5-5.4l-7.6-4.4 8.6-2.3a4 4 0 0 0 2.8-4.9zM68 95.8V78a4 4 0 0 0-4-4 4 4 0 0 0-4 4v18l-11.9 11.9a4 4 0 0 0 0 5.6 4 4 0 0 0 5.7 0l6.2-6.2v8.7a4 4 0 0 0 4 4 4 4 0 0 0 4-4v-8.9l6.4 6.4a4 4 0 0 0 5.6 0 4 4 0 0 0 0-5.7zM13.2 53a4 4 0 0 0 4.8 2.8l16.3-4.3 15.5 9a4 4 0 0 0 5.5-1.5 4 4 0 0 0-1.4-5.5l-15.5-8.9-4.3-16.4a4 4 0 0 0-5-2.8 4 4 0 0 0-2.8 4.9l2.3 8.7-7.7-4.5a4 4 0 0 0-5.4 1.5 4 4 0 0 0 1.4 5.5l7.6 4.3-8.5 2.3a4 4 0 0 0-2.9 4.9z"/></svg>