<svg xmlns="http://www.w3.org/2000/svg" viewBox="0 0 128 128"><path d="M28.1 17a4 4 0 0 1 2.9-4.9A152.5 152.5 0 0 1 64 8a152.5 152.5 0 0 1 33 4.1 4 4 0 0 1-2 7.8A147 147 0 0 0 64 16a146.4 146.4 0 0 0-31 3.9 4 4 0 0 1-4.9-2.9zm83 103H98.5a1 1 0 0 1-.7-.3L82 104H46.2l-15.7 15.7a1 1 0 0 1-.7.3H17a1 1 0 0 1-.6-1.8L33.9 104H32a8 8 0 0 1-8-8V72c0-12 4.8-28 7-37.5a8 8 0 0 1 5.5-5.9c8-2.3 17.3-4.6 27.5-4.6s19.4 2.3 27.5 4.6a8 8 0 0 1 5.6 6C99.3 44 104 60 104 72v24a8 8 0 0 1-8 8h-1.8l17.6 14.2a1 1 0 0 1-.6 1.8zM56 36a4 4 0 0 0 4 4h8a4 4 0 0 0 4-4 4 4 0 0 0-4-4h-8a4 4 0 0 0-4 4zM36 72h55.9a4 4 0 0 0 3.9-5l-2-16a4 4 0 0 0-4-3H38.3a4 4 0 0 0-3.9 3.1l-2.2 16A4 4 0 0 0 36 72zm12 16a8 8 0 1 0-8 8 8 8 0 0 0 8-8zm48 0a8 8 0 1 0-8 8 8 8 0 0 0 8-8z"/></svg>