<svg xmlns="http://www.w3.org/2000/svg" viewBox="0 0 128 128"><path d="M120 100a4 4 0 0 1-4 4h-12v12a4 4 0 0 1-8 0v-12H84a4 4 0 0 1 0-8h12V84a4 4 0 0 1 8 0v12h12a4 4 0 0 1 4 4zm-63.5-8a4 4 0 0 1-2-.6C21.8 71.9 5 49.4 8.5 29.5a25.6 25.6 0 0 1 20.1-21c10.1-2 20.4 2 27.9 10.8a29.2 29.2 0 0 1 28-10.8 25.6 25.6 0 0 1 20.2 21c3.4 20-13.5 42.5-46.2 61.9a4 4 0 0 1-2 .5zM33.9 16a18.6 18.6 0 0 0-3.7.4 17.4 17.4 0 0 0-13.9 14.5c-2.7 15.8 12.3 35.3 40.2 52.4 28-17.1 43-36.6 40.3-52.4a17.4 17.4 0 0 0-14-14.5c-8.5-1.8-17.1 2.6-23 11.7a4 4 0 0 1-3.3 1.8 4 4 0 0 1-3.3-1.8c-5-7.8-12-12.1-19.3-12.1z"/></svg>