<svg xmlns="http://www.w3.org/2000/svg" viewBox="0 0 128 128"><path d="M24 44a4 4 0 0 1 4-4h28v-8H28a12 12 0 0 0-12 12v24l8-8zm44-8a24 24 0 1 1 24 24 24 24 0 0 1-24-24zm8 3a1 1 0 0 0 1 1h10a1 1 0 0 1 1 1v10a1 1 0 0 0 1 1h6a1 1 0 0 0 1-1V41a1 1 0 0 1 1-1h10a1 1 0 0 0 1-1v-6a1 1 0 0 0-1-1H97a1 1 0 0 1-1-1V21a1 1 0 0 0-1-1h-6a1 1 0 0 0-1 1v10a1 1 0 0 1-1 1H77a1 1 0 0 0-1 1zm44 65v11.8a4.1 4.1 0 0 1-3.6 4.2 4 4 0 0 1-4.4-4v-4H16v3.8a4.1 4.1 0 0 1-3.6 4.2 4 4 0 0 1-4.4-4v-12a8 8 0 0 1 8-8h96a8 8 0 0 1 8 8zm-8-16a16 16 0 0 0-16-16H32a16 16 0 0 0-16 16v4h96z"/></svg>