<svg xmlns="http://www.w3.org/2000/svg" viewBox="0 0 128 128"><path d="M72 103.7a99 99 0 0 1-16 0V96a8 8 0 0 1 16 0zm46.9-50.8l-15.3 37.3c-1.9 5.6-11 10.3-23.6 12.5V96a16 16 0 0 0-32 0v6.7c-12.5-2.2-21.7-7-23.6-12.5L9 52.8A11.1 11.1 0 0 1 8 48c0-13.3 25-24 56-24s56 10.8 56 24a11.2 11.2 0 0 1-1.2 4.9zm-40.4-3.5a48 48 0 0 1 9.4 2.9l11.3-14.4A82 82 0 0 0 81 33.2zm-23.8-17l2.4 15.9a76.3 76.3 0 0 1 13.5 0l2.4-16a124 124 0 0 0-18.3 0zm-25.4 5.3l11.3 14.4a48.6 48.6 0 0 1 8.6-2.6l-2.5-16.3a82.5 82.5 0 0 0-17.4 4.5zm4.3 18.5L22 41.3c-3.9 2.4-6 4.8-6 6.7 0 3 5.5 7.6 15.3 11a11.2 11.2 0 0 1 2.3-2.8zM92 60.5c-3-3.4-13-7.7-28-7.7s-25 4.3-28 7.7A106 106 0 0 0 64 64a106 106 0 0 0 28-3.5zM112 48c0-1.8-2-4.1-5.5-6.4l-11.8 15a10.8 10.8 0 0 1 2 2.4c9.8-3.4 15.3-8 15.3-11z"/></svg>