<svg xmlns="http://www.w3.org/2000/svg" viewBox="0 0 128 128"><path d="M87 68l13 13-19 19-13-13zM64.2 43.2l-12 12 5.6 5.6 12-12zm16.6 17.6l-5.6-5.6-12 12 5.6 5.6zm35.8 28.8l-27 27a11.6 11.6 0 0 1-16.3 0l-46-45.9a11.6 11.6 0 0 1 0-16.3l27-27a11.5 11.5 0 0 1 16.4 0l45.9 45.9a11.6 11.6 0 0 1 0 16.3zM111 78.9L65 33a3.5 3.5 0 0 0-5 0L33 60a3.5 3.5 0 0 0 0 5l46 46a3.5 3.5 0 0 0 5 0l27-27a3.5 3.5 0 0 0 0-5zM25.1 15.3a2 2 0 0 1-1.4-1.4A8 8 0 0 0 15.6 8 8 8 0 0 0 8 15.6a8 8 0 0 0 5.8 8.1 2 2 0 0 1 1.5 1.4L20 44l24-24z"/></svg>