<svg xmlns="http://www.w3.org/2000/svg" viewBox="0 0 128 128"><path d="M27.3 21.6A55.9 55.9 0 0 1 59.8 8l.2 3.8a47.9 47.9 0 0 1-11.4 31zM64 58.3l36.8-36.7A55.9 55.9 0 0 0 67.8 8c.2 1.3.2 2.6.2 3.9a56 56 0 0 1-13.7 36.7zM11.9 60a47.9 47.9 0 0 0 31-11.4L21.6 27.2A55.9 55.9 0 0 0 8 59.9l3.9.2zm46.4 4l-9.7-9.7A56 56 0 0 1 12 68l-4-.1a55.9 55.9 0 0 0 13.6 32.8zm57.8 4a47.9 47.9 0 0 0-31 11.4l21.3 21.3A55.9 55.9 0 0 0 120 68.2l-3.9-.2zM60 116.1a56 56 0 0 1 13.7-36.7L64 69.7l-36.8 36.7a55.9 55.9 0 0 0 33 13.6c-.2-1.3-.2-2.6-.2-3.9zM69.7 64l9.7 9.7A56 56 0 0 1 116 60l3.9.1a55.9 55.9 0 0 0-13.6-32.8zm9.7 21A47.9 47.9 0 0 0 68 116.2c0 1.3 0 2.6.2 3.9a55.9 55.9 0 0 0 32.5-13.6z"/></svg>