<svg xmlns="http://www.w3.org/2000/svg" viewBox="0 0 128 128"><path d="M32 44a8 8 0 1 0-8-8 8 8 0 0 0 8 8zm80 41.9V94c0 7.7-5.3 14.4-12 17l2.7 2a4.2 4.2 0 0 1 .3 5.7 4 4 0 0 1-5.8.1L90 112H38l-7 6.7a4.2 4.2 0 0 1-5.7.3 4 4 0 0 1-.1-5.8L28 111c-6.8-2.6-12-9.3-12-17v-8.1A16.2 16.2 0 0 1 8 72a16 16 0 0 1 16-16h26a16.2 16.2 0 0 1 14-8 9.8 9.8 0 0 1 4 1 20 20 0 0 1 16-9 20 20 0 0 1 19.6 16c11.6 0 16.4 7.7 16.4 16 0 6.6-2.8 10.8-8 13.9zM32 52a16 16 0 1 1 16-16 16 16 0 0 1-16 16zm28-20a12 12 0 1 1 12-12 12 12 0 0 1-12 12zm0-8a4 4 0 1 0-4-4 4 4 0 0 0 4 4zm-5.3 40H24a8 8 0 1 0 0 16h80a8 8 0 0 0 0-16h-8s1-16-12-16a13.3 13.3 0 0 0-13 9 22 22 0 0 0-7-1c-7.8 0-9.3 8-9.3 8z"/></svg>