<svg xmlns="http://www.w3.org/2000/svg" viewBox="0 0 128 128"><path d="M40 104a16 16 0 0 1-16-16V72a16 16 0 0 1 16-16v-4h56v52a16 16 0 0 1-16 16H56a16 16 0 0 1-16-16zm12-44a4 4 0 0 0-4 4v40a4 4 0 0 0 8 0V64a4 4 0 0 0-4-4zm16 0a4 4 0 0 0-4 4v40a4 4 0 0 0 8 0V64a4 4 0 0 0-4-4zm16 0a4 4 0 0 0-4 4v40a4 4 0 0 0 8 0V64a4 4 0 0 0-4-4zm-44 4a8 8 0 0 0-8 8v16a8 8 0 0 0 8 8V64zm32-48a16.1 16.1 0 0 1 2 .1 16 16 0 0 1 30 7.9v8a16 16 0 0 1-16 16H42c-11.6 0-18-7.2-18-16s9.2-16 18-16a16.4 16.4 0 0 1 14-8 16 16 0 0 1 14 8.1 16.1 16.1 0 0 1 2-.1zm0 8a39.3 39.3 0 0 0-6.4.8S64.5 16 56 16c-8 0-9.5 8-9.5 8H40a8 8 0 0 0-8 8c0 4.4 2.3 8 8 8h48a8 8 0 0 0 8-8v-8a8 8 0 0 0-8-8c-8.5.3-9.6 8.8-9.6 8.8A27.1 27.1 0 0 0 72 24z"/></svg>