<svg xmlns="http://www.w3.org/2000/svg" viewBox="0 0 128 128"><path d="M64 8a56 56 0 1 0 56 56A56 56 0 0 0 64 8zm12 72a28 28 0 1 1 28-28 28 28 0 0 1-28 28zM62.6 66.7c-5.8-5.8-7.9-13.4-2.4-18.9 3.4-3.4 7.6-3.7 11.7-1.6V46a8.4 8.4 0 0 1 1.8-10.2c5-5 12.2-3 17.5 2.2s7.2 12.5 2.1 17.5a8.3 8.3 0 0 1-10.1 1.7l-.1.2c2 4 1.7 8.2-1.6 11.5-5.5 5.6-13.2 3.5-19-2.3zM75.4 54c-2.5-2.5-5.8-2.9-8.3-.4s-2 6 .4 8.3 5.8 2.8 8.3.3 2-5.8-.4-8.2zm11-11c-2.2-2.2-4.9-2.5-7-.3s-1.9 4.8.3 7 4.9 2.5 7 .3 1.8-4.9-.3-7z"/></svg>