<svg xmlns="http://www.w3.org/2000/svg" viewBox="0 0 128 128"><path d="M104 64v40c0 8.8-18 16-40 16s-40-7.2-40-16V64c0-3.6 2.3-8.6 13.3-12.3a4 4 0 1 1 2.5 7.6C33.4 61.5 32 63.7 32 64s1.4 2.5 7.8 4.7S54.8 72 64 72s17.8-1.2 24.2-3.3S96 64.3 96 64s-1.4-2.5-7.8-4.7a4 4 0 0 1 2.5-7.6c11 3.7 13.3 8.7 13.3 12.3zm-45.9-3a144.3 144.3 0 0 1 5.2-15.4c.4-1 1-1 1.4 0A144.3 144.3 0 0 1 70 61c7-1.4 12.1-6.2 12.1-17.9C82 30.8 69.7 14 65.4 8.8a1.7 1.7 0 0 0-2.8 0C58.3 13.9 46 30.8 46 43c0 11.7 5 16.4 12.1 17.9z"/></svg>