<svg xmlns="http://www.w3.org/2000/svg" viewBox="0 0 128 128"><path d="M120 41.1V13.4a2 2 0 0 0-3.5-1.4c-3 3.1-8.3 11.7-17.2 12a43.8 43.8 0 0 0-19.5 4.3 37.9 37.9 0 0 0-6 3.7 16.2 16.2 0 0 1-19.6 0 37.9 37.9 0 0 0-6-3.7A43.8 43.8 0 0 0 28.6 24c-5.4-.2-9.5-3.5-12.6-6.8V12a4 4 0 0 0-8 0v104a4 4 0 0 0 8 0V70.7a31.3 31.3 0 0 0 11 9.7A36.2 36.2 0 0 0 43.3 84a22.2 22.2 0 0 0 8.6-2.3 8 8 0 0 0 3.4-3l5.3-8.6a4 4 0 0 1 6.7 0c1.2 1.7 3.8 6 5.4 8.6a8 8 0 0 0 3.4 3 22.2 22.2 0 0 0 8.6 2.3 36.2 36.2 0 0 0 16.3-3.6c11.6-5.8 19-21.7 19-32.4v-6.9zM51.2 55a33.6 33.6 0 0 1-7.9 1 20.6 20.6 0 0 1-9.2-2C27.8 51 25 44 24 41.5a1 1 0 0 1 .8-1.2 34.3 34.3 0 0 1 3.8-.2A28 28 0 0 1 41 42.6c6.2 3.1 9.7 8.8 10.9 11.1a1 1 0 0 1-.7 1.3zM104 41.4c-.8 2.6-3.7 9.5-10 12.7a20.6 20.6 0 0 1-9.2 1.9 33.6 33.6 0 0 1-8-1 1 1 0 0 1-.6-1.3c1.2-2.3 4.7-8 10.9-11A28 28 0 0 1 99.3 40a34.3 34.3 0 0 1 3.8.2 1 1 0 0 1 .8 1.2z"/></svg>