<svg xmlns="http://www.w3.org/2000/svg" viewBox="0 0 128 128"><path d="M76 28a4 4 0 0 1 4-4h16.2a4 4 0 0 1 .5 0 4 4 0 0 1 .4 0 4 4 0 0 1 3 3.9L112 75a4 4 0 1 1-7.8 2l-8.1-32.4L87.9 77a4 4 0 0 1-7.8-2L91 32H80a4 4 0 0 1-4-4zM19 79.9a4 4 0 0 0 4.9-2.9L32 44.6 40.2 77a4 4 0 1 0 7.8-2L37.1 32h11a4 4 0 0 0 0-8H32a4 4 0 0 0-.5 0 4 4 0 0 0-.4 0 4 4 0 0 0-3 3.9L16 75a4 4 0 0 0 2.9 4.9zm97 8.1H76a4 4 0 0 0-4 4.7 24.5 24.5 0 0 0 48 0 4 4 0 0 0-4-4.7zm-64 0H12a4 4 0 0 0-4 4.7 24.5 24.5 0 0 0 48 0 4 4 0 0 0-4-4.7zm16-72h-8a4 4 0 0 0-4 4v16a4 4 0 0 0 4 4h8a4 4 0 0 0 4-4V20a4 4 0 0 0-4-4z"/></svg>