<svg xmlns="http://www.w3.org/2000/svg" viewBox="0 0 128 128"><path d="M108 68a12 12 0 0 0-6.2 1.8l-5.6-5.6 5.8-5.8a12 12 0 1 0-5.4-6.7l-6.4 6.5-14.5-14.5a8 8 0 0 0-11.4 0l-.3.3 20.2 20.2L64 84.3l.3.4a8 8 0 0 0 11.4 0l14.5-14.5 6.3 6.3A12 12 0 1 0 108 68zm0-24a4 4 0 1 1-4 4 4 4 0 0 1 4-4zm0 40a4 4 0 1 1 4-4 4 4 0 0 1-4 4zM48 24v8H24v-8zm8 24H24v-8h32zm0 16H24v-8h32zm-32 8h32v8H24zm64 24h8v12a12 12 0 0 1-12 12H20a12 12 0 0 1-12-12V20A12 12 0 0 1 20 8h64a12 12 0 0 1 12 12v12h-8V20a4 4 0 0 0-4-4H20a4 4 0 0 0-4 4v88a4 4 0 0 0 4 4h64a4 4 0 0 0 4-4z"/></svg>