<svg xmlns="http://www.w3.org/2000/svg" viewBox="0 0 128 128"><path d="M56 57.8l7.5 8.7A16 16 0 0 0 75.6 72H88a16 16 0 0 0 16-16V36a12 12 0 0 0-12-12H20A12 12 0 0 0 8 36v20a16 16 0 0 0 16 16h12.4a16 16 0 0 0 12-5.5zm-13.6 3.4a8 8 0 0 1-6 2.8H24a8 8 0 0 1-8-8V36a4 4 0 0 1 4-4h72a4 4 0 0 1 4 4v20a8 8 0 0 1-8 8H75.6a8 8 0 0 1-6-2.8L58.8 49a4 4 0 0 0-5.6 0zM111.8 12a4 4 0 1 1 4 4 4 4 0 0 1-4-4zm8.2 16v64c0 8.4-2.5 15.6-7.3 20.7a22.8 22.8 0 0 1-33.4 0A29.7 29.7 0 0 1 72 92a4.3 4.3 0 0 0-4-4H52a4 4 0 0 1 0-8h16a12.3 12.3 0 0 1 12 12c0 9.6 5 20 16 20s16-10.4 16-20V28a4 4 0 0 1 8 0z"/></svg>