<svg xmlns="http://www.w3.org/2000/svg" viewBox="0 0 128 128"><path d="M97.5 81.2a24.9 24.9 0 0 1-9.4 20 33.1 33.1 0 0 1-16.1 7.2v7.6a4 4 0 0 1-4 4h-8a4 4 0 0 1-4-4v-7.8a34 34 0 0 1-13.1-5.4 31.4 31.4 0 0 1-12.3-16.3A2 2 0 0 1 32 84l11.7-5.3a1.8 1.8 0 0 1 2.7 1.3q5.5 13 18.9 13 6.8 0 10.6-3a8.8 8.8 0 0 0 3.7-7.1q0-8.4-18-12.9-13.4-3.3-20.6-9.5t-7.2-16.9A21.4 21.4 0 0 1 42.6 26 31.8 31.8 0 0 1 56 20v-8a4 4 0 0 1 4-4h8a4 4 0 0 1 4 4v7.5a30.6 30.6 0 0 1 10.8 3.6 34.5 34.5 0 0 1 12 12q.9 1.5-.8 2.6L84 45q-1.6 1-2.5-.4-6.2-10-17-10a17.6 17.6 0 0 0-9.6 2.4Q51 39.4 51 43q0 4.6 4.7 7.5T71 56q13 3 19.7 9t6.8 16.2z"/></svg>