<svg xmlns="http://www.w3.org/2000/svg" viewBox="0 0 128 128"><path d="M106.4 100.6l.2-.3 1.3-1.5.3-.4 1.1-1.6.3-.3 1.2-1.7A55.7 55.7 0 0 0 120 64v-2.7l-.1-.8-.2-1.8v-1l-.3-1.6-.1-1-.3-1.6-.2-1-.5-2.4-.3-1-.4-1.4-.4-1.2-.4-1.2-.5-1.2-.4-1-.5-1.4-.4-.8a55.8 55.8 0 0 0-2.5-5l-.3-.5-1-1.4-.3-.6-1-1.4-.3-.5-1.1-1.5a56.1 56.1 0 0 0-25.8-18.8 55.6 55.6 0 0 0-6.2-1.8l-.7-.2-1.5-.2-1.1-.2-1.4-.2-1.3-.2-1.2-.1-1.7-.1h-1C65.8 8 65 8 64 8h-2.7l-1 .1-1.6.2h-1.2l-1.4.3-1.3.2-1 .2-1.6.3-.7.1a55.6 55.6 0 0 0-6.2 1.9 56.1 56.1 0 0 0-26.1 19.1l-.4.6-1 1.4-.6.9-.8 1.2-.6 1-.7 1.2-.5.9-.8 1.6-.3.6-1 2.2-.4.8a39.5 39.5 0 0 0-.9 2.5l-.5 1.5-.3 1a109.7 109.7 0 0 0-.7 2.3l-.6 2.5v.6l-.4 2-.1.9-.3 1.7v1L8 60.4V64a55.7 55.7 0 0 0 10.1 32 56.3 56.3 0 0 0 9.3 10.3l.2.2 1.6 1.4.2.1 1.7 1.3a56 56 0 0 0 10 5.8l.3.1 2 .8.3.1 2 .8h.2a56 56 0 0 0 35.6.3 55.7 55.7 0 0 0 10.7-4.8v-.1l2-1.1.2-.2 1.7-1.2.2-.1 1.8-1.3a56.3 56.3 0 0 0 6.8-6.2l1.5-1.6zM87.8 89.1l-9.6-13L83 61.7l15-5 14 10.2a47.7 47.7 0 0 1-6.8 21.9zm-47.5.6l-16.7.2A47.7 47.7 0 0 1 16 67.2l14-10.4 15.2 5 4.7 14.6zm61-55.9l-5 15L80.4 54 68 45V28.7l13.1-9.5a48.2 48.2 0 0 1 20.2 14.6zM46.9 19.2L60 28.7V45l-12.5 9.1-16-5.1-5-14.8a48.2 48.2 0 0 1 20.4-15zm5.5 91.4l-5.5-16.4L56.4 81h15.5l9.8 13.3-4.8 15.9a47.8 47.8 0 0 1-24.6.3z"/></svg>