<svg xmlns="http://www.w3.org/2000/svg" viewBox="0 0 128 128"><path d="M48.6 30.6zm0 0c-1.4-1.3-3-2.6-4.3-4a96.7 96.7 0 0 1-6.9-7.7c-1.8-2.2-2.8-3.8-2.8-3.8s1.6 1 3.8 2.8a92.3 92.3 0 0 1 11.8 11.3c3.4-4.3 1.6-12.3-2.3-16.2-2.6-2.6-16.8-6.7-19.2-4.3s1.8 16.6 4.4 19.2c3.7 3.7 11.1 5.6 15.5 2.7zM64 64a12 12 0 0 0 0-24 12 12 0 0 0-12 12 12 12 0 0 0 12 12zm4-32V8h-8v24zm13.5-7.7a96.6 96.6 0 0 1 7.6-6.9c2.2-1.8 3.8-2.8 3.8-2.8s-1 1.6-2.8 3.8a99.2 99.2 0 0 1-6.9 7.6 55 55 0 0 1-4.4 4.1c4.3 3.5 12.3 1.7 16.2-2.2 2.6-2.6 6.7-16.8 4.3-19.2S82.7 10.5 80 13.1c-3.7 3.7-5.6 11.1-2.7 15.5l4-4.3zM84 68a12 12 0 0 0-12 12 12 12 0 1 0 12-12zM36 52a12 12 0 0 0-12-12 12 12 0 0 0-12 12 12 12 0 0 0 24 0zm28 44a12 12 0 0 0-12 12 12 12 0 1 0 12-12zm40-56a12 12 0 0 0-12 12 12 12 0 1 0 12-12zM56 80a12 12 0 0 0-12-12 12 12 0 0 0-12 12 12 12 0 0 0 24 0z"/></svg>