<svg xmlns="http://www.w3.org/2000/svg" viewBox="0 0 128 128"><path d="M120 44a24 24 0 0 1-24 24 4 4 0 0 1 0-8 16 16 0 1 0-8.8-29.3 4 4 0 0 1-5.8-1.6 24 24 0 0 0-43.6 1.7 4 4 0 0 1-5.2 2.1A12 12 0 1 0 28 56a4 4 0 0 1 0 8 20 20 0 1 1 4-39.6A32 32 0 0 1 86.5 22 24 24 0 0 1 120 44zM68 92V44a4 4 0 0 0-8 0v48a4 4 0 0 0 8 0zM48 76V52a4 4 0 0 0-8 0v24a4 4 0 0 0 8 0zm40 0V52a4 4 0 0 0-8 0v24a4 4 0 0 0 8 0zm-4 12a8 8 0 1 0 8 8 8 8 0 0 0-8-8zm-40 0a8 8 0 1 0 8 8 8 8 0 0 0-8-8zm20 16a8 8 0 1 0 8 8 8 8 0 0 0-8-8z"/></svg>