<svg xmlns="http://www.w3.org/2000/svg" viewBox="0 0 128 128"><path d="M118.8 51.6c-.3-.7-1.5-3.3-5.4-3.3H80a1.2 1.2 0 0 1-.7-.5L68.8 14.2c-1-3.8-3.7-4.2-4.8-4.2-1 0-3.7.4-4.8 4.2L48.6 47.8a1.3 1.3 0 0 1-.5.5H14.6c-4 0-5.1 2.6-5.4 3.3s-.9 3.5 2.3 6l27.2 20.7a1.6 1.6 0 0 1 .3 1L28.6 113c-1.2 3.8.8 5.6 1.6 6.2a4.7 4.7 0 0 0 2.7.8 6 6 0 0 0 3.6-1.4l27.2-20.8a1 1 0 0 1 .6 0l27.2 20.8c3.1 2.4 5.6 1 6.3.6.8-.6 2.8-2.4 1.6-6.2L89 79.4a1.6 1.6 0 0 1 .3-1l27.2-20.8c3.2-2.5 2.5-5.2 2.3-6zM84.4 72a9.3 9.3 0 0 0-3 9.8l7.7 25-20-15.3a8.4 8.4 0 0 0-5.1-1.7V25.6l7.6 24.6a9 9 0 0 0 8.2 6.1h25.1z"/></svg>