<svg xmlns="http://www.w3.org/2000/svg" viewBox="0 0 128 128"><path d="M34.8 19.7a4 4 0 0 1 0-4.8l4-5.3a4 4 0 1 1 6.4 4.8l-2.2 3 2.2 2.9a4 4 0 0 1 0 4.8l-4 5.3a4 4 0 1 1-6.4-4.8l2.2-3zm26.2 3l-2.2 2.9a4 4 0 0 0 6.4 4.8l4-5.3a4 4 0 0 0 0-4.8l-2.2-3 2.2-2.9a4 4 0 1 0-6.4-4.8l-4 5.3a4 4 0 0 0 0 4.8zm24 0l-2.2 2.9a4 4 0 0 0 6.4 4.8l4-5.3a4 4 0 0 0 0-4.8l-2.2-3 2.2-2.9a4 4 0 1 0-6.4-4.8l-4 5.3a4 4 0 0 0 0 4.8zm35 28.5V108a12 12 0 0 1-23.3 4h-9.4a12 12 0 0 1-22.6 0h-9.4a12 12 0 0 1-22.6 0H24v8H8v-8h8V47H8v-8h16v8.2h8.7a12 12 0 0 1 22.6 0h9.4a12 12 0 0 1 22.6 0h9.4a12 12 0 0 1 23.3 4zm-32 4V104h8V55.2zm-32 0V104h8V55.2zM24 104h8V55.2h-8zm24-52.8a4 4 0 1 0-8 0V108a4 4 0 0 0 8 0zM80 108V51.2a4 4 0 1 0-8 0V108a4 4 0 0 0 8 0zm32-56.8a4 4 0 1 0-8 0V108a4 4 0 0 0 8 0z"/></svg>