<svg xmlns="http://www.w3.org/2000/svg" viewBox="0 0 128 128"><path d="M120 116a4 4 0 0 1-4 4H12a4 4 0 0 1 0-8h104a4 4 0 0 1 4 4zM16 92v8a4 4 0 0 0 8 0v-8a4 4 0 0 0-8 0zm16 0v8a4 4 0 0 0 8 0v-8a4 4 0 0 0-8 0zm16 0v8a4 4 0 0 0 8 0v-8a4 4 0 0 0-8 0zm24 0v8a4 4 0 0 0 8 0v-8a4 4 0 0 0-8 0zm16 0v8a4 4 0 0 0 8 0v-8a4 4 0 0 0-8 0zm16 0v8a4 4 0 0 0 8 0v-8a4 4 0 0 0-8 0zM12 80h104a4 4 0 0 0 2-7.6L68 56V35c10.8.9 25.4-9.6 36 0V12.2c-11.7-10.6-24.4 2.4-36 .4V12a4 4 0 0 0-8 0v44L10 72.4a4 4 0 0 0 2 7.6z"/></svg>