<svg xmlns="http://www.w3.org/2000/svg" viewBox="0 0 128 128"><path d="M67.4 50.6a8.8 8.8 0 0 1 1.6 5.8 49.9 49.9 0 0 1-1.5 11.5q-1.6 6.4-3.6 8.5a6.2 6.2 0 0 1-4.6 2.1 4.6 4.6 0 0 1-3.8-1.9q-2-2.6-2-7.2A45.6 45.6 0 0 1 55 58.9q1.3-5.7 4-8.3a6.3 6.3 0 0 1 4.5-2 5 5 0 0 1 4 2zM120 64A56 56 0 1 1 64 8a56 56 0 0 1 56 56zM74.6 76a9.4 9.4 0 0 1 .2-1.3l4.9-31H72l-.7 4.4a14.8 14.8 0 0 0-4.3-4.5 9.3 9.3 0 0 0-5-1.3q-7 0-12 7.7a32.3 32.3 0 0 0-4.8 17.4q0 8.2 3.8 12.5a11.5 11.5 0 0 0 9 4.4 10.6 10.6 0 0 0 4.7-1 19.3 19.3 0 0 0 4.8-3.6 6.4 6.4 0 0 0 2.2 3.5 6.3 6.3 0 0 0 3.8 1 16.5 16.5 0 0 0 8.5-2.7 23.2 23.2 0 0 0 8.9-9.7 30 30 0 0 0 3-13.5Q94 45.8 86.2 38t-20.1-7.9a31.1 31.1 0 0 0-16.6 4.3 30.9 30.9 0 0 0-11.2 12.3A37.7 37.7 0 0 0 34 64.6a36.4 36.4 0 0 0 4 17 29 29 0 0 0 11.4 12A31.8 31.8 0 0 0 65.7 98a36.2 36.2 0 0 0 12.2-2 37.6 37.6 0 0 0 9.9-5.2 38 38 0 0 0 6.1-6h-8a35.6 35.6 0 0 1-9.8 5.5 30.8 30.8 0 0 1-10.5 1.9Q54.3 92 47 84.6t-7.1-20a33.4 33.4 0 0 1 3.3-15 23.4 23.4 0 0 1 9.3-10.2A26.2 26.2 0 0 1 66.1 36q10 0 16 6T88 58.4A24.4 24.4 0 0 1 85.8 69a17.4 17.4 0 0 1-5.5 6.8 7.3 7.3 0 0 1-4 1.6 1.6 1.6 0 0 1-1.3-.3 1.5 1.5 0 0 1-.4-1.1z"/></svg>