<svg xmlns="http://www.w3.org/2000/svg" viewBox="0 0 128 128"><path d="M64 8a56 56 0 1 0 56 56A56 56 0 0 0 64 8zm41.5 80H87.8a69.7 69.7 0 0 0 3.7-16h19.8a47.6 47.6 0 0 1-5.8 16zM64 109.6A62 62 0 0 1 52.9 96h22.2A62 62 0 0 1 64 109.6zM48.8 88a61.5 61.5 0 0 1-4.3-16h39a61.5 61.5 0 0 1-4.3 16zM16.7 72h19.8a69.7 69.7 0 0 0 3.7 16H22.5a47.6 47.6 0 0 1-5.8-16zm2-24H38a70.5 70.5 0 0 0-2 16H16a47.8 47.8 0 0 1 2.8-16zM64 18.4A61.8 61.8 0 0 1 79.2 40H48.8A61.8 61.8 0 0 1 64 18.4zM82 48a62.3 62.3 0 0 1 2 16H44a62.3 62.3 0 0 1 2-16zm10 16a70.5 70.5 0 0 0-1.9-16h19.2a47.8 47.8 0 0 1 2.8 16zm13.5-24H87.8a69.4 69.4 0 0 0-13.9-23 48.1 48.1 0 0 1 31.6 23zM54.1 17a69.4 69.4 0 0 0-13.9 23H22.5A48.1 48.1 0 0 1 54 17zM28.3 96h15.4a69.6 69.6 0 0 0 10.4 15 48 48 0 0 1-25.8-15zm45.6 15a69.6 69.6 0 0 0 10.4-15h15.4A48 48 0 0 1 74 111z"/></svg>