<svg xmlns="http://www.w3.org/2000/svg" viewBox="0 0 128 128"><path d="M112 52c0-17.9-17.3-32.7-40-35.5a3.9 3.9 0 0 0 0-.5v-4a4 4 0 0 0-4-4h-8a4 4 0 0 0-4 4v4a3.9 3.9 0 0 0 0 .5C33.3 19.3 16 34.1 16 52s17.3 32.7 40 35.5a3.9 3.9 0 0 0 0 .5v4a4 4 0 0 0 4 4h8a4 4 0 0 0 4-4v-4a3.9 3.9 0 0 0 0-.5c22.7-2.8 40-17.7 40-35.5zM63.5 24c2.1.6 8.5 9.8 8.5 28s-6.4 27.4-8.5 28c-2.1-.6-8.5-9.8-8.5-28s6.4-27.4 8.5-28zm12.3 52c2.6-6.3 4.2-14.8 4.2-24s-1.6-17.7-4.2-24c7 4.9 11.7 13.8 11.7 24s-4.7 19.2-11.7 24zM51.2 28C48.6 34.3 47 42.8 47 52s1.6 17.7 4.2 24c-7-4.9-11.7-13.8-11.7-24s4.7-19.1 11.7-24zM104 52c0 7-3.9 13.8-10.9 19a39.6 39.6 0 0 1-4.1 2.8 39.6 39.6 0 0 0 0-43.6 39.6 39.6 0 0 1 4.2 2.7C100.2 38.2 104 45 104 52zm-80 0c0-7 3.9-13.8 10.9-19 .8-.7 1.6-1.2 2.5-1.8a39.7 39.7 0 0 0 0 41.6L34.9 71C27.9 65.8 24 59 24 52zm48 56a4 4 0 0 1-4 4h-8a4 4 0 0 1 0-8h8a4 4 0 0 1 4 4zm16-12v20a4 4 0 0 1-8 0V96a4 4 0 0 1 8 0zm-40 0v20a4 4 0 0 1-8 0V96a4 4 0 0 1 8 0zm56-4v24a4 4 0 0 1-8 0V92a4 4 0 0 1 8 0zm-72 0v24a4 4 0 0 1-8 0V92a4 4 0 0 1 8 0z"/></svg>