<svg xmlns="http://www.w3.org/2000/svg" viewBox="0 0 128 128"><rect x="8" y="106" width="112" height="10" rx="2" ry="2"/><path d="M24 60a2 2 0 0 0-2 1.8v34.4a2 2 0 0 0 2 1.8h8a2 2 0 0 0 2-1.8V61.8a2 2 0 0 0-2-1.8zm24 0a2 2 0 0 0-2 1.8v34.4a2 2 0 0 0 2 1.8h8a2 2 0 0 0 2-1.8V61.8a2 2 0 0 0-2-1.8zm24 0a2 2 0 0 0-2 1.8v34.4a2 2 0 0 0 2 1.8h8a2 2 0 0 0 2-1.8V61.8a2 2 0 0 0-2-1.8zm24 0a2 2 0 0 0-2 1.8v34.4a2 2 0 0 0 2 1.8h8a2 2 0 0 0 2-1.8V61.8a2 2 0 0 0-2-1.8zm-85.8-8h107.6a2 2 0 0 0 1.3-3.7L65 12.3a2 2 0 0 0-2.2 0l-53.9 36a2 2 0 0 0 1.3 3.7z"/></svg>