<svg xmlns="http://www.w3.org/2000/svg" viewBox="0 0 128 128"><path d="M52 40h24a4 4 0 0 0 4-4V24a16 16 0 0 0-32 0v12a4 4 0 0 0 4 4zm12-24a8 8 0 1 1-8 8 8 8 0 0 1 8-8zm40 100a4 4 0 0 1-4 4H28a4 4 0 0 1 0-8h12l7.6-60.5a4 4 0 0 1 4-3.5h24.9a4 4 0 0 1 4 3.5L88 112h12a4 4 0 0 1 4 4zm15.8-70.7a4 4 0 0 1-5 2.5l-24-8a4 4 0 1 1 2.5-7.6l24 8a4 4 0 0 1 2.5 5zm-82.5-5.5l-24 8a4 4 0 1 1-2.6-7.6l24-8a4 4 0 1 1 2.6 7.6zm51-18.5a4 4 0 0 1 2.4-5l24-8a4 4 0 1 1 2.6 7.5l-24 8a4 4 0 0 1-5-2.5zm-80-10.6a4 4 0 0 1 5-2.5l24 8a4 4 0 1 1-2.6 7.6l-24-8a4 4 0 0 1-2.5-5z"/></svg>