<svg xmlns="http://www.w3.org/2000/svg" viewBox="0 0 128 128"><path d="M91.8 108.8a29 29 0 0 0-5.6-9.6 28 28 0 0 0-3.8-3.6 29 29 0 0 0-13.4-6 30.8 30.8 0 0 0-4.6-.3h-.1a28 28 0 0 0-4.6.4 30.2 30.2 0 0 0-4.5 1.1 29 29 0 0 0-10.1 6 28.1 28.1 0 0 0-3.3 3.5 29.2 29.2 0 0 0-3.9 6.5 28.8 28.8 0 0 0-1.6 5l-.2.6a55 55 0 0 0 56.5-.5v-.3a26.6 26.6 0 0 0-.8-2.8zm3.6 1.3c1.1-.8 2.3-1.5 3.4-2.4l-4 .6.6 1.8zm-13-18.3l36.3-40a55.8 55.8 0 0 0-3-9.5L80 90.3l2.4 1.5zm-4.8-2.7l33.3-55.7a56.4 56.4 0 0 0-6.3-8L75 88.1l2.5 1zM67 86.3L78.4 9.7A56.2 56.2 0 0 0 68.2 8l-3.7 78.2H67zm5.3 1l24.5-68.6a56 56 0 0 0-8.9-5.3L69.7 86.7l2.7.6zm21.3 18l10.6-2.6a55.6 55.6 0 0 0 5.2-6.3l-17.2 6.2 1.5 2.8zm-3-5.3L114 89a55.5 55.5 0 0 0 3.5-8.5L88.9 97.6l1.8 2.4zM120 61.6l-35.2 32c.8.5 1.5 1.2 2.2 1.9l32.6-24.2a56 56 0 0 0 .5-7.4l-.1-2.3zM39.1 98.7L11 82a55.8 55.8 0 0 0 3.5 8.2l23 10.8 1.6-2.3zm-5.7 12l.5-1.9-4.2-.6 3.7 2.5zm9.4-16L8 63.4v.5a56.3 56.3 0 0 0 .8 9l32.1 23.7 2-1.9zm-18.5 8.7l10.6 2.6 1.2-2.6-16.9-6a56.3 56.3 0 0 0 5 6zm32.4-16.1l-18.5-73a56 56 0 0 0-8.6 5.5L54 88l2.6-.7zm5.1-1L57.8 8a55.2 55.2 0 0 0-10 2l11.4 76.5a32 32 0 0 1 2.6-.3zm-14.7 5.2L11.7 44A54.9 54.9 0 0 0 9 53.6L44.9 93l2.2-1.5zm4.6-2.5L22.1 26.8a56.1 56.1 0 0 0-6 8.2l33.3 55.1 2.3-1.1z"/></svg>