<svg xmlns="http://www.w3.org/2000/svg" viewBox="0 0 128 128"><path d="M71.5 23.3a47.2 47.2 0 0 0-38.6-3 39.4 39.4 0 0 0-20.3 16 30 30 0 0 0-3.7 23c2 8.6 8 15.8 15.2 20.6l-4 12 13.7-7.4a50.7 50.7 0 0 0 17 2.4 29.4 29.4 0 0 1-1.1-13.8A29.4 29.4 0 0 1 59 56.5c8-7.5 19.5-10.7 30.3-10-2-10-9-18.3-17.8-23.2zm-31.1 18c-.9 4-6 5.9-9.1 3.2-3.6-2.5-2.6-8.7 1.6-9.9 4-1.6 8.7 2.6 7.5 6.8zm28.2-1c0 4.4-6 7.2-9.3 4.2-3.5-2.5-2.5-8.6 1.6-9.9a5.8 5.8 0 0 1 7.7 5.6zM118 67.4a30.9 30.9 0 0 0-14.5-14.7 39.7 39.7 0 0 0-35.6.1c-7.6 4-14 11-15.7 19.5a25 25 0 0 0 3.1 18.5c5 8.2 14 13.4 23.2 15.1 6.8 1.4 13.7.6 20.3-1.3 3.9 1.5 7.4 4 11.2 5.8l-3.1-9.8c4.2-3 8.1-6.9 10.4-11.6a25.1 25.1 0 0 0 .6-21.6zM79.5 70a4.6 4.6 0 0 1-7.5 1.6c-2.4-2.1-1.4-6.6 1.6-7.6 3.5-1.4 7.4 2.5 6 6zm22.4.4a4.6 4.6 0 0 1-7.3 1.3c-1-1-1.2-2.3-1.6-3.4.5-2.2 2-4.4 4.4-4.5 3.3-.5 6.3 3.6 4.5 6.6z"/></svg>