<svg xmlns="http://www.w3.org/2000/svg" viewBox="0 0 128 128"><path d="M106.9 33a23.4 23.4 0 0 0 10-12.7 47.5 47.5 0 0 1-14.7 5.4 22.6 22.6 0 0 0-16.5-7 23 23 0 0 0-23.2 22.8 17 17 0 0 0 .8 5.1 64.6 64.6 0 0 1-47.5-23.9 22.9 22.9 0 0 0 7 30.7 24 24 0 0 1-10.2-3v.3A23 23 0 0 0 31 73.4a24 24 0 0 1-6.1.7 11.1 11.1 0 0 1-4.1-.5 23 23 0 0 0 21.4 16 46.3 46.3 0 0 1-28.5 9.8 42.3 42.3 0 0 1-5.6-.2 64.5 64.5 0 0 0 35.3 10.2 64.8 64.8 0 0 0 65.3-65.3v-2.9A52.7 52.7 0 0 0 120 29.3a57.4 57.4 0 0 1-13.1 3.7z"/></svg>