<svg xmlns="http://www.w3.org/2000/svg" viewBox="0 0 128 128"><path d="M95 45.5v44.9a7.4 7.4 0 0 1-7.5 7.4h-5V113a7 7 0 0 1-13.8 0V97.8h-9.4V113a7 7 0 1 1-13.8 0V97.8h-5a7.4 7.4 0 0 1-7.4-7.4V45.5H95zm16.4 5.6a7 7 0 0 0-6.2-6.8 7 7 0 0 0-.7 0 7 7 0 0 0-7 6.9V80a7 7 0 0 0 7 6.9 7 7 0 0 0 .7 0 7 7 0 0 0 6.2-6.9zm-87.9-6.9a7 7 0 0 0-6.9 7V80a7 7 0 1 0 13.8 0V51a7 7 0 0 0-6.9-6.9zm71.6-1H33a26.4 26.4 0 0 1 1.7-9.6 27 27 0 0 1 1.2-2.6l.7-1.2a30 30 0 0 1 12.2-11.6L44 9.4a1 1 0 0 1-.1-.3 1 1 0 0 1 .5-1 1 1 0 0 1 .3-.1 1 1 0 0 1 1 .5l4.9 8.9a33.7 33.7 0 0 1 22.7-1.6 32.8 32.8 0 0 1 4.3 1.6l4.9-9a1 1 0 0 1 1.3-.3 1 1 0 0 1 .5 1 1 1 0 0 1-.1.3l-4.9 8.8c9.5 5 16 14.2 16 25zm-42.7-14a2.6 2.6 0 1 0-2.6 2.6 2.6 2.6 0 0 0 2.6-2.6zm28.4 0a2.6 2.6 0 1 0-2.6 2.6 2.6 2.6 0 0 0 2.6-2.6z"/></svg>