<svg xmlns="http://www.w3.org/2000/svg" viewBox="0 0 128 128"><path d="M42.1 64.8l-8.9 5.5s8 2.5 9-5.5zM64 8a56 56 0 1 0 56 56A56 56 0 0 0 64 8zm34.9 29.6l3.5 7.3 8.1-.2-7.3 3.5.2 8.1-3.5-7.3-8.1.2 7.3-3.5zm-6.1 26.5L88 66l-.2 5-1.8-4.7-5-.1 4.6-2 .2-5 2 4.7zm-30-27.6l.4-17L69.8 35l17 .3L71.2 42l-.4 17-6.7-15.6-17-.4zm37.9 59a44.4 44.4 0 0 1-16.4 11 47.1 47.1 0 0 1-8.1 2.5A48.4 48.4 0 0 1 19 71.6a46.8 46.8 0 0 1 3.6-29.8 1.8 1.8 0 0 1 .3-.8 52.7 52.7 0 0 1 9.3-12.9 34.9 34.9 0 0 1 10.5-8.2 31 31 0 0 0-1.8 4.6 51.7 51.7 0 0 0-2 16.9 44.2 44.2 0 0 0 1.8 12.3c1 3 2.3 6.5 5 8.5 2.4 1.8 5.2 1.9 8 2.6 5.2 1.4 11 1.2 7.7 8.2-1 2-5 4.8-4.4 7.3.8 2.8 5.9-.4 6.4.6a15.4 15.4 0 0 1 .3 4.3s2.6-1.2 3.4-.4-1.4 2.4.7 3.3 15.4 7.2 39-.1a50.5 50.5 0 0 1-6.1 7.6z"/></svg>