<svg xmlns="http://www.w3.org/2000/svg" viewBox="0 0 128 128"><path d="M24 44a4 4 0 0 1 4-4h36v-8H28a12 12 0 0 0-12 12v24l8-8zm68-28c4 0 6.6 1.4 7.7 4.1a9 9 0 0 1-1.5 9L95 32c-4.5 4-7.2 7-7.2 16.2h8c0-6.3 1.1-7.3 4.4-10.1l3.5-3.2a16.9 16.9 0 0 0 3.3-17.8c-2.4-5.7-7.9-9-15.1-9-11.8 0-16 8.6-16 16h8c0-5.3 2.7-8 8-8zm-4 48h8v-8h-8zm32 40v11.8a4.1 4.1 0 0 1-3.6 4.2 4 4 0 0 1-4.4-4v-4H16v3.8a4.1 4.1 0 0 1-3.6 4.2 4 4 0 0 1-4.4-4v-12a8 8 0 0 1 8-8h96a8 8 0 0 1 8 8zm-8-16a16 16 0 0 0-16-16H32a16 16 0 0 0-16 16v4h96z"/></svg>