<svg xmlns="http://www.w3.org/2000/svg" viewBox="0 0 128 128"><path d="M115.9 80.4a84.1 84.1 0 0 0 2.1-16.3 78.3 78.3 0 0 0-2.1-15.7l3.2-7.7a8.8 8.8 0 0 0-7.9-12.7h-13l-1-.2c-5-1-19.6-3.8-33.2-3.8s-28.3 2.8-33.1 3.8l-1.2.2h-13A8.8 8.8 0 0 0 9 40.7l3.4 8A66.3 66.3 0 0 0 10 64.1a73.2 73.2 0 0 0 2.3 16L9 86.3a9.6 9.6 0 0 0 .4 9.3 8.6 8.6 0 0 0 7.4 4.4h12.6c9.8 3 19.3 4 34.6 4a99 99 0 0 0 32.6-4H111a8.8 8.8 0 0 0 7.5-4.5 9.4 9.4 0 0 0 .5-9.2zm-8.1-31.6l.2 1c.8 4 2 9.5 2 14.3 0 5.6-1.5 12.7-2.3 16a4 4 0 0 0 .5 2.9l3.7 7a1.6 1.6 0 0 1-.2 1.4c-.3.4-.6.6-.7.6H96a4 4 0 0 0-1.2.2A91.2 91.2 0 0 1 64 96c-14.8 0-23.7-1-32.8-3.8A4 4 0 0 0 30 92H16.8c-.1 0-.3-.1-.5-.5A1.7 1.7 0 0 1 16 90l3.8-7.2a4 4 0 0 0 .5-3.2C19.7 77 18 69.8 18 64.1c0-4.8 1.2-10.2 2.4-14.8a4 4 0 0 0-.3-2.8 730 730 0 0 1-3.8-9L16 37a.7.7 0 0 1 0-.7.7.7 0 0 1 .7-.4H30a12.5 12.5 0 0 0 2.4-.4C37 34.7 51.1 32 64 32s27 2.7 31.6 3.6a12.5 12.5 0 0 0 2.4.4h13.2a.7.7 0 0 1 .7.4.7.7 0 0 1 0 .7l-.2.4a2013 2013 0 0 1-3.6 8.8 4 4 0 0 0-.3 2.5zM104 60c0 8.7-2.6 15.6-7.7 20.5a30 30 0 0 1-20 7.5h-.5a4 4 0 0 1 .4-8s8.8.2 14.6-5.3A20 20 0 0 0 96 60a4 4 0 0 1 8 0z"/></svg>