<svg xmlns="http://www.w3.org/2000/svg" viewBox="0 0 128 128"><path d="M84 116a4 4 0 0 1-4 4H48a4 4 0 0 1 0-8h12V52a4 4 0 0 1 8 0v60h12a4 4 0 0 1 4 4zm-36-16a4 4 0 0 0-4-4H22.9l-7.1-21.3a4 4 0 1 0-7.6 2.6l7.5 22.4-7.3 14.5a4 4 0 1 0 7.2 3.6l6.9-13.8H32v12a4 4 0 0 0 8 0v-12h4a4 4 0 0 0 4-4zm64.3-.3l7.5-22.4a4 4 0 0 0-7.6-2.6l-7 21.3H84a4 4 0 0 0 0 8h4v12a4 4 0 0 0 8 0v-12h9.5l7 13.8a4 4 0 0 0 7-3.6zM12.3 40h103.4c3.7 0 5.7-4.1 3.2-6.7C109.8 24 90.4 8 64 8S18.2 24 9.1 33.3C6.6 36 8.6 40 12.3 40z"/></svg>