<svg xmlns="http://www.w3.org/2000/svg" viewBox="0 0 128 128"><path d="M100 24H28a4 4 0 0 0-4 4v64a4 4 0 0 0 4 4h72a4 4 0 0 0 4-4V28a4 4 0 0 0-4-4zM40 84a4 4 0 0 1-8 0V36a4 4 0 0 1 8 0zm24 2a2 2 0 0 1-2 2h-4a2 2 0 0 1-2-2v-4a2 2 0 0 1 2-2h4a2 2 0 0 1 2 2zm0-16a2 2 0 0 1-2 2h-4a2 2 0 0 1-2-2v-4a2 2 0 0 1 2-2h4a2 2 0 0 1 2 2zm16 16a2 2 0 0 1-2 2h-4a2 2 0 0 1-2-2v-4a2 2 0 0 1 2-2h4a2 2 0 0 1 2 2zm0-16a2 2 0 0 1-2 2h-4a2 2 0 0 1-2-2v-4a2 2 0 0 1 2-2h4a2 2 0 0 1 2 2zm16 16a2 2 0 0 1-2 2h-4a2 2 0 0 1-2-2v-4a2 2 0 0 1 2-2h4a2 2 0 0 1 2 2zm0-16a2 2 0 0 1-2 2h-4a2 2 0 0 1-2-2v-4a2 2 0 0 1 2-2h4a2 2 0 0 1 2 2zm0-24a2 2 0 0 1-2 2H58a2 2 0 0 1-2-2V34a2 2 0 0 1 2-2h36a2 2 0 0 1 2 2zm8-38H24A16 16 0 0 0 8 24v72a16 16 0 0 0 8 13.8v6.2a4 4 0 0 0 4 4h24a4 4 0 0 0 4-4v-4h32v4a4 4 0 0 0 4 4h24a4 4 0 0 0 4-4v-6.2a16 16 0 0 0 8-13.8V24a16 16 0 0 0-16-16zm8 88a8 8 0 0 1-8 8H24a8 8 0 0 1-8-8V24a8 8 0 0 1 8-8h80a8 8 0 0 1 8 8z"/></svg>