<svg xmlns="http://www.w3.org/2000/svg" viewBox="0 0 128 128"><path d="M98.6 47.6L84 33l5-5 14.6 14.6a2 2 0 0 0 2.8 0l2.2-2.2a2 2 0 0 0 0-2.8L94 23l5-5 14.6 14.6a2 2 0 0 0 2.8 0l2.2-2.2a2 2 0 0 0 0-2.8L101 10a7.2 7.2 0 0 0-10 0L65.6 35.4l3.8 14 15 4L74 43l5-5 13.1 13.1a23.8 23.8 0 0 1 7-2.6 2 2 0 0 0-.5-1zM104 80a8 8 0 1 0-8-8 8 8 0 0 0 8 8zm-32 32a8 8 0 1 0-8-8 8 8 0 0 0 8 8zm-6.7-46.7L71.4 88h.6a16 16 0 1 1-8.7 2.6l-7.4-27.8L8 50a8.5 8.5 0 0 1 10.4-6l35 9.3L44 18.5A8.5 8.5 0 0 1 50 8l12.8 47.9 27.8 7.4A16 16 0 1 1 88 72v-.6zm-15.7 4.2l3.8 14.9L43 74l-5 5 13.1 13.1a23.8 23.8 0 0 0-2.6 7 2 2 0 0 1-1-.5L33 84l-5 5 14.6 14.6a2 2 0 0 1 0 2.8l-2.2 2.2a2 2 0 0 1-2.8 0L23 94l-5 5 14.6 14.6a2 2 0 0 1 0 2.8l-2.2 2.2a2 2 0 0 1-2.8 0L10 101a7.2 7.2 0 0 1 0-10l25.4-25.4z"/></svg>