<svg xmlns="http://www.w3.org/2000/svg" viewBox="0 0 128 128"><path d="M60.7 96.1c-14-6.3-27.4-12.2-47-1.6a3.9 3.9 0 0 1-5.3-2 4.5 4.5 0 0 1 1.8-5.8c22.8-12.4 39.1-5 53.6 1.4 15.5 6.9 29 12.9 50-2.2a3.8 3.8 0 0 1 5.6 1.3 4.6 4.6 0 0 1-1.2 6A50 50 0 0 1 88.7 104c-10.3 0-19.2-4-28-7.9zm28 23.9a50 50 0 0 0 29.5-10.8 4.6 4.6 0 0 0 1.1-6 3.8 3.8 0 0 0-5.5-1.3c-21.1 15-34.5 9.1-50 2.2-14.5-6.5-30.8-13.8-53.6-1.4a4.5 4.5 0 0 0-1.8 5.9 3.9 3.9 0 0 0 5.4 2c19.5-10.7 32.8-4.8 47 1.5 8.7 3.9 17.6 7.9 28 7.9zM32.2 72.2c5.1-38.6-21.9-70.8 1.4-63 56.8 18.8 68.2 61.1 70.4 75-9.3 2-22.3 6.3-38.4-2.9a73 73 0 0 0-33.3-9z"/></svg>