<svg xmlns="http://www.w3.org/2000/svg" viewBox="0 0 128 128"><path d="M103.8 49.8A8 8 0 0 1 96 56H32a8 8 0 0 1-3.6-15.2L46.1 32a39.7 39.7 0 0 1 9.2-3.3 7.9 7.9 0 0 0-7.2-4.7H8V8h40.1a23.9 23.9 0 0 1 23.7 20.6 39.7 39.7 0 0 1 10 3.4l17.8 8.8a8 8 0 0 1 4.2 9zM32 64s-8 11.6-8 16a8 8 0 0 0 16 0c0-4.4-8-16-8-16zm8 48a8 8 0 0 0 16 0c0-4.4-8-16-8-16s-8 11.6-8 16zm-32 0a8 8 0 0 0 16 0c0-4.4-8-16-8-16s-8 11.6-8 16zm64 0a8 8 0 0 0 16 0c0-4.4-8-16-8-16s-8 11.6-8 16zm40-16s-8 11.6-8 16a8 8 0 0 0 16 0c0-4.4-8-16-8-16zM64 64s-8 11.6-8 16a8 8 0 0 0 16 0c0-4.4-8-16-8-16zm23 16a8 8 0 0 0 16 0c0-4.4-8-16-8-16s-8 11.6-8 16z"/></svg>