<svg xmlns="http://www.w3.org/2000/svg" viewBox="0 0 128 128"><path d="M120 100a12 12 0 0 1-12 12H20a12 12 0 0 1-12-12 4 4 0 0 1 4-4h104a4 4 0 0 1 4 4zm-12-84H20A12 12 0 0 0 8 28a4 4 0 0 0 4 4h104a4 4 0 0 0 4-4 12 12 0 0 0-12-12zM32 80a8 8 0 1 0-8 8 8 8 0 0 0 8-8zm8 0a8 8 0 0 0 8 8h56a8 8 0 0 0 0-16H48a8 8 0 0 0-8 8zm28-20V44a4 4 0 0 0-8 0v16a4 4 0 0 0 8 0zM45.8 40.4a4 4 0 0 0-5.4 1.8l-8 16a4 4 0 1 0 7.2 3.6l8-16a4 4 0 0 0-1.8-5.4zM92 64a4 4 0 0 0 3.6-5.8l-8-16a4 4 0 0 0-7.2 3.6l8 16A4 4 0 0 0 92 64z"/></svg>