<svg xmlns="http://www.w3.org/2000/svg" viewBox="0 0 128 128"><path d="M71.9 57.7a2.6 2.6 0 0 1-1.2 3L57 71.3a.8.8 0 0 0-.2.5L62 89a2.5 2.5 0 0 1-4 2.8L44.2 81.2a.5.5 0 0 0-.4 0L30 91.8a3 3 0 0 1-1.8.7 2.3 2.3 0 0 1-1.3-.4A2.6 2.6 0 0 1 26 89l5.3-17.1a.8.8 0 0 0-.2-.6L17.3 60.7a2.5 2.5 0 0 1 1.5-4.7H36a.7.7 0 0 0 .3-.3l5.3-17.1a2.5 2.5 0 0 1 4.9 0l5.3 17.1a.6.6 0 0 0 .3.3h17.1a2.6 2.6 0 0 1 2.7 1.7zm39.8-20.6l-18-20.3a2.1 2.1 0 0 0-3.4 0l-18 20.3A1.8 1.8 0 0 0 74 40h14v68a4 4 0 0 0 8 0V40h14a1.8 1.8 0 0 0 1.7-2.9z"/></svg>