<svg xmlns="http://www.w3.org/2000/svg" viewBox="0 0 128 128"><path d="M56 16a8 8 0 1 1 8 8 8 8 0 0 1-8-8zm64 84c0 13.1-28.2 20-56 20s-56-6.9-56-20c0-11.8 22.6-18.5 47.3-19.8l-1-10.9a4 4 0 0 0-1-2.4l-1.5-1.6a4 4 0 0 1-1-2.3l-2.7-27c-.2-2.3 0-4.4 3.2-5.3 0 0 7.9-1.8 12.8-1.8s12.7 1.8 12.7 1.8c3.2.9 3.4 3 3.2 5.3l-2.8 27a4 4 0 0 1-1 2.3L74.8 67a4 4 0 0 0-1 2.4l-1 11c24.6 1.2 47.2 8 47.2 19.7zm-8 0c0-3.8-15-10.6-40-11.8l-1.1 12.3a3.7 3.7 0 0 1-3.6 3.5h-6.6a3.7 3.7 0 0 1-3.5-3.5L56 88.2a115.8 115.8 0 0 0-27.6 4.3c-9.1 2.8-12.4 6-12.4 7.5 0 4.2 18.2 12 48 12a127 127 0 0 0 35.6-4.5c9.1-2.8 12.4-6 12.4-7.5z"/></svg>