<svg xmlns="http://www.w3.org/2000/svg" viewBox="0 0 128 128"><path d="M120 44a4 4 0 0 1-4 4h-5.7l-6.4 10.6a47.9 47.9 0 0 1-14.4 31.8 20 20 0 0 0-29 13.4 47.7 47.7 0 0 1-9 0 20 20 0 0 0-29-13.4A47.9 47.9 0 0 1 8 56h88.1l9.6-16H116a4 4 0 0 1 4 4zm-78.5 56.7l-.4-.5-.1-.2-.8-.8-.3-.2-.5-.4-.4-.3-.6-.4-.5-.3-.4-.2-.7-.4-.3-.1-.8-.3-.3-.1-1-.2-1-.2H33l-1-.1h-1.1l-1.1.2a12 12 0 1 0 11.8 4.7zm40.7-4.5A9.4 9.4 0 0 0 80 96h-1.4l-1 .2c-.4 0-.7.2-1 .3h-.4l-.7.3-.3.2c-.3 0-.5.2-.8.3l-.4.2-.5.3-.6.4-.4.3-.4.4-.3.2-.8.9v.1l-.5.5-.1.2a12 12 0 1 0 11.8-4.6zM48 48H8A48.7 48.7 0 0 1 56 8v32a8 8 0 0 1-8 8zm-2.3-26.7a4 4 0 0 0-5.3-2.2 40.1 40.1 0 0 0-17.6 14.5 4 4 0 1 0 6.7 4.5 32.1 32.1 0 0 1 14-11.6 4 4 0 0 0 2.2-5.2z"/></svg>