<svg xmlns="http://www.w3.org/2000/svg" viewBox="0 0 128 128"><path d="M118.7 95.2c-.6.5-9.9 9-26.5 9-8.3 0-18.4-2-30.2-8.3-30.1-16-46.7-.8-46.9-.7a4.2 4.2 0 0 1-6-.2 4.3 4.3 0 0 1 .2-6c.9-.8 21.2-19.4 56.7-.6 29.8 15.8 46.2 1.2 46.9.6a4.3 4.3 0 0 1 5.8 6.2zM105.5 109c-.1.1-13.9 8.6-39.5-5.4-30.2-16.4-47.7-3-48.4-2.3a4.3 4.3 0 0 0 5.2 6.7c.6-.5 14.2-10.5 39.2 3.1a65 65 0 0 0 31.2 9 33 33 0 0 0 16.9-3.9 4.3 4.3 0 0 0 1.3-5.9 4.2 4.2 0 0 0-5.9-1.3zM36 36a4 4 0 0 0 1.4-.3A73.3 73.3 0 0 1 51 32.1a43.2 43.2 0 0 0-.9 11.4 31.3 31.3 0 0 0 1.7 7.7c2 6.3 4.3 14.3.6 23.3a4 4 0 1 0 7.4 3A35.8 35.8 0 0 0 61 55l8.7-2.3 8 16.5A146.2 146.2 0 0 0 64 80s13 8 24 8c0 0 24-17.1 24-32-9.2 0-18.8 3.8-27.4 8.8l-9-18.5A4 4 0 0 0 71 44l-6.8 2c-1-7.7.1-12.3 1.4-15a78.7 78.7 0 0 1 13.6 1 4 4 0 0 0 1.6-7.9c-1-.2-23.3-4.4-46.2 4.2A4 4 0 0 0 36 36zm26-16a6 6 0 1 0-6-6 6 6 0 0 0 6 6z"/></svg>