<svg xmlns="http://www.w3.org/2000/svg" viewBox="0 0 128 128"><path d="M103.2 89.5a4 4 0 0 1 .7 3.5l-4 15.9a4 4 0 0 1-7.8-2l1.3-5a48 48 0 0 1-63.4-4 4 4 0 1 1 5.7-5.7A40 40 0 0 0 88 96h-4a4 4 0 0 1 0-8h16a4 4 0 0 1 3.2 1.5zM28 40h16a4 4 0 1 0 0-8h-3.9a40 40 0 0 1 52.2 3.8 4 4 0 0 0 5.6-5.6 48 48 0 0 0-63.3-4l1.3-5.1a4 4 0 1 0-7.8-2l-4 15.9a4 4 0 0 0 3.9 5zm12 36V64h6a2 2 0 0 0 1-3.8L29.2 48.3a2 2 0 0 0-2.2 0l-18 12a2 2 0 0 0 1.2 3.7H16v12a4 4 0 0 0 4 4h16a4 4 0 0 0 4-4zm79-15.8l-17.9-11.9a2 2 0 0 0-2.2 0l-18 12a2 2 0 0 0 1.2 3.7H88v12a4 4 0 0 0 4 4h16a4 4 0 0 0 4-4V64h6a2 2 0 0 0 1-3.8z"/></svg>