<svg xmlns="http://www.w3.org/2000/svg" viewBox="0 0 128 128"><path d="M13.6 93.4l-3-3a20 20 0 0 1 8.7-8.2l2.8 2.7a6 6 0 0 1-8.5 8.5zM28.2 80a20 20 0 0 0-4.7.5l1.4 1.5a10 10 0 0 1-14.1 14.1L9 94.5a19.9 19.9 0 0 0 24.2 24.8l-2.1-2A10 10 0 0 1 45.2 103l2.2 2.2A19.9 19.9 0 0 0 28.2 80zm5.7 25.8a6 6 0 0 0 0 8.5l3.4 3.4a20 20 0 0 0 8.5-8.5l-3.4-3.4a6 6 0 0 0-8.5 0zm84.8 3.4l-24-24a4.3 4.3 0 0 0-6 0l-3.4 3.3a4.3 4.3 0 0 0 0 6.1l24 24a4.3 4.3 0 0 0 6.1 0l3.3-3.3a4.3 4.3 0 0 0 0-6zM90 76.3a12.2 12.2 0 0 0-6.9 3.4l-.2.2-5.2-15.8A25.9 25.9 0 0 1 64 77.6L79.8 83l-.1.1a12.2 12.2 0 0 0-3.5 7.1l-35.8-12a47 47 0 0 1-18.9-11.7C6 51 3.5 28.3 16 15.9A28 28 0 0 1 36 8a44 44 0 0 1 30.4 13.5A47.3 47.3 0 0 1 77.6 39zM70.8 43.1l-.5-1.6A39.3 39.3 0 0 0 61 27a35.9 35.9 0 0 0-25-11c-4.1 0-10 1-14.5 5.6A20.9 20.9 0 0 0 16.1 39a37 37 0 0 0 11 21.8A35.7 35.7 0 0 0 52 72c4.1 0 10-1 14.6-5.6a21 21 0 0 0 5.3-17.6 31.8 31.8 0 0 0-1.1-5.6z"/></svg>