<svg xmlns="http://www.w3.org/2000/svg" width="152" height="148" viewBox="0 0 152 148">
  <path d="M69,73 L49,73 L49,45 C49,42.790861 50.790861,41 53,41 C55.209139,41 57,42.790861 57,45 L57,65 L69,65 C71.209139,65 73,66.790861 73,69 C73,71.209139 71.209139,73 69,73 Z M57,25 C34.90861,25 17,42.90861 17,65 C17,87.09139 34.90861,105 57,105 C79.09139,105 97,87.09139 97,65 C97,42.90861 79.09139,25 57,25 Z M57,17 C83.509668,17 105,38.490332 105,65 C105,91.509668 83.509668,113 57,113 C30.490332,113 9,91.509668 9,65 C9,38.490332 30.490332,17 57,17 Z M8.3,29.2 C10.2950189,26.1905926 12.5719535,23.3779088 15.1,20.8 C17.5702592,18.2133471 20.2826503,15.8693054 23.2,13.8 C26.1588952,11.7964967 29.307327,10.088305 32.6,8.7 C33.9218827,8.12837508 34.8383944,6.89495582 35.0042941,5.46435935 C35.1701937,4.03376287 34.5602771,2.62333082 33.404294,1.7643593 C32.248311,0.905387787 30.7218827,0.72837502 29.4,1.3 C25.6454972,2.94486197 22.0616267,4.95450895 18.7,7.3 C15.31623,9.65757576 12.1682596,12.3366995 9.3,15.3 C6.47523638,18.2221016 3.93076075,21.4026961 1.7,24.8 C0.677386523,25.9700118 0.424927659,27.6263936 1.0525485,29.0479273 C1.68016934,30.469461 3.07427855,31.3988672 4.62785612,31.4314657 C6.1814337,31.4640643 7.61330198,30.5939554 8.3,29.2 Z M111.2,30.3 C113.005937,29.0739058 113.495444,26.6263706 112.3,24.8 C110.074862,21.3676443 107.530207,18.1533432 104.7,15.2 C101.827104,12.2714823 98.679287,9.62597658 95.3,7.3 C91.9387168,4.95396125 88.354791,2.94428323 84.6,1.3 C83.2781173,0.72837502 81.751689,0.905387787 80.595706,1.7643593 C79.4397229,2.62333082 78.8298063,4.03376287 78.9957059,5.46435935 C79.1616056,6.89495582 80.0781173,8.12837508 81.4,8.7 C84.6621184,10.1259862 87.776946,11.8676102 90.7,13.9 C93.6480053,15.9320785 96.3939544,18.2426941 98.9,20.8 C101.393747,23.3819969 103.637115,26.1945779 105.6,29.2 C106.19042,30.0962137 107.116215,30.7175764 108.169308,30.9244339 C109.2224,31.1312914 110.314445,30.9062901 111.2,30.3 Z" transform="translate(21 21)"/>
</svg>
