<svg xmlns="http://www.w3.org/2000/svg" viewBox="0 0 128 128"><path d="M76 80H56V52a4 4 0 0 1 8 0v20h12a4 4 0 0 1 0 8zM64 32a40 40 0 1 0 40 40 40 40 0 0 0-40-40m0-8a48 48 0 1 1-48 48 48 48 0 0 1 48-48zM15.3 36.2a56.9 56.9 0 0 1 6.8-8.4 56 56 0 0 1 8.1-7 54.6 54.6 0 0 1 9.4-5.1 4 4 0 1 0-3.2-7.4 62.6 62.6 0 0 0-10.7 6 64 64 0 0 0-9.4 8 65 65 0 0 0-7.6 9.5 4 4 0 1 0 6.6 4.4zm102.9 1.1a4 4 0 0 0 1.1-5.5 64.9 64.9 0 0 0-7.6-9.6 64 64 0 0 0-9.4-7.9 62.5 62.5 0 0 0-10.7-6 4 4 0 1 0-3.2 7.4 54.6 54.6 0 0 1 9.3 5.2 55.9 55.9 0 0 1 8.2 6.9 56.8 56.8 0 0 1 6.7 8.4 4 4 0 0 0 5.6 1.1z"/></svg>