<svg xmlns="http://www.w3.org/2000/svg" viewBox="0 0 128 128"><path d="M35 25V13a5 5 0 0 1 10 0v12a5 5 0 0 1-10 0zm85-1v88a8 8 0 0 1-8 8H16a8 8 0 0 1-8-8V24a8 8 0 0 1 8-8h13.8v8.8a10.2 10.2 0 1 0 20.4 0V16h27.6v8.8a10.2 10.2 0 1 0 20.4 0V16H112a8 8 0 0 1 8 8zm-8 16H16v68a4 4 0 0 0 4 4h88a4 4 0 0 0 4-4zM88 30a5 5 0 0 0 5-5V13a5 5 0 0 0-10 0v12a5 5 0 0 0 5 5zM28 62h14a4 4 0 0 0 4-4v-6a4 4 0 0 0-4-4H28a4 4 0 0 0-4 4v6a4 4 0 0 0 4 4zm0 21h14a4 4 0 0 0 4-4v-6a4 4 0 0 0-4-4H28a4 4 0 0 0-4 4v6a4 4 0 0 0 4 4zm0 21h14a4 4 0 0 0 4-4v-6a4 4 0 0 0-4-4H28a4 4 0 0 0-4 4v6a4 4 0 0 0 4 4zm29-42h14a4 4 0 0 0 4-4v-6a4 4 0 0 0-4-4H57a4 4 0 0 0-4 4v6a4 4 0 0 0 4 4zm0 21h14a4 4 0 0 0 4-4v-6a4 4 0 0 0-4-4H57a4 4 0 0 0-4 4v6a4 4 0 0 0 4 4zm0 21h14a4 4 0 0 0 4-4v-6a4 4 0 0 0-4-4H57a4 4 0 0 0-4 4v6a4 4 0 0 0 4 4zm29-42h14a4 4 0 0 0 4-4v-6a4 4 0 0 0-4-4H86a4 4 0 0 0-4 4v6a4 4 0 0 0 4 4zm0 21h14a4 4 0 0 0 4-4v-6a4 4 0 0 0-4-4H86a4 4 0 0 0-4 4v6a4 4 0 0 0 4 4zm-4 17v-6a4 4 0 0 1 4-4h14a4 4 0 0 1 4 4v6a4 4 0 0 1-4 4H86a4 4 0 0 1-4-4zm4 0h14v-6H86z"/></svg>