<svg xmlns="http://www.w3.org/2000/svg" xmlns:xlink="http://www.w3.org/1999/xlink" width="22" height="14" viewBox="0 0 128 128">
  <defs>
    <path id="car-side-a" d="M20.7500001,5.56900002 L17.3750001,4.87500002 L15.5560001,1.23700001 C15.170963,0.473310672 14.3862418,-0.00604744026 13.5310001,2.32982822e-13 L7.06200003,2.32982822e-13 C6.09301998,-0.00127403665 5.23205846,0.61795753 4.92500002,1.53700001 L3.81900002,4.83700002 L1.25000001,5.56900002 C0.787761409,5.83586782 0.502151041,6.3282601 0.500000002,6.86200003 L0.500000002,9.75000004 C0.500000002,10.164 0.836000003,10.5 1.25000001,10.5 L2.00000001,10.5 C2.00000001,12.1568543 3.34314576,13.5000001 5.00000002,13.5000001 C6.65685428,13.5000001 8.00000003,12.1568543 8.00000003,10.5 L14.0000001,10.5 C14.0000001,12.1568543 15.3431458,13.5000001 17.0000001,13.5000001 C18.6568543,13.5000001 20.0000001,12.1568543 20.0000001,10.5 L20.7500001,10.5 C21.1642137,10.5 21.5000001,10.1642136 21.5000001,9.75000004 L21.5000001,6.86300003 C21.5050213,6.3221203 21.2184493,5.82042823 20.7500001,5.55000002 L20.7500001,5.56900002 Z M14.2060001,1.91200001 L15.5000001,4.50000002 L11,4.50000002 L11,1.49997994 L13.5310001,1.50000001 C13.8160065,1.49792104 14.0775613,1.65756637 14.2060001,1.91200001 Z M7.06200003,1.50000001 L9.50000004,1.49999031 L9.50000004,4.50000002 L5.50600002,4.50000002 L6.31200003,2.00600001 C6.41661359,1.70192149 6.7034334,1.49837194 7.02500003,1.50000001 L7.06200003,1.50000001 Z M5.00000002,12.0000001 C4.17157289,12.0000001 3.50000001,11.3284272 3.50000001,10.5 C3.50000001,9.67157292 4.17157289,9.00000004 5.00000002,9.00000004 C5.82842715,9.00000004 6.50000003,9.67157292 6.50000003,10.5 C6.50000003,11.3284272 5.82842715,12.0000001 5.00000002,12.0000001 Z M17.0000001,12.0000001 C16.1715729,12.0000001 15.5000001,11.3284272 15.5000001,10.5 C15.5000001,9.67157292 16.1715729,9.00000004 17.0000001,9.00000004 C17.8284272,9.00000004 18.5000001,9.67157292 18.5000001,10.5 C18.5000001,11.3284272 17.8284272,12.0000001 17.0000001,12.0000001 Z"/>
  </defs>
  <g fill="none" fill-rule="evenodd">
    <mask id="car-side-b" fill="#fff">
      <use xlink:href="#car-side-a"/>
    </mask>
    <g fill="#383838" mask="url(#car-side-b)">
      <polygon points="0 0 24 0 24 24 0 24" transform="translate(-1 -6)"/>
    </g>
  </g>
</svg>
