<svg xmlns="http://www.w3.org/2000/svg" viewBox="0 0 128 128"><path d="M119 70l-12 12a3.5 3.5 0 0 1-5 0L90 70a3.5 3.5 0 0 1 2.5-6h8.5a38 38 0 0 0-37-38 4 4 0 0 1 0-8 44 44 0 0 1 31.9 13.7A46.2 46.2 0 0 1 109 64h7.5a3.5 3.5 0 0 1 2.5 6zm-45.7-6c-2.7-1.6-5.5-2.4-8-3.3-3.2-1.3-8.5-2.5-8.5-5.6a4.5 4.5 0 0 1 1.8-3.8 8.6 8.6 0 0 1 5.4-1.7 9.3 9.3 0 0 1 7.7 4.2 3.6 3.6 0 0 0 6.3-3.5l-.1-.2a16.1 16.1 0 0 0-10.3-7.3v-2.2a3.6 3.6 0 0 0-7.2 0v2.1a14.4 14.4 0 0 0-6.4 3 12.1 12.1 0 0 0-4.4 9.3 10.7 10.7 0 0 0 5.1 9c2.7 1.6 5.5 2.4 8 3.3 3.3 1.3 8.5 2.5 8.5 5.7a4.3 4.3 0 0 1-1.8 3.7 8.6 8.6 0 0 1-5.4 1.7 9.3 9.3 0 0 1-7.7-4.3 3.6 3.6 0 0 0-6.2 3.7 16.3 16.3 0 0 0 10.3 7.4v2.2a3.6 3.6 0 1 0 7.2 0v-2.1a14.6 14.6 0 0 0 6.4-3 12 12 0 0 0 4.4-9.3 10.8 10.8 0 0 0-5.1-9zM64 102c-20.4 0-37-16.8-37-37.5a4 4 0 0 0 0-.5h8.5a3.5 3.5 0 0 0 2.5-6L26 46a3.5 3.5 0 0 0-5 0L9 58a3.5 3.5 0 0 0 2.5 6H19a4 4 0 0 0 0 .5c0 25 20.2 45.5 45 45.5a4 4 0 0 0 0-8z"/></svg>