<svg xmlns="http://www.w3.org/2000/svg" viewBox="0 0 128 128"><path d="M78 18a10 10 0 1 1 10 10 10 10 0 0 1-10-10zm26 16s-9.8-2-16-2-16 2-16 2c-4 1-4.3 3.4-4 6l3.4 30.5a4.3 4.3 0 0 0 1.3 2.6l1.8 1.8a4.3 4.3 0 0 1 1.3 2.7l3.6 38.4a4.4 4.4 0 0 0 4.5 4h8.2a4.4 4.4 0 0 0 4.4-4l3.6-38.4a4.3 4.3 0 0 1 1.3-2.7l1.8-1.8a4.3 4.3 0 0 0 1.3-2.6L108 40c.3-2.6.1-5-3.9-6zm-64-6a10 10 0 1 0-10-10 10 10 0 0 0 10 10zm16 6s-9.8-2-16-2-16 2-16 2c-4 1-4.3 3.4-4 6l3.4 30.5a4.3 4.3 0 0 0 1.3 2.6l1.8 1.8a4.3 4.3 0 0 1 1.3 2.7l3.6 38.4a4.4 4.4 0 0 0 4.5 4h8.2a4.4 4.4 0 0 0 4.4-4l3.6-38.4a4.3 4.3 0 0 1 1.3-2.7l1.8-1.8a4.3 4.3 0 0 0 1.3-2.6L60 40c.3-2.6.1-5-3.9-6z"/></svg>