<svg xmlns="http://www.w3.org/2000/svg" xmlns:xlink="http://www.w3.org/1999/xlink" width="24" height="24" viewBox="0 0 24 24">
  <defs>
    <path id="credit-card-back-a" d="M19.2500001,0.500000002 L2.75000001,0.500000002 C1.50735932,0.500000002 0.500000002,1.50735932 0.500000002,2.75000001 L0.500000002,13.2500001 C0.500000002,14.4926407 1.50735932,15.5000001 2.75000001,15.5000001 L19.2500001,15.5000001 C20.4926408,15.5000001 21.5000001,14.4926407 21.5000001,13.2500001 L21.5000001,2.75000001 C21.5000001,1.50735932 20.4926408,0.500000002 19.2500001,0.500000002 Z M2.75000001,2.00000001 L19.2500001,2.00000001 C19.6642136,2.00000001 20.0000001,2.33578645 20.0000001,2.75000001 L20.0000001,3.50000001 L2.00000001,3.50000001 L2.00000001,2.75000001 C2.00000001,2.33578645 2.33578645,2.00000001 2.75000001,2.00000001 Z M19.2500001,14.0000001 L2.75000001,14.0000001 C2.33578645,14.0000001 2.00000001,13.6642136 2.00000001,13.2500001 L2.00000001,6.50000003 L20.0000001,6.50000003 L20.0000001,13.2500001 C20.0000001,13.6642136 19.6642136,14.0000001 19.2500001,14.0000001 Z M3.50000001,9.50000004 L12.5000001,9.50000004 L12.5000001,11 L3.50000001,11 L3.50000001,9.50000004 Z"/>
  </defs>
  <g fill="none" fill-rule="evenodd" transform="translate(1 4)">
    <mask id="credit-card-back-b" fill="#fff">
      <use xlink:href="#credit-card-back-a"/>
    </mask>
    <g fill="#383838" mask="url(#credit-card-back-b)">
      <polygon points="0 0 24 0 24 24 0 24" transform="translate(-1 -4)"/>
    </g>
  </g>
</svg>
