<svg xmlns="http://www.w3.org/2000/svg" xmlns:xlink="http://www.w3.org/1999/xlink" width="24" height="24" viewBox="0 0 24 24">
  <defs>
    <path id="edit-note-a" d="M2.75000001,20.0000001 L5.00000002,20.0000001 L5.00000002,21.5000001 L2.75000001,21.5000001 C1.50735932,21.5000001 0.500000002,20.4926408 0.500000002,19.2500001 L0.500000002,2.75000001 C0.500000002,1.50735932 1.50735932,0.500000002 2.75000001,0.500000002 L14.7500001,0.500000002 C15.9926408,0.500000002 17.0000001,1.50735932 17.0000001,2.75000001 L17.0000001,5.00000002 L15.5000001,5.00000002 L15.5000001,2.75000001 C15.5000001,2.33578645 15.1642136,2.00000001 14.7500001,2.00000001 L2.75000001,2.00000001 C2.33578645,2.00000001 2.00000001,2.33578645 2.00000001,2.75000001 L2.00000001,19.2500001 C2.00000001,19.6640001 2.33600001,20.0000001 2.75000001,20.0000001 Z M3.50000001,3.50000001 L3.50000001,5.00000002 L8.00000003,5.00000002 L8.00000003,3.50000001 L3.50000001,3.50000001 Z M14.0000001,6.50000003 L3.50000001,6.50000003 L3.50000001,8.00000003 L14.0000001,8.00000003 L14.0000001,6.50000003 Z M11,9.50000004 L3.50000001,9.50000004 L3.50000001,11 L11,11 L11,9.50000004 Z M3.50000001,14.0000001 L8.00000003,14.0000001 L8.00000003,12.5000001 L3.50000001,12.5000001 L3.50000001,14.0000001 Z M17.1130001,9.87500004 L15.4630001,9.50000004 L9.35000004,15.6130001 L10.531,16.0250001 L11.975,17.4690001 L12.3870001,18.6500001 L18.5000001,12.5380001 L18.1250001,10.888 L17.1130001,9.87500004 Z M20.8630001,7.11900003 C20.0223085,6.28436604 18.6656916,6.28436604 17.8250001,7.11900003 L16.7190001,8.24400003 L17.8440001,8.48700004 L19.5120001,10.137 L19.7560001,11.262 L20.8810001,10.137 C21.7010001,9.30500004 21.7010001,7.97000003 20.8810001,7.13700003 L20.8630001,7.11900003 Z M9.70600004,17.3370001 L8.52500004,16.9250001 L6.55600003,20.7500001 C6.46670271,20.9488421 6.50956122,21.1821787 6.66369129,21.3363088 C6.81782137,21.4904389 7.05115801,21.5332974 7.25000003,21.4440001 L11.075,19.4750001 L10.663,18.2940001 L9.70600004,17.3370001 Z"/>
  </defs>
  <g fill="none" fill-rule="evenodd" transform="translate(1 1)">
    <mask id="edit-note-b" fill="#fff">
      <use xlink:href="#edit-note-a"/>
    </mask>
    <g fill="#383838" mask="url(#edit-note-b)">
      <polygon points="0 0 24 0 24 24 0 24" transform="translate(-1 -1)"/>
    </g>
  </g>
</svg>
