<svg xmlns="http://www.w3.org/2000/svg" viewBox="0 0 128 85" width="128" height="85"><path d="M114.8 8a5.3 5.3 0 0 1 5.2 5.4v11.2a5.3 5.3 0 0 1-5.2 5.3H99l3.5-4 1.7-2 3.5-4H73.1L54.7 40.7H20.1L45 13l1-1a13.6 13.6 0 0 1 8.7-4h60.2z" style="fill:#ffd800"/><path d="M107.8 20H73.1l-3.5 4-11.4 13-3.6 4H20.4l3.5-4 1.6-2 3.5-4H13.2A5.3 5.3 0 0 0 8 36.3v11.3a5.3 5.3 0 0 0 5.2 5.3h60.4a13.2 13.2 0 0 0 8.7-4l9.1-10.3zM120 76.5v-1.6c0-.3-.1-.4-.4-.4h-1.1c-.3 0-.5 0-.6-.2a1.8 1.8 0 0 1 0-.8v-6.2h1.7a.4.4 0 0 0 .3 0 .4.4 0 0 0 .1-.4v-1.7a.4.4 0 0 0-.1-.3.4.4 0 0 0-.3-.2h-1.8v-2.2a.4.4 0 0 0 0-.3.6.6 0 0 0-.3 0l-2.6.4a2.2 2.2 0 0 0-.3.1.4.4 0 0 0-.1.3v1.7h-1.8a.4.4 0 0 0-.3.1.4.4 0 0 0-.1.3v1.4a.3.3 0 0 0 .1.3.7.7 0 0 0 .3.2l1.8.2v6.2a7 7 0 0 0 .2 1.9 3 3 0 0 0 .6 1 2.4 2.4 0 0 0 1.2.6 8.2 8.2 0 0 0 1.5.1 5.1 5.1 0 0 0 .8 0l.9-.1a.3.3 0 0 0 .3-.4m-9.2-.2v-2a.3.3 0 0 0-.1-.2.6.6 0 0 0-.3 0 11 11 0 0 1-1.1 0 13.5 13.5 0 0 1-1.5 0 1.6 1.6 0 0 1-.7-.1 1.5 1.5 0 0 1-.9-1.2 4.4 4.4 0 0 1-.1-1.2v-1.7a4.4 4.4 0 0 1 .1-1.2 2.4 2.4 0 0 1 .4-.7 1.7 1.7 0 0 1 .5-.4 1.8 1.8 0 0 1 .7-.1 13.5 13.5 0 0 1 1.5 0h1.1a.4.4 0 0 0 .3 0 .3.3 0 0 0 .1-.3v-1.8a.4.4 0 0 0 0-.3 1.3 1.3 0 0 0-.4-.2l-1.2-.3a9.7 9.7 0 0 0-1.7 0 4.9 4.9 0 0 0-3.6 1.3 5.5 5.5 0 0 0-1.4 4v1.8a5.4 5.4 0 0 0 1.4 4 4.8 4.8 0 0 0 3.6 1.4h1.7a10.8 10.8 0 0 0 1.1-.3.7.7 0 0 0 .4-.2v-.3M97 73.9a4.8 4.8 0 0 1-.8.3 3.4 3.4 0 0 1-1 .2 2.1 2.1 0 0 1-1-.2c-.2-.2-.3-.4-.3-.9v-.2a2.6 2.6 0 0 1 .1-.6 1.1 1.1 0 0 1 .3-.5 1.2 1.2 0 0 1 .6-.3 4.7 4.7 0 0 1 1 0H97v2.2zm3.4-5.1a5.1 5.1 0 0 0-.4-2 3.5 3.5 0 0 0-2.5-2.1 7.7 7.7 0 0 0-2-.3 16 16 0 0 0-2.1.2 9.3 9.3 0 0 0-1.6.3c-.3 0-.4.2-.4.5V67a.3.3 0 0 0 .3.4h3.6a2.1 2.1 0 0 1 1.1.2 1.4 1.4 0 0 1 .5 1.2v.8h-1.2a7.2 7.2 0 0 0-4 .8 3 3 0 0 0-1.2 2.8v.1a3.8 3.8 0 0 0 .3 1.6 3.2 3.2 0 0 0 .9 1.1 3.6 3.6 0 0 0 1.1.7 4.7 4.7 0 0 0 1.4.1 4.6 4.6 0 0 0 1.6-.2 6.5 6.5 0 0 0 1.4-.7v.3a.4.4 0 0 0 0 .3.4.4 0 0 0 .4.2h2.4a.4.4 0 0 0 .3-.2.4.4 0 0 0 .1-.3v-7.5zM89 76.4v-1.6c0-.3-.1-.4-.4-.4h-1.1c-.3 0-.5 0-.6-.2a1.8 1.8 0 0 1 0-.8v-6.2h1.7a.4.4 0 0 0 .3 0 .4.4 0 0 0 0-.4v-1.7a.4.4 0 0 0 0-.3.4.4 0 0 0-.3-.2h-1.8v-2.2a.4.4 0 0 0 0-.3.6.6 0 0 0-.3 0l-2.6.4a2.2 2.2 0 0 0-.3.1.4.4 0 0 0-.1.3v1.7h-1.9a.4.4 0 0 0-.3.1.4.4 0 0 0-.1.3v1.4a.3.3 0 0 0 .1.3.7.7 0 0 0 .3.2l1.8.2v6.2a7 7 0 0 0 .2 1.9 3 3 0 0 0 .7 1 2.4 2.4 0 0 0 1 .6 8.2 8.2 0 0 0 1.6.1 5.1 5.1 0 0 0 .9 0l.8-.1c.3 0 .4-.1.4-.4m-9.3 0v-7a8.8 8.8 0 0 0-.2-1.9 4.3 4.3 0 0 0-.6-1.5 2.6 2.6 0 0 0-1.1-1 4 4 0 0 0-2-.4 5.8 5.8 0 0 0-1.7.3 6.2 6.2 0 0 0-1.7.8v-.5a.4.4 0 0 0-.2-.3.4.4 0 0 0-.3-.1h-2.3a.4.4 0 0 0-.4.1.4.4 0 0 0 0 .3v11.1a.4.4 0 0 0 0 .4.4.4 0 0 0 .4 0H72a.4.4 0 0 0 .3 0 .4.4 0 0 0 .1-.4V68a11.4 11.4 0 0 1 1.1-.5 2.5 2.5 0 0 1 1-.2 4 4 0 0 1 .8.1 1 1 0 0 1 .5.3 1.3 1.3 0 0 1 .2.7 5.9 5.9 0 0 1 0 .9v7a.4.4 0 0 0 .1.3.4.4 0 0 0 .3.1H79a.4.4 0 0 0 .3-.1.3.3 0 0 0 .2-.3m-16-4.8c0 1.7-.7 2.5-2 2.5a1.6 1.6 0 0 1-1.4-.6 3.4 3.4 0 0 1-.5-2V70a3.3 3.3 0 0 1 .5-2 1.6 1.6 0 0 1 1.5-.7c1.2 0 1.9 1 1.9 2.6zm3.4-1.5a7.3 7.3 0 0 0-.3-2.3 4.8 4.8 0 0 0-1-1.7 4.5 4.5 0 0 0-1.7-1.1 6.9 6.9 0 0 0-4.6 0 4.5 4.5 0 0 0-1.7 1.1 4.8 4.8 0 0 0-1 1.7 7.3 7.3 0 0 0-.4 2.3v1.5a7.3 7.3 0 0 0 .3 2.3 4.8 4.8 0 0 0 1 1.7 4.5 4.5 0 0 0 1.7 1.1 6.9 6.9 0 0 0 4.6 0 4.5 4.5 0 0 0 1.7-1 4.8 4.8 0 0 0 1-1.8 7.3 7.3 0 0 0 .4-2.3zm-11.8 6.2v-2a.3.3 0 0 0-.1-.2.6.6 0 0 0-.3 0 11 11 0 0 1-1.2 0 13.5 13.5 0 0 1-1.4 0 1.6 1.6 0 0 1-.7-.1 1.5 1.5 0 0 1-1-1.2 4.4 4.4 0 0 1 0-1.2v-1.7a4.4 4.4 0 0 1 0-1.2 2.4 2.4 0 0 1 .4-.7 1.7 1.7 0 0 1 .6-.4 1.8 1.8 0 0 1 .7-.1 13.5 13.5 0 0 1 1.4 0h1.2a.6.6 0 0 0 .3 0 .3.3 0 0 0 .1-.3v-1.8a.4.4 0 0 0-.1-.3 1.3 1.3 0 0 0-.3-.2l-1.2-.2a9.7 9.7 0 0 0-1.7 0 4.9 4.9 0 0 0-3.6 1.3 5.5 5.5 0 0 0-1.4 4v1.7a5.4 5.4 0 0 0 1.4 4 4.8 4.8 0 0 0 3.6 1.4h1.7c.5 0 .8-.2 1.1-.3a.7.7 0 0 0 .4-.2.5.5 0 0 0 0-.3m-10.4.2v-7a8.8 8.8 0 0 0-.2-2 4.3 4.3 0 0 0-.6-1.5 2.6 2.6 0 0 0-1.1-1 4 4 0 0 0-2-.4 5.8 5.8 0 0 0-1.7.3 6.2 6.2 0 0 0-1.7.9v-.5a.4.4 0 0 0-.2-.4.4.4 0 0 0-.3 0h-2.3a.4.4 0 0 0-.4 0 .4.4 0 0 0 0 .4v11.1a.4.4 0 0 0 0 .4.4.4 0 0 0 .3 0H37a.4.4 0 0 0 .3 0 .4.4 0 0 0 .1-.4V68a11.4 11.4 0 0 1 1.1-.5 2.5 2.5 0 0 1 1-.2 4 4 0 0 1 .8.1 1 1 0 0 1 .5.3 1.3 1.3 0 0 1 .2.7 5.9 5.9 0 0 1 0 .9v7a.4.4 0 0 0 .1.3.4.4 0 0 0 .4.1H44a.4.4 0 0 0 .3-.1.3.3 0 0 0 .3-.3M28 73.9a4.8 4.8 0 0 1-.8.3 3.4 3.4 0 0 1-1 .2 2.1 2.1 0 0 1-1-.2c-.2-.2-.3-.4-.3-.9v-.2a2.6 2.6 0 0 1 .1-.6 1.1 1.1 0 0 1 .3-.5 1.2 1.2 0 0 1 .6-.3 4.7 4.7 0 0 1 1 0H28zm3.4-5.1a5.1 5.1 0 0 0-.3-2 3.5 3.5 0 0 0-2.6-2.1 7.7 7.7 0 0 0-2-.3 16 16 0 0 0-2.1.2 9.3 9.3 0 0 0-1.6.3c-.3 0-.4.2-.4.5V67a.3.3 0 0 0 .3.4h3.6a2.1 2.1 0 0 1 1.2.2A1.4 1.4 0 0 1 28 69v.8h-1a7.2 7.2 0 0 0-4 .8 3 3 0 0 0-1.3 2.8v.1A3.8 3.8 0 0 0 22 75a3.2 3.2 0 0 0 .8 1.1 3.6 3.6 0 0 0 1.2.7 4.7 4.7 0 0 0 1.4.1 4.6 4.6 0 0 0 1.6-.2 6.5 6.5 0 0 0 1.3-.7v.3a.4.4 0 0 0 .2.3.4.4 0 0 0 .3.2h2.4a.4.4 0 0 0 .3-.2.4.4 0 0 0 .1-.3v-7.5zM16.3 72a1.7 1.7 0 0 1-.6 1.4 4 4 0 0 1-2.3.5h-1.8v-4H14a2.2 2.2 0 0 1 1.8.6 2.1 2.1 0 0 1 .5 1.3zm-.1-6.3a3.4 3.4 0 0 1-.1.7 1.1 1.1 0 0 1-.3.5 2.4 2.4 0 0 1-.7.4 3.5 3.5 0 0 1-1.1.1h-2.4v-3.6h1.7a4.8 4.8 0 0 1 2.3.4 1.4 1.4 0 0 1 .6 1.2v.3zm3.6 6.1a3.3 3.3 0 0 0-.5-1.9 3.4 3.4 0 0 0-1.4-1.2 3 3 0 0 0 1.4-1.3 3.8 3.8 0 0 0 .4-1.8v-.4a4.4 4.4 0 0 0-.4-2.1 3.7 3.7 0 0 0-1.4-1.4 6.7 6.7 0 0 0-2.1-.7 17.4 17.4 0 0 0-2.8-.2h-2.1a6.7 6.7 0 0 0-1 0l-.7.1a1.5 1.5 0 0 0-1 .4 1.5 1.5 0 0 0-.2 1v13a1.5 1.5 0 0 0 .3 1 1.8 1.8 0 0 0 .9.4 4 4 0 0 0 .7 0c.3 0 .6 0 1 .2a8.6 8.6 0 0 0 1.1 0h1.1a16 16 0 0 0 2.6-.2 6.4 6.4 0 0 0 2.1-.8 4.2 4.2 0 0 0 1.5-1.4 4.7 4.7 0 0 0 .5-2.4V72z" style="fill:#005498"/></svg>