<svg xmlns="http://www.w3.org/2000/svg" viewBox="0 0 128 64"><path fill="#000268" d="M8 16.6A8.7 8.7 0 0 1 16.7 8h94.6a8.7 8.7 0 0 1 8.7 8.6v30.8a8.7 8.7 0 0 1-8.7 8.6H16.7A8.7 8.7 0 0 1 8 47.4V16.6z"/><path fill="#fff" d="M11.6 17V47a5.4 5.4 0 0 0 5.4 5.4h49.6v-41H17a5.4 5.4 0 0 0-5.4 5.4zm67.8 14.9c0 1.9-1 3.2-2.6 3.2a2.8 2.8 0 0 1-2.5-3.1c0-1.8 1-3.1 2.5-3.1s2.6 1.4 2.6 3zm-9.3 11h4.2v-6.6a4.2 4.2 0 0 0 3.8 2c3.6 0 5.6-3 5.6-6.5 0-3-1.9-6.1-5.2-6.1a4.8 4.8 0 0 0-4.5 2.4V26h-3.9zm19.3-8.7c0-1.2 1.1-1.6 2.5-1.6h1.8a2.7 2.7 0 0 1-2.6 2.9c-1 0-1.7-.5-1.7-1.3zm8.4 3.8a14.8 14.8 0 0 1-.2-2.9v-4.4c0-3.7-2.7-5-5.7-5a12.5 12.5 0 0 0-4.9.8l.1 2.9a7.9 7.9 0 0 1 3.9-1c1.5 0 2.7.5 2.7 2.2a12.3 12.3 0 0 0-2-.2c-2.2 0-6.2.4-6.2 4.1 0 2.6 2.1 3.8 4.5 3.8a4.2 4.2 0 0 0 3.8-2.2l.1 2zm2 4.9a12.2 12.2 0 0 0 2.5.2c3.9 0 4.8-2.9 6-6l4.4-11.2h-4.2l-2.5 8-2.6-8h-4.5l4.9 12.4a2.1 2.1 0 0 1-2.1 1.7 5 5 0 0 1-1.7-.3z"/><path fill="#ff0007" d="M21.8 31.9c0-1.7.8-3 2.3-3a2.6 2.6 0 0 1 2.7 2.8 2.8 2.8 0 0 1-2.7 3.1c-1.2 0-2.3-1-2.3-3zm9-6h-3.7v2.2a4.7 4.7 0 0 0-4.2-2.4c-3.7 0-5.4 2.7-5.4 6.2s2 6.1 5.3 6.1a4.7 4.7 0 0 0 4.1-2v.7c0 2.3-1.3 3.4-3.7 3.4a8.3 8.3 0 0 1-4.1-1l-.2 3.3a14.1 14.1 0 0 0 4.6.8c4.9 0 7.3-1.6 7.3-6.6zm7.1-5h-4.2V24H38zM33.7 38H38V26h-4.2zm15.9-12.2a9 9 0 0 0-1.5-.1 3.7 3.7 0 0 0-3.5 2.5v-2.3h-3.9V38H45v-5c0-2.4 1-3.9 3-3.9a4.9 4.9 0 0 1 1.4.2zm7.2 9.6c-2 0-2.7-1.6-2.7-3.4s.7-3.4 2.7-3.4 2.7 1.6 2.7 3.4-.8 3.4-2.7 3.4zm0 2.9c4 0 7-2.3 7-6.3s-3-6.3-7-6.3-7 2.3-7 6.3 3 6.3 7 6.3z"/></svg>