<svg xmlns="http://www.w3.org/2000/svg" viewBox="0 0 128 56"><path d="M63 8a147.7 147.7 0 0 0-30.6 5c-3.1.8-3.2.9-.8.4a184.8 184.8 0 0 1 21.2-2.7c2.7-.1 11-.2 13 0a64.1 64.1 0 0 1 8.3 1.1c7.8 1.7 12.6 5 14.3 9.8a6.3 6.3 0 0 1 .3 2.1H95.4a11.3 11.3 0 0 0-.2-1.7 12.2 12.2 0 0 0-2-4.2 17.2 17.2 0 0 0-4-4 35 35 0 0 0-18-5.6C69.9 8 64.6 8 63 8zm3.1 19.9a10 10 0 0 0-8.2 9.1 7.7 7.7 0 0 0 1.3 5 6.7 6.7 0 0 0 3.8 2.7 8.1 8.1 0 0 0 3.6 0 8.6 8.6 0 0 0 3-1.4 10.3 10.3 0 0 0 4-5.5 11 11 0 0 0 .1-4.5 6.8 6.8 0 0 0-5.4-5.3 8.3 8.3 0 0 0-2.2 0zm2.4 5.1l-.2 2.8-.3 3h-2.9a18.2 18.2 0 0 1-2.8 0l.4-3L63 33h5.4z" style="fill:#1667a3"/><path d="M54.4 17.8a12.9 12.9 0 0 1 2.7-.1h2.7l-2 3.1-2 3-1.6 11-1.7 11v.2H47a712 712 0 0 1 3.2-17.2l.2-1.1h-1.3l-1.3-.1.4-3.2.7-.3c1.1-.4 1.4-.7 3.5-3.6l2-2.7zm23.2 0l-.3 1.6-.2 1.6h-8.5c-8.2 0-8.4 0-8.4.2a11.9 11.9 0 0 1-1.3 2.5 6.7 6.7 0 0 0-.5.8h18v.3l-.8 3-.6 2.8.2.6a13 13 0 0 1 .8 3.6c.3 5-3.2 9.6-9.8 12.8l-.8.4h1a14.6 14.6 0 0 0 9.8-4c1.8-1.8 2.5-3.4 3.2-7 .6-2.7 1.5-9.1 1.7-11.7a2.5 2.5 0 0 1 .2-1 6.2 6.2 0 0 1 .8 0 4.4 4.4 0 0 0 .8-.2 28.7 28.7 0 0 0 .6-3l-.6-.1h-.5v-.3c.2-.3.5-2.5.5-2.6s-.3-.2-2.6-.2h-2.7zM14.2 24a5.1 5.1 0 0 0-3.3 3.6c-.4 1.7-1.7 12.4-1.6 12.5l3.7.2 1.1-6.6 1.1-6.6 7.3.1-1.2 6.6c-.7 3.6-1.1 6.5-1 6.5a20.2 20.2 0 0 0 2 0h2.1l1.3-8.1 1.3-8.3H14.2zm23 1.3v1H29l-.6 1.3c-.4.8-.6 1.2-.5 1.3H32c4.4 0 4.5 0 5 .5s.7 1.8.6 3.6a11.3 11.3 0 0 1-.9 3.7 33.2 33.2 0 0 1-4 7l-1.4 1.9h3l3.2-.1c.8-.8 1.5-3.6 2.3-8.4l1-7.5v-.8H43v-2.4h-1.5v-2.1h-4.3v1zm60.5-.7H120v.7c-.2 1.3-.8 2.2-1.5 2.4a1.1 1.1 0 0 0-.6 1.6l.1.3h1.5l-.4 1.9c-1 5.2-2.4 11.2-2.5 11.4a26.3 26.3 0 0 1-2.7 0h-2.6l.6-.7a21.6 21.6 0 0 0 3.1-5.8 6.1 6.1 0 0 0 .3-2.2 3.7 3.7 0 0 0-.3-1.9l-.3-.6h-4.9v.3a2.6 2.6 0 0 1 0 .6l-.1.2h4v.8c0 1-.3 1.5-.8 1.7a16.9 16.9 0 0 1-2 .1 7.3 7.3 0 0 0-1.8.1 6.6 6.6 0 0 0 0 .8l-.1.6h.5l2 .1h1.6v.4a2.8 2.8 0 0 1-.5 1.4c-.2.2-.2.2-2.2.3h-2l-.2 1.4-.1 1.9v.4h-2.4a11.7 11.7 0 0 1-2.3 0l.3-3v-.5H99.5L99 41l-.4 1.7a8.8 8.8 0 0 1-1.3 0l-2.1.2h-.7v-.9c.3-2.5 1.1-7.8 1.6-9.8.4-1.8.6-2.1 1.1-2.5a4.2 4.2 0 0 1 2.6-.6h1l.3-.4.2-.5H107v.7h5l.3-.5a3.3 3.3 0 0 0 .6-1.3c0-.2-.5-.2-8.2-.2s-8.1 0-8-.1l.5-1.1.6-1.1zm7.4 7.5v-.4h-2.4c-2.8 0-2.8 0-2.5.7l.1.3h2.3a11.8 11.8 0 0 0 2.4-.1.7.7 0 0 0 .1-.5zm-2.3 3.3h-2.2c-1 0-1.2 0-1.2.8v.6h.6a25.2 25.2 0 0 0 4 0 2.7 2.7 0 0 0 .3-1.2c0-.1-.2-.2-1.5-.3zm-14.5-7l-.2 1.3v.6h1.4l-1.8 11.5a8.6 8.6 0 0 1-.4 1.8 1.5 1.5 0 0 1-1.3.7h-.6v2.4H87c1.9 0 1.9 0 2.7-.7l.5-.6.4.3a8.3 8.3 0 0 0 2.7 1l12.3.2H117v-.2c.2-.3.5-1.9.5-2s-1.4-.1-11.3-.1c-12.3 0-12.5 0-13.4-.4a2.8 2.8 0 0 1-1.4-1.3c-.2-.4-.2-.5 1.2-7.7l1.5-7.5-3-.1h-3l-.1.8zm-72 1.9a43 43 0 0 1-1.7 9.4 7 7 0 0 1-5.2 3.7 8.8 8.8 0 0 1-1.1.2H8v1.3c0 .8.2 1.5.2 1.5 0 .2 1.7 0 2.8-.4a14.8 14.8 0 0 0 3.6-2l1.5-1 .4.5a13 13 0 0 0 1.5 1.2 6.8 6.8 0 0 0 2 1.1c1.3.5 2.8.6 2.8.3l.2-1.3.2-1.3a1.1 1.1 0 0 0-.5-.2 7.8 7.8 0 0 1-4-2.4 1.5 1.5 0 0 1-.5-1.2 79 79 0 0 1 1.3-8.7l.3-1.5v-.2h-3.4l-.1 1zm14.6 1.5a58 58 0 0 1-3.6 8.5 18 18 0 0 1-2 2.4c-.4.4-.5.9-.6 2.2l-.1 1h.3a12.5 12.5 0 0 0 1.4-.3 3 3 0 0 0 1.7-.7c1.3-1 3-4 5-8.6.8-1.8 2.2-5.7 2.2-6a11.3 11.3 0 0 0-1.9 0h-1.8l-.6 1.4z" style="fill:#ed8207"/><path d="M36 16.2a3 3 0 0 1 .7 0 1.8 1.8 0 0 1 1.4.5c.2.3.6.9.5 1a2.5 2.5 0 0 1-.5 0h-.4l-.1-.2a.8.8 0 0 0-.9-.5 1.1 1.1 0 0 0-1.1 1 3 3 0 0 0 0 1.6 1 1 0 0 0 1.8 0c.2-.3.2-.3.4-.3.8.1.8 0 .6.5a1.9 1.9 0 0 1-1.6 1.2c-1.4.1-2.2-.8-2.2-2.4a2.3 2.3 0 0 1 1.5-2.4zm4.8 0a2.7 2.7 0 0 1 1.6.2 2.3 2.3 0 0 1 1 1 2 2 0 0 1 .2 1 2.1 2.1 0 0 1-.2 1.3 2.5 2.5 0 0 1-1.1 1.1 2.5 2.5 0 0 1-1.8 0 2.2 2.2 0 0 1-1-1 2 2 0 0 1-.3-1 2.7 2.7 0 0 1 .2-1.2 2.3 2.3 0 0 1 1.4-1.3zm1.1.9a1.1 1.1 0 0 0-1.6.7 1.7 1.7 0 0 0-.2 1 1.4 1.4 0 0 0 .2.8c.6 1 1.8.8 2.2-.4a2 2 0 0 0-.2-1.9 1.4 1.4 0 0 0-.4-.2zm-33.8-.7a3 3 0 0 1 0 .4L8 17h1.4v.3L9.2 19 9 20.7v.3h1v-.3l.2-1.9.1-1.6c0-.1 0-.2.7-.2h.7v-.3a1.7 1.7 0 0 1 0-.4l-1.8-.1H8v.2zm4.2 0l-.4 4.5c0 .2.1.1 1.8.1h1.8v-.1a3 3 0 0 1 0-.4v-.3H13V20v-1.1h2.5v-.2a2.4 2.4 0 0 1 0-.4v-.2h-1c-1.4 0-1.3.1-1.2-.6V17h2.5v-.2a2.4 2.4 0 0 1 0-.4v-.2h-3.4v.1zm4.4-.2l-.5 4.5v.3h1v-.3V19a11.2 11.2 0 0 1 .2-1.2l.8 1.5.8 1.6h.9v-.3l.4-4.4a1.5 1.5 0 0 0-.4 0h-.5l-.1 1.5-.2 1.6-.8-1.6-.8-1.5h-.4a1.6 1.6 0 0 0-.5 0zm4.6.3v-.3h1.2c1.4 0 1.6 0 2 .5a1 1 0 0 1 .2.8 1.4 1.4 0 0 1-.2.8c-.2.6-.5.7-1.4.8H22V21h-1v-.3l.1-2 .2-2.1zm2.2.6a2.7 2.7 0 0 0-.7-.1c-.7 0-.6 0-.7.8v.6h.6a3 3 0 0 0 .8-.1.7.7 0 0 0 0-1.2zm2.8-.5l.2-.4h1l.7 2.3.6 2.5h-.9l-.1-.3-.1-.6V20h-2l-.1.6-.2.5h-.5a1 1 0 0 1-.5 0l.9-2 1-2.4zm1 2.4l-.1-.9-.3-.9-.4 1-.5 1h.7c.5 0 .7 0 .7-.2zm1.6-2.6l.8 1.4.7 1.3V21h.9v-1.4c0-.3.2-.4 1-1.8l1-1.5h-.6a1.7 1.7 0 0 0-.6 0l-.6 1-.5 1-.2-.4-.5-1-.4-.7h-.5c-.5 0-.5 0-.4.2zm15.6 0l-.4 4.4v.2h.9l.1-1.5.2-2v-.4l.1 1 .3 1.9.2 1h.9l.7-1.9.6-1.9-.2 1.9-.2 1.8a1 1 0 0 0 .4 0h.5l.2-2.1.2-2.4v-.2h-1.4L47 18l-.6 1.6-.3-1.7-.2-1.5h-1.4zm-11.8 3.8a2 2 0 0 0 0 .4v.4h.4c.5 0 .5 0 .5-.6v-.3h-.9z" style="fill:#8d8e8e"/></svg>