<svg xmlns="http://www.w3.org/2000/svg" viewBox="0 0 128 44"><path fill="#009bde" d="M98.7 16c-.8-1-2.4-1.5-4.5-1.5h-6.1a.9.9 0 0 0-.9.7L84.8 31a.5.5 0 0 0 .5.6h3.1a.6.6 0 0 0 .6-.5l.7-4.5a.9.9 0 0 1 .9-.7h2c4 0 6.3-2 7-5.9a4.7 4.7 0 0 0-.9-4zM95 20.4c-.3 2.2-2 2.2-3.7 2.2h-.9l.6-4.2a.5.5 0 0 1 .5-.4h.5c1.1 0 2.2 0 2.7.6a2 2 0 0 1 .3 1.8zm17.7-.1h-3a.5.5 0 0 0-.5.4v.8l-.3-.3c-.6-.9-2-1.2-3.5-1.2a6.8 6.8 0 0 0-6.6 6 5.6 5.6 0 0 0 1.1 4.5 4.6 4.6 0 0 0 3.7 1.5 5.7 5.7 0 0 0 4.1-1.7l-.1.8a.5.5 0 0 0 .5.6h2.7a.9.9 0 0 0 .8-.7l1.6-10.1a.5.5 0 0 0-.5-.6zm-4.1 5.7a3.3 3.3 0 0 1-3.3 2.9 2.3 2.3 0 0 1-2.5-3 3.3 3.3 0 0 1 3.3-2.8 2.5 2.5 0 0 1 2 .8 2.5 2.5 0 0 1 .5 2.1zM120 15.1l-2.5 15.8a.9.9 0 0 1-.8.7H114a.5.5 0 0 1-.5-.6l2.5-16a.5.5 0 0 1 .5-.5h2.9a.5.5 0 0 1 .5.6zm-90 1.1c1 1.3 1.3 3 .9 5.1-1 5-4.3 6.7-8.6 6.7h-.7a1 1 0 0 0-1 1v.2l-.8 5.3v.2a1 1 0 0 1-1 .9h-4.6a.6.6 0 0 1-.6-.8l.3-2.2H8.7a.7.7 0 0 1-.7-.9l3.5-22.3a1.2 1.2 0 0 1 1.2-1h8.5c2.9 0 5.1.6 6.4 2a5.4 5.4 0 0 1 1.1 4.9 4.2 4.2 0 0 1 1.3 1z"/><path fill="#022169" d="M28.8 15.3l-.1.5c-1.1 5.7-5 7.7-9.8 7.7h-2.5a1.2 1.2 0 0 0-1.2 1v-.2L14 32.5H8.7a.7.7 0 0 1-.7-.9l3.5-22.3a1.2 1.2 0 0 1 1.2-1h8.5c2.9 0 5.1.6 6.4 2a5.4 5.4 0 0 1 1.1 4.9"/><path fill="#002f87" d="M54.8 16c-.9-1-2.4-1.5-4.5-1.5h-6.1a.9.9 0 0 0-.9.7L40.8 31a.5.5 0 0 0 .5.6h3a.9.9 0 0 0 .8-.7l.7-4.3a.9.9 0 0 1 .8-.7h2c4 0 6.4-2 7-5.9a4.7 4.7 0 0 0-.8-4zM51 20.4c-.3 2.2-2 2.2-3.7 2.2h-.9l.7-4.2a.5.5 0 0 1 .5-.4h.4c1.1 0 2.2 0 2.7.6a2 2 0 0 1 .3 1.8zm17.7-.1h-3a.5.5 0 0 0-.4.4l-.1.8-.3-.3c-.6-.9-2-1.2-3.4-1.2a6.8 6.8 0 0 0-6.6 6 5.6 5.6 0 0 0 1.1 4.5 4.6 4.6 0 0 0 3.7 1.5 5.7 5.7 0 0 0 4-1.7v.8a.5.5 0 0 0 .5.6h2.6a.9.9 0 0 0 .8-.7l1.6-10.1a.5.5 0 0 0-.5-.6zm-4.1 5.7a3.3 3.3 0 0 1-3.3 2.9 2.3 2.3 0 0 1-2.5-3 3.3 3.3 0 0 1 3.4-2.8 2.5 2.5 0 0 1 2 .8 2.5 2.5 0 0 1 .4 2.1zM84.9 21L75 35.2a.9.9 0 0 1-.7.4h-3a.5.5 0 0 1-.4-.8l3.1-4.3-3.3-9.6a.5.5 0 0 1 .5-.7h3a.9.9 0 0 1 .8.6l1.7 5.8 4-6a.9.9 0 0 1 .8-.4h3a.5.5 0 0 1 .4.8zM27.6 10.5a5.4 5.4 0 0 1 1.2 4.8 6 6 0 0 0-1-.4h-.2l-.5-.2-.6-.1a13.8 13.8 0 0 0-2.2-.2h-6.6a1 1 0 0 0-1 1l-1.4 8.8-1.3 8.4H8.7a.7.7 0 0 1-.7-.9l3.5-22.3a1.2 1.2 0 0 1 1.2-1h8.5c2.9 0 5.2.6 6.4 2z"/></svg>