<svg xmlns="http://www.w3.org/2000/svg" viewBox="0 0 128 128"><defs><radialGradient id="a" cx="-121.4" cy="327.7" r="103.2" gradientTransform="matrix(1 0 0 -1 149.05 368.31)" gradientUnits="userSpaceOnUse"><stop offset="0" stop-color="#9dd5f6"/><stop offset=".1" stop-color="#98d3f5"/><stop offset=".2" stop-color="#89cef3"/><stop offset=".3" stop-color="#70c6ef"/><stop offset=".3" stop-color="#4ebbea"/><stop offset=".5" stop-color="#23ade3"/><stop offset=".5" stop-color="#0da6e0"/><stop offset="1" stop-color="#2e77bc"/></radialGradient></defs><rect x="8" y="28" width="112" height="72" rx="4" ry="4" style="fill:url(#a)"/><path d="M15.9 49.1l2.1 5.3h-4.2zm19.5 13.5h-5.5l-.9-2.3v2.3H18.4l-1.1-3h-2.8l-1.2 3H8V53l3.8-8.7H20l1 2.2v-2.2h9.6l2 4.7 2-4.7h30.5a5.2 5.2 0 0 1 3.5 1v-1H77v1a10.8 10.8 0 0 1 5.3-1h12l1.1 2.2v-2.2h9l1.2 2.2v-2.2h8.7v18.3h-8.8l-1.7-2.8v2.8h-11l-1.2-3h-2.7l-1.2 3H82a10.7 10.7 0 0 1-5-1.1v1H63.4v-4c0-.7 0-.7-.5-.7h-.5v4.8h-26v-2.3zm40.5-9c0 2.4.5 3.9 1.6 5a6.6 6.6 0 0 0 4.6 1.4h3.6l1.2-3h6.5l1.2 3h6.4v-9.8l6 9.8h4.4V47h-3.2v9l-5.5-9.1h-4.8v12.4l-5.3-12.4h-4.7l-4.4 10.3h-1.4a3 3 0 0 1-2.2-.7 4.5 4.5 0 0 1-.9-3 4.3 4.3 0 0 1 1-3 3 3 0 0 1 2.4-.8h3v-2.8h-3c-2.2 0-3.8.5-4.8 1.5a7 7 0 0 0-1.7 5.2zM71 60h3.2V47h-3.2zm-14.4 0H60v-4.8h3.3a3 3 0 0 1 2.3.6 4 4 0 0 1 .5 2.6V60h3.2v-2.6a3.8 3.8 0 0 0-.6-2.4 3.6 3.6 0 0 0-1.5-1 3.7 3.7 0 0 0 2.2-3.6 3 3 0 0 0-1.6-2.9A7.4 7.4 0 0 0 64 47h-7.2zm-12.6 0h10.5v-2.7h-7.4v-2.6h7.2V52h-7.1v-2.4h7.3V47H44zM34 60l4.5-10.3V60h3.2V47h-5.1l-3.8 8.8-4-8.9h-5.2v12.4L18.3 47h-4.7L8 60h3.4l1.2-3h6.5l1.3 3h6.3V49.7L31.3 60zm31.2-7.7a1.3 1.3 0 0 0 .7-1.3 1.2 1.2 0 0 0-.7-1.2 3.2 3.2 0 0 0-1.5-.2H60v3h3.8a2.9 2.9 0 0 0 1.5-.3zm25-3.2L88 54.4h4.3zM120 78.4zM63.4 72h-4.1v3.4h4c1.2 0 2-.6 2-1.7s-.8-1.6-2-1.6zm-27.3 0v2.4H43v2.7h-7v2.6h7.8l3.6-3.8-3.5-3.8zm42.5.3a3 3 0 0 0-1.5-.3h-3.8v3H77a3 3 0 0 0 1.5-.3 1.4 1.4 0 0 0 .7-1.2 1.3 1.3 0 0 0-.7-1.2zm-22.4 9V70.8L51.4 76zm63.4-9.1h-6a2.2 2.2 0 0 0-1.2.2 1 1 0 0 0-.5 1 1 1 0 0 0 .7 1 3.6 3.6 0 0 0 1.2.1h1.7c1.7 0 2.8.4 3.5 1a3 3 0 0 1 .3.4 3.8 3.8 0 0 1 .6 2.3v-6zm-11 1c0 4.2 3.6 4 6.6 4.1a1.6 1.6 0 0 1 1 .3 1 1 0 0 1 .4.9 1.1 1.1 0 0 1-.3.9 1.8 1.8 0 0 1-1.3.3h-6v2.8h6a5.1 5.1 0 0 0 4-1.4 3 3 0 0 0 .2-.3 4.3 4.3 0 0 0 .7-2.5v5.3a2.4 2.4 0 0 1-.7.6h-.1a11.2 11.2 0 0 1-4.4.7h-8.1v-1a7.3 7.3 0 0 1-4.3 1.1H76.8V81c0-.5 0-.6-.6-.6h-.4v4.8h-8.4v-5a10.6 10.6 0 0 1-4.3.7h-1v4.3H51.9l-2.5-2.8-2.7 2.8H30V66.8H47l2.4 2.8 2.6-2.8h11.3c1.3 0 3.5.2 4.4 1.1v-1h10.1a8.1 8.1 0 0 1 4.2 1v-1h15.3v1a6 6 0 0 1 3.7-1h8.6v1a6.5 6.5 0 0 1 4-1h6.4v2.5h-6.9c-3.3 0-4.5 2-4.5 4zm-40 .5c0-3.6-2.8-4.3-5.3-4.3h-10l-4 4.3-3.9-4.3H33v13h12.4l4-4.3 3.9 4.4h6v-4.4h3.9c2.7 0 5.5-.8 5.5-4.4zm11.8 2.7a3.7 3.7 0 0 0 2.3-3.5 3 3 0 0 0-1.6-3 7.8 7.8 0 0 0-3.7-.5H70v13h3.2v-4.7h3.3a3 3 0 0 1 2.3.5c.6.7.5 1.8.5 2.6v1.6h3.2V80a3.8 3.8 0 0 0-.6-2.4 3.4 3.4 0 0 0-1.5-1zm14.4-7H84.5v13.1h10.4v-2.8h-7.3v-2.6h7.1v-2.7h-7.1v-2.3h7.3zm13 9a3.6 3.6 0 0 0-1-2.8c-.7-.7-1.9-1-3.6-1h-1.7a3.6 3.6 0 0 1-1.2-.2 1.1 1.1 0 0 1-.2-1.9 2.1 2.1 0 0 1 1.2-.2h5.8v-3h-6.3c-3.3 0-4.5 2-4.5 4 0 4 3.7 4 6.6 4a1.6 1.6 0 0 1 1.1.3 1.1 1.1 0 0 1 .4.9 1.2 1.2 0 0 1-.4.8 1.8 1.8 0 0 1-1.2.3h-6v2.8h6c3.2 0 5-1.3 5-4z" style="fill:#fff"/></svg>