<svg xmlns="http://www.w3.org/2000/svg" viewBox="0 0 128 128"><path d="M83.6 90.2h-8.7a1.2 1.2 0 0 0-1.2 1L70 113.5a.7.7 0 0 0 .8.8h4.4a.8.8 0 0 0 .9-.7l1-6.3a1.2 1.2 0 0 1 1.2-1H81c5.8 0 9-2.8 10-8.3.3-2.4 0-4.3-1.2-5.6s-3.4-2.2-6.3-2.2zm1 8.1c-.5 3.1-2.9 3.1-5.2 3.1h-1.3l.9-5.8a.7.7 0 0 1 .7-.6h.6c1.6 0 3 0 3.8.9a3 3 0 0 1 .5 2.4zm25 0h-4.2a.7.7 0 0 0-.7.5l-.2 1.2-.3-.4c-.9-1.3-2.9-1.8-5-1.8a9.6 9.6 0 0 0-9.2 8.4 7.9 7.9 0 0 0 1.6 6.4 6.5 6.5 0 0 0 5.2 2.1 8 8 0 0 0 5.8-2.4l-.2 1.2a.7.7 0 0 0 .7.8h3.8a1.2 1.2 0 0 0 1.2-1l2.2-14.2a.7.7 0 0 0-.7-.9zm-5.8 8a4.7 4.7 0 0 1-4.7 4 3.2 3.2 0 0 1-3.5-4 4.7 4.7 0 0 1 4.7-4 3.5 3.5 0 0 1 2.8 1.1 3.6 3.6 0 0 1 .7 3zm11.4-16.1h4a.7.7 0 0 1 .8.8l-3.5 22.3a1.2 1.2 0 0 1-1.2 1h-3.6a.7.7 0 0 1-.8-.8l3.6-22.8a.7.7 0 0 1 .8-.5zm-24-63.8c.8-5.7 0-9.5-3-13C84.8 9.6 78.7 8 71 8H48.5a3.2 3.2 0 0 0-3.2 2.7L36 70a2 2 0 0 0 1.9 2.2h13.9l-1 6.1a1.7 1.7 0 0 0 1.6 2h11.8a2.8 2.8 0 0 0 2.7-2.4l.1-.6 2.2-14 .2-.8a2.8 2.8 0 0 1 2.8-2.3h1.7c11.3 0 20.2-4.6 22.8-18 1-5.5.5-10.2-2.3-13.4a11.1 11.1 0 0 0-3.2-2.5" style="fill:#009bde"/><path d="M91.2 26.4l-.3 1.3C88 42.9 78 48 65 48h-6.6a3.2 3.2 0 0 0-3.2 2.8l.1-.7-3.4 22h-14A2 2 0 0 1 36 70l9.3-59.3A3.2 3.2 0 0 1 48.6 8H71c7.7 0 13.8 1.6 17.1 5.5 3 3.4 4 7.2 3 12.9" style="fill:#022169"/><path d="M21.4 90.2h-8.7a1.2 1.2 0 0 0-1.2 1L8 113.5a.7.7 0 0 0 .7.9H13a1.2 1.2 0 0 0 1.2-1l1-6a1.2 1.2 0 0 1 1.2-1H19c5.7 0 9-2.8 10-8.3.3-2.4 0-4.3-1.2-5.6s-3.4-2.3-6.4-2.3zm1 8.1c-.4 3.1-2.8 3.1-5.1 3.1H16l1-5.8a.7.7 0 0 1 .6-.6h.6c1.6 0 3 0 3.8.9a3 3 0 0 1 .4 2.4zm25 0h-4a.7.7 0 0 0-.8.5l-.2 1.2-.3-.4c-.9-1.3-2.9-1.8-5-1.8a9.6 9.6 0 0 0-9.2 8.4 7.9 7.9 0 0 0 1.5 6.4 6.5 6.5 0 0 0 5.3 2.2 8 8 0 0 0 5.8-2.4l-.2 1.1a.7.7 0 0 0 .7.9h3.7a1.2 1.2 0 0 0 1.2-1L48.2 99a.7.7 0 0 0-.7-.8zm-5.8 8a4.7 4.7 0 0 1-4.7 4 3.2 3.2 0 0 1-3.4-4 4.7 4.7 0 0 1 4.6-4 3.5 3.5 0 0 1 2.9 1 3.6 3.6 0 0 1 .7 3zm28.7-7l-14 20.2a1.2 1.2 0 0 1-1 .5h-4.1a.7.7 0 0 1-.6-1.1l4.3-6.2-4.6-13.5a.7.7 0 0 1 .7-1H55a1.2 1.2 0 0 1 1.2.8l2.4 8.2 5.8-8.5a1.2 1.2 0 0 1 1-.5h4.2a.7.7 0 0 1 .6 1.1zm-15-49.1l-3.5 22h-14A2 2 0 0 1 36 70l9.3-59.3A3.2 3.2 0 0 1 48.6 8H71c7.7 0 13.8 1.6 17.1 5.5 3 3.4 4 7.2 3 12.9a15.9 15.9 0 0 0-2.4-1l-.7-.2q-.6-.3-1.4-.4t-1.4-.3a36.7 36.7 0 0 0-5.9-.4H61.8a2.8 2.8 0 0 0-2.8 2.3z" style="fill:#002f87"/></svg>