<svg xmlns="http://www.w3.org/2000/svg" viewBox="0 0 128 60"><path d="M37.7 8v43.2l-.9.1h-2.6a4 4 0 0 1-2.7-1l-.7-.7-.7-.7a10.6 10.6 0 0 1-1.8 1.3 13.4 13.4 0 0 1-2 .8 6.5 6.5 0 0 1-2.3.5 14.2 14.2 0 0 1-2.3.2 27.2 27.2 0 0 1-4.8-.8 11.1 11.1 0 0 1-4.1-2.4 11.2 11.2 0 0 1-3.3-4.4A18.9 18.9 0 0 1 8 38.7a21 21 0 0 1 .3-5.9 15.8 15.8 0 0 1 2.2-5.5 11.9 11.9 0 0 1 3.8-4c1.5-1 3.2-2.2 5.1-2.4a16 16 0 0 1 8.7 1.2 4.8 4.8 0 0 1 1.2 1.5V11.8a3.5 3.5 0 0 1 4-3.8zm-9 32.5l.2-.3a.4.4 0 0 1-.2.3.5.5 0 0 1-.1.3l.1-.3a5.2 5.2 0 0 0 .4-1.4 15.1 15.1 0 0 0 .3-2.6 10.2 10.2 0 0 0-.3-2.9 8.5 8.5 0 0 0-1-2.6 4.8 4.8 0 0 0-1.8-1.9 5.8 5.8 0 0 0-2.7-.7 9 9 0 0 0-2.8.4 4.9 4.9 0 0 0-2.1 1.5 10.5 10.5 0 0 0-1.4 2.5 8.8 8.8 0 0 0-.6 2.8 10.1 10.1 0 0 0 .2 2.8 6 6 0 0 0 1 2.6 9 9 0 0 0 1.8 2.2 4 4 0 0 0 2.4 1 15.9 15.9 0 0 0 2.6-.2 5.3 5.3 0 0 0 4-3.6zm28.7-20.7c12 0 14.3 9.2 14.3 18.5l-20.5-.1a5.7 5.7 0 0 0 .7 2.6 5.6 5.6 0 0 0 1.6 1.9 7.7 7.7 0 0 0 2.3 1.2 9.6 9.6 0 0 0 2.8.4 15.7 15.7 0 0 0 6.5-1.5c1.3-.8 3-.4 3.4 1.1l1.2 4.3a22.6 22.6 0 0 1-11.2 3.2c-9 0-16-5.4-16-15.7 0-8.8 5.2-16 14.9-16zm6.9 12.6c0-3.3-3-5.9-6.5-5.9S51 28.8 51 32.8l5-.4zm13.6-9.2s6-3.3 11.8-3.3c9 0 13.4 4.1 13.4 12.4v19.2h-3c-3 0-5-1.8-5-3.5a2.4 2.4 0 0 1-.5.7l-.6.7a10.6 10.6 0 0 1-2.8 1.8 11.2 11.2 0 0 1-4.5.8 12.7 12.7 0 0 1-3.8-.7 13.6 13.6 0 0 1-3.5-1.8 10.8 10.8 0 0 1-2.5-3 10.2 10.2 0 0 1-1-4.2 8.2 8.2 0 0 1 2.1-5.8 11.8 11.8 0 0 1 5-3.1 22.9 22.9 0 0 1 6-1.4l5.2-.3h.4a6 6 0 0 0-1-4c-.7-.7-2.5-1-4.3-1a12.3 12.3 0 0 0-6.8 1.8c-.8.5-2.6.3-3.6-2.1a13 13 0 0 1-1-3.2zm10.6 22a5.7 5.7 0 0 0 2.6-.7 6 6 0 0 0 2-1.7 13 13 0 0 0 1.4-2.3 8.6 8.6 0 0 0 .4-2.6v-.1h-.8a26.6 26.6 0 0 0-3.3 0 10.8 10.8 0 0 0-3 .8 4.9 4.9 0 0 0-2.2 1.2 2.9 2.9 0 0 0-.8 2.2 3.4 3.4 0 0 0 .8 2.2c.3.5 1.4 1 2.9 1zM120 8v43.2h-9V12.9a6.2 6.2 0 0 1 1-3.7 5 5 0 0 1 3.6-1.2z"/></svg>