<svg xmlns="http://www.w3.org/2000/svg" viewBox="0 0 85 128"><path d="M65.7 56.4a11.3 11.3 0 0 0-3.7-6.3 9.4 9.4 0 0 0-2.2-1.6 9.5 9.5 0 0 0-5-1.2 7.1 7.1 0 0 1 3-.4 14.6 14.6 0 0 1 2.6.6l2 1.1c1.7-5 1-11.7-.8-16a28.8 28.8 0 0 0-7.9-11.4A26.2 26.2 0 0 0 41 14.7a21.2 21.2 0 0 0-8.4 0 18.8 18.8 0 0 0-6.4 3.2 19.1 19.1 0 0 0-4.4 5.1 10.7 10.7 0 0 0-1 1.5l-.7 1.7a23.4 23.4 0 0 0-1.1 3.7 23.8 23.8 0 0 0-.3 8.5 28 28 0 0 0 2 7.5l1.7 3.2a30.8 30.8 0 0 0 2 2.8 28.5 28.5 0 0 0 5.1 4.5A28 28 0 0 0 44 61c.1-.2-.2-.7-.2-1l-.3-1.2a11 11 0 0 1 0-2.6c.3.1.3.4.4.6s.2.4.4.4a8.5 8.5 0 0 0 .7 1 9.4 9.4 0 0 0 1.8 1.8 12.7 12.7 0 0 0 2 1.5 12.5 12.5 0 0 0 2.3 1.1 18.2 18.2 0 0 0 5.6 1.4c2 .2 4 .6 5.8 1a22.6 22.6 0 0 1 4.9 2 19.7 19.7 0 0 1 2.1 1.4 5.7 5.7 0 0 1 1 .7c.4.2.6.6 1 .7a31.4 31.4 0 0 1 3.4 3.6 16.3 16.3 0 0 1 1.3 2.2c.2.3.3.8.6 1 0 .5.4 1 0 1.4-.5 0-.4-.5-.6-.8a4.5 4.5 0 0 1-.6-.9c-.9-1-1.7-2-2.6-2.8a21 21 0 0 0-3-2.3 23 23 0 0 0-7.5-3.4 28.3 28.3 0 0 0-9.7-.9 21.9 21.9 0 0 0-4.5 1 42.4 42.4 0 0 1-4.7.8 38.8 38.8 0 0 1-17.8-3.4 28 28 0 0 1-6.7-4.1 21 21 0 0 1-2.8-2.7 17.6 17.6 0 0 1-2.3-3 30.3 30.3 0 0 1-2-3.6 31.2 31.2 0 0 1-1.4-4 20 20 0 0 1-.9-4.5l-.2-2v-.3a7.2 7.2 0 0 1 0-2.2 22.8 22.8 0 0 1 .6-4.7 27.6 27.6 0 0 1 1.2-4.3c.4-1.4 1-2.6 1.6-3.9l1-1.7 1-1.6c.2-.2.3-.6.6-.8s.4-.5.5-.8a2.6 2.6 0 0 0 .6-.8 2.3 2.3 0 0 0 .6-.8L20 17l3-2.5 1.7-1c.7-.3 1.1-.7 1.6-1a39.1 39.1 0 0 1 3.7-1.8 29.8 29.8 0 0 1 4-1.5A32.5 32.5 0 0 1 43.4 8h.3a30.1 30.1 0 0 1 16.2 5 28.6 28.6 0 0 1 9.9 11.3A29.5 29.5 0 0 1 72.2 42a35.4 35.4 0 0 1-2.5 8 36.1 36.1 0 0 1-2 3.5 10 10 0 0 1-1 1.6 3.2 3.2 0 0 1-.5.7 3.8 3.8 0 0 1-.3.4s0 .2-.2.2 0 .1 0 0zm-1.5.6a4.7 4.7 0 0 0-.9-1.9c-.3 0-.5-.3-.8-.1h-.1a1.8 1.8 0 0 0 0 1.1c.4.9.5 2 1.4 2.3.5-.1.4-.8.4-1.4zm-8.5.7A2.3 2.3 0 0 0 58 61a1.6 1.6 0 0 0 1.3-1.4c0-1.5-.7-2.4-2-2.5 0 0-.1-.1-.1 0-.8-.1-1 .3-1.5.6z" style="fill-rule:evenodd;fill:#f18b00"/><path d="M20.6 107.4a5 5 0 0 0 1.2 2.2 6.3 6.3 0 0 0 1.9 1.5 9.1 9.1 0 0 0 2.3 1.1 5.7 5.7 0 0 0 1.4.4c.3.2.8.3.8.8s-.4.9-1 1a9.1 9.1 0 0 1-1.7-.3 14.1 14.1 0 0 1-3-.8 14 14 0 0 1-4.7-3L17 109l-.8-1.4a9.5 9.5 0 0 1-5.1-2.5 10.8 10.8 0 0 1-2.7-5.4 15.6 15.6 0 0 1 .3-7c1.2-4 3.8-6.7 8.8-7a11.7 11.7 0 0 1 3.7.5 9 9 0 0 1 3 2 .7.7 0 0 1 .1 0l.8 1 .1.2.3.3.1.2.2.4.2.1.3.9.4.8a15 15 0 0 1 .6 3 13.3 13.3 0 0 1-1.5 7.8 8.5 8.5 0 0 1-2.2 2.6 11.3 11.3 0 0 1-3 1.8zm-3.7-19a6 6 0 0 0-1.6.6 5.7 5.7 0 0 0-1 1c-.5.2-.6.8-1 1.1a13 13 0 0 0-.7 2.5 17.1 17.1 0 0 0-.3 3 12.5 12.5 0 0 0 1.6 6.7 6.7 6.7 0 0 0 2.2 1.8c.6 0 1 .3 1.6.3.3-.2.8 0 1-.3.5 0 .6-.2 1-.3a2.4 2.4 0 0 1 .8-.5l.8-1 .5-.6c1.3-2.5 1.5-7.1.6-10a8.8 8.8 0 0 0-1.3-2.7 7.3 7.3 0 0 0-2-1.4 6.3 6.3 0 0 0-2-.3v.1zm15.8-1.9v20.7a4.6 4.6 0 0 0 2 .1 9.5 9.5 0 0 0 2 0 2 2 0 0 0 .1-1.2v-1.3-17.2a2.1 2.1 0 0 0-.2-1.2 34.4 34.4 0 0 0-3.6-.1.4.4 0 0 0-.3.2zm9.2 0c-.2 1 .4 1.8.5 2.7s.5 1.7.8 2.6l1.5 5.2 1.4 5.3c.4.8.5 1.7.8 2.6s.4 1.8 1 2.4a12.1 12.1 0 0 0 2 0c.6-1 .7-2.2 1.2-3.2a33.3 33.3 0 0 1 1-3.3c.3-1.2.8-2.2 1-3.4a16.6 16.6 0 0 0 .6-1.6c.3-.5.2-1.2.6-1.6l3.3 9.9c.5 1 .7 2.3 1.2 3.2h2.1a12.6 12.6 0 0 0 .9-2.4l.7-2.7L64 97l1.5-5.2.7-2.6a7 7 0 0 0 .6-2.7 13 13 0 0 0-3.1 0 24 24 0 0 0-1 3.5L61 97a12 12 0 0 0-.4 1.7 11.5 11.5 0 0 1-.6 1.8c-.6-2.4-1.4-4.8-2.2-7.1l-1-3.6c-.5-1.1-.7-2.5-1.3-3.5H54c-.6 1-.7 2.3-1.2 3.4l-1 3.6-1.1 3.6c-.3.5-.4 1.2-.6 1.7 0 .4-.2.6-.3 1l-.1.4c-.1 0 0 .4-.3.3l-3-12.3a4.2 4.2 0 0 0-.6-1.7H42a.6.6 0 0 0-.2.1zm30 0a8 8 0 0 0 0 2.5v15.7a7.8 7.8 0 0 0 0 2.5c.3.2.6.1 1 .1a21.2 21.2 0 0 0 3 0 7.9 7.9 0 0 0 0-2.5v-16a7.9 7.9 0 0 0 0-2.4 34.4 34.4 0 0 0-3.8-.1.6.6 0 0 0-.1.1zM50.9 116a4.2 4.2 0 0 1 1.3.8 2.6 2.6 0 0 1 .2 2c-.7 1.3-3 1.4-4.8 1v-6.9a5.4 5.4 0 0 1 2.2-.2 7.3 7.3 0 0 1 1.4.3 1.8 1.8 0 0 1 .8 2c-.3.4-.5.8-1.1 1zm0-1c.2-1.5-1-1.8-2.2-1.6v2.4c1.1.1 1.9-.2 2.2-.9zm.4 3.5c.4-1.6-1-2.3-2.5-2a18.9 18.9 0 0 0-.1 2.7c1.1.1 2.1 0 2.6-.7zm-18.5-5.8a67.3 67.3 0 0 0 0 7.2h1a31.4 31.4 0 0 1 .1-3.5c.3.6.9 1.1 1.2 1.8s.9 1.2 1.3 1.7h1.3a9.3 9.3 0 0 0-1.4-2c-.4-.8-1-1.3-1.4-2 .3-.6.8-1 1.2-1.6a8.1 8.1 0 0 0 1-1.6h-.7c-.6.3-.8 1-1.3 1.4a2 2 0 0 1-.6.8c0 .2-.2.2-.4.3s-.2.5-.3.3a21.7 21.7 0 0 0 0-2.8zM44 120h.8v-7.1c-.4 0-1-.1-1 .3a1.9 1.9 0 0 0-.5.8c-.5.4-.7 1-1.1 1.4a14.5 14.5 0 0 1-1.1 1.5l-.5.8a3.2 3.2 0 0 1-.3.4s-.2.4-.3.2v-5.4h-.8a68.4 68.4 0 0 0 0 7.1h1l3.7-5.1s.1 0 0 0l.1 5.1zm10.5-7.1a68.4 68.4 0 0 0 0 7.1c1 .2 1-.7 1.5-1a10 10 0 0 1 1-1.5l1.2-1.6.5-.7.2-.4.2-.1c0-.1 0-.3.1-.1v5.4h.9a68.4 68.4 0 0 0 0-7.2h-1l-1.9 2.6a11.9 11.9 0 0 0-.9 1.4l-.5.6c-.2.2 0 .3-.2.3s-.2.4-.3.2v-5c-.1-.1-.5 0-.8 0z" style="fill:#0d61ab;fill-rule:evenodd"/></svg>