<svg xmlns="http://www.w3.org/2000/svg" viewBox="0 0 128 128"><rect x="10" y="30" width="108" height="68" style="fill:#fff"/><path d="M116 32v64H12V32h104m0-4H12a4 4 0 0 0-4 4v64a4 4 0 0 0 4 4h104a4 4 0 0 0 4-4V32a4 4 0 0 0-4-4z" style="fill:#bdbdbd"/><path d="M30.1 80.5c5.8 0 6.7-4 6.7-5.7 0-2.8-2.3-5.6-6.5-5.6h-4.8v.4c.8 0 1.6-.1 1.6 1.4v7.8c0 1.2-.5 1.2-1.5 1.3v.4H30zm-1.4-10.8H30a4.9 4.9 0 0 1 5 5.2c0 2.4-1.1 5.1-4.6 5.1-.8 0-1.7-.1-1.7-1.4zm10.5 10.8h-1.8V80h.3c.5 0 .8 0 .8-.5v-4.4c0-.7-.2-.8-.9-1.1v-.3a19 19 0 0 0 1.8-.6.6.6 0 0 1 .3 0v6.4c0 .6.4.6.9.6h.3v.4h-1.7zm-.9-10.8a.8.8 0 0 1 .8-.7.8.8 0 0 1 .8.7.8.8 0 0 1-.8.9.8.8 0 0 1-.8-.8zm11.2 10.8H46v-.4h.3c.5 0 .8 0 .8-.6v-4.2c0-.9-.6-1.3-1.5-1.3a4.3 4.3 0 0 0-1.9.7v4.8c0 .6.4.6.8.6h.3v.4h-3.5v-.4h.3c.5 0 .8 0 .8-.6v-4.3c0-.6-.2-.7-1-1v-.3a22 22 0 0 0 2.2-.8l.1.1v1a4.8 4.8 0 0 1 2.8-1.1c1.4 0 2 1 2 2.3v4.2c0 .5.3.5.7.5h.3zm3 .2a3.8 3.8 0 0 0 3-1.8l-.2-.2a3.1 3.1 0 0 1-2.2 1 2.7 2.7 0 0 1-2.3-2.7 4 4 0 0 1 0-1h4.7a1.9 1.9 0 0 0 0-.3 2.6 2.6 0 0 0-2.8-2.6c-1.1 0-3.3 1-3.3 4.2 0 1 .6 3.5 3.2 3.5zm.1-7.1a1.4 1.4 0 0 1 1.5 1.5c0 .2 0 .4-.5.4h-2.8c.2-1.2.9-2 1.9-2zm5.2 6.9h-2V80h.5c.4 0 .7 0 .7-.5V75c0-.5-.6-.6-.8-.7V74l2-1c.2 0 .1 0 .1.3v1.4c.4-.6 1.1-1.6 2.1-1.6a.9.9 0 0 1 1 .8.8.8 0 0 1-.8.8c-.5 0-.5-.3-1.1-.3a1.4 1.4 0 0 0-1.2 1.3v3.8c0 .6.3.6.8.6h.9v.4zm7.7-1.4c0-2-3.6-1.3-3.6-4a2.2 2.2 0 0 1 2.5-2 4.3 4.3 0 0 1 1.9.4v1.7H66a1.7 1.7 0 0 0-1.8-1.6 1.1 1.1 0 0 0-1.2 1c0 2 3.8 1.4 3.8 4 0 1-.9 2.1-2.8 2.1a4.3 4.3 0 0 1-2-.5l-.2-1.9h.3a2.1 2.1 0 0 0 2 2 1.1 1.1 0 0 0 1.4-1.2zm12 1.6c-3.9 0-6.3-2.4-6.3-6a6 6 0 0 1 6.2-5.8 11.7 11.7 0 0 1 3.9.8l.1 2.4H81c-.3-2-1.7-2.7-3.5-2.7S73 70.7 73 74.6c0 3.3 2.3 5.6 4.8 5.6a3.3 3.3 0 0 0 3.3-2.8l.4.1L81 80a9.1 9.1 0 0 1-3.6.8zm6.3-.2H82V80h.3c.5 0 .8 0 .8-.5v-9c0-1-.3-1.1-.9-1.3V69a10.3 10.3 0 0 0 1.7-.7 1.7 1.7 0 0 1 .4-.2V79.5c0 .6.5.6.9.6h.3v.4h-1.7zm1.7-6.8v-.3l2-.1c.3 0 .2.1.2.5V78c0 .5 0 1.9 1.5 1.9a3.6 3.6 0 0 0 2-1v-4.4c0-.3-.8-.5-1.4-.7v-.3c1.4 0 2.4-.2 2.5-.2l.2.3v6c0 .3.1.3.4.3h.7v.3a16.4 16.4 0 0 0-2.4.5v-1.3a4.4 4.4 0 0 1-3 1.3 1.8 1.8 0 0 1-1.7-1.9v-4.1c0-.5 0-.9-1-1zm8.9-3.2v7a19.1 19.1 0 0 1-.3 2.9l.4.1.5-.3a4.8 4.8 0 0 0 2.2.6 4.1 4.1 0 0 0 4-4.3 3.2 3.2 0 0 0-3-3.4 4.1 4.1 0 0 0-2.5 1.1v-5.9l-.1-.2a1.8 1.8 0 0 0-.4.1 10.2 10.2 0 0 1-1.7.7v.3c.7.2 1 .2 1 1.3zm1.3 4.2a2.5 2.5 0 0 1 1.5-.8c1.3 0 2.6 1.5 2.6 3.3 0 1.4-.7 3.1-2.5 3.1a1.8 1.8 0 0 1-1.6-1.6zM28.3 84v.3H28c-.3 0-.6 0-.6.5v4.7c0 .4.3.4.6.4h.2v.4h-2.7v-.4h.1c.3 0 .6 0 .6-.5v-4.6c0-.4-.2-.4-.6-.5h-.1V84h2.7zm7.4 0v.3h-.1c-.4 0-.7 0-.8 1.1v4a5.9 5.9 0 0 0 .1 1h-.4l-4.5-5v3.5c0 .7.1 1 .8 1h.2v.3h-2.3V90h.1c.6 0 .8-.4.8-1.1V85a.8.8 0 0 0-.8-.7h-.1V84h1.8l3.9 4.4V85c0-.6-.5-.7-.8-.7h-.2V84h2.3zm6.2-.3h.3l-.1.7v.7l-.3.2c0-.4-.1-.9-.7-.9h-1.4v4.8c0 .7.2.7.7.7h.2v.4h-2.9v-.4h.2c.5 0 .6 0 .7-.7v-4.7H37c-.7 0-.7.2-.8.8h-.4l.1-.7a5 5 0 0 0 0-.8h.4c0 .2.2.2.4.3h4.6c.3 0 .5 0 .5-.3zm5.3 5l.3.1-.3 1.4h-4.8V90h.2c.3 0 .6 0 .6-.5v-4.6c0-.4-.3-.4-.6-.5h-.2V84H47v1.3l-.3.1c0-.5-.1-1-1-1h-1.2v2.3h1c.5 0 .6-.3.6-.8h.4v2H46c-.1-.5-.1-.8-.7-.8h-1v2c0 .6.5.6 1 .6 1 0 1.5 0 1.8-1zm5.9.7l-1.5-2.2a1.7 1.7 0 0 0 1.2-1.6c0-1.3-1-1.6-2.2-1.6h-2.8v.4h.2c.3 0 .6 0 .6.6v4.5c0 .3-.3.4-.6.4h-.2v.4h2.8v-.4h-.2c-.4 0-.7 0-.7-.7v-1.8h.5a24.8 24.8 0 0 0 1.9 2.9H53.8v-.4a1 1 0 0 1-.7-.5zm-1.6-3.7c0 1-.4 1.3-1.3 1.3h-.4v-2.6a3.5 3.5 0 0 1 .5 0 1.2 1.2 0 0 1 1.2 1.3zm9.8-1.3h-.1c-.4 0-.8 0-.8 1v4a5.6 5.6 0 0 0 0 1H60l-4.4-5v3.5c0 .8 0 1 .7 1h.2v.3h-2.3V90h.2c.5 0 .7-.4.7-1.1v-3.7a.8.8 0 0 0-.8-.7h-.1V84H56l3.9 4.4V85c0-.6-.5-.7-.7-.7h-.3V84h2.3v.3zm5.5 5.2l-.3-.9-1.6-4.6-.1-.3a.1.1 0 0 0-.1 0 4.6 4.6 0 0 1-.9.4 10.4 10.4 0 0 1-.3 1.1l-1.5 4a.8.8 0 0 1-.7.6h-.1v.4h2v-.4c-.4 0-.7 0-.7-.3a3.7 3.7 0 0 1 .2-.6l.3-1h2l.3 1a2.8 2.8 0 0 1 .2.7c0 .2-.3.2-.5.2h-.2v.4H67.4v-.4h-.1a.5.5 0 0 1-.5-.3zm-2-2h-1.6L64 85zm7.9-3.9h.2v1.5h-.4c0-.3 0-.8-.6-.8h-1.5v4.8c0 .7.3.7.7.7h.3v.4h-3v-.4h.2c.5 0 .7 0 .7-.7v-4.7h-1.5c-.6 0-.6.2-.8.8h-.3l.1-.7a5.1 5.1 0 0 0 0-.8h.3c.1.2.3.2.5.2h4.6c.2 0 .4 0 .4-.2zm3.2.3v.3h-.1c-.3 0-.6 0-.6.5v4.7c0 .4.3.4.6.4h.2v.4h-2.7v-.4h.2c.3 0 .6 0 .6-.4v-4.7c0-.4-.3-.4-.6-.5h-.2V84h2.6zm3.5-.1a3.3 3.3 0 0 0-3.3 3.3 3.2 3.2 0 0 0 3.4 3.2 3.3 3.3 0 0 0 3.4-3.4 3.1 3.1 0 0 0-3.5-3.1zm.2 6c-1.4 0-2.1-1.5-2.1-3 0-1.2.4-2.6 2-2.6s2 1.6 2 2.9-.2 2.7-2 2.7zm10.6-5.6H90c-.3 0-.7 0-.7 1.1v4a5.8 5.8 0 0 0 0 1H89l-4.5-5v3.5c0 .7.1 1 .8 1h.2v.3H83V90h.2c.6 0 .8-.4.8-1.1v-3.7a.8.8 0 0 0-.8-.7H83V84h1.8l4 4.4V85c0-.6-.6-.7-.8-.7h-.3V84H90v.3zm5.5 5.3l-.3-1-1.6-4.5-.1-.3a.1.1 0 0 0-.1 0h-.1a4.8 4.8 0 0 1-.8.4 11 11 0 0 1-.4 1L91 89.4a.8.8 0 0 1-.7.6H90v.3h2V90c-.4 0-.7 0-.7-.3a3.7 3.7 0 0 1 .2-.6l.3-1h2l.3 1a2.8 2.8 0 0 1 .2.7c0 .2-.3.2-.5.2h-.2v.3H96.3V90h-.1a.5.5 0 0 1-.5-.3zm-2-2.1H92l.8-2.4zm7.7 1.2h.3l-.4 1.5h-4.6v-.4h.1c.3 0 .6 0 .7-.5v-4.5c0-.4-.4-.4-.7-.5h-.2V84h2.8v.3H99c-.4 0-.6 0-.6.5v4.6c0 .3.2.4.5.4h.5a6.4 6.4 0 0 0 .7 0 1.2 1.2 0 0 0 .8-.5 2 2 0 0 0 .3-.6zm.4-3.7l-.1-.2a.3.3 0 0 0 .2-.3c0-.2-.2-.2-.4-.2h-.4.1v.8h-.1.4-.1v-.3l.4.4h.2a1 1 0 0 1-.2-.2zm-.3-.2h-.1v-.5c.2 0 .3 0 .3.2s0 .2-.2.2zm0-1a1 1 0 1 0 1 1 1 1 0 0 0-1-1zm0 1.7a.8.8 0 1 1 .7-.7.8.8 0 0 1-.7.7z" style="fill:#1d1d1b"/><path d="M61.3 68a15.6 15.6 0 0 1-15.7-15.3A15.3 15.3 0 0 1 61.3 37h4c8.4 0 16.2 6.4 16.2 15.7C81.5 61 73.7 68 65.3 68zm0-29.7a14.2 14.2 0 1 0 14.2 14.2 14.2 14.2 0 0 0-14.2-14.2zM58 60.9V44.1a9 9 0 0 0 0 16.8zm12.2-8.4a9 9 0 0 0-5.8-8.4v16.8a9 9 0 0 0 5.8-8.4z" style="fill:#004a97"/></svg>