<svg xmlns="http://www.w3.org/2000/svg" viewBox="0 0 128 128"><path d="M65.7 51.4a17.7 17.7 0 0 0-17.6 17.7 2.5 2.5 0 0 0 .7 1.7 2.2 2.2 0 0 0 3.3 0 2.5 2.5 0 0 0 .7-1.7 12.2 12.2 0 0 1 3.8-9 12.5 12.5 0 0 1 9.1-3.7 2.3 2.3 0 0 0 1.7-.7 2.4 2.4 0 0 0 .7-1.8 2.4 2.4 0 0 0-2.4-2.4zM64 8.5A53.9 53.9 0 0 0 42 13a57.2 57.2 0 0 0-17.7 12 56.3 56.3 0 0 0-12 17.8 56.7 56.7 0 0 0-1.2 40.6A56.9 56.9 0 0 0 33.3 112a55 55 0 0 0 16.8 7.6v-18.2a2.6 2.6 0 0 1 .7-1.9 2.6 2.6 0 0 1 1.7-.9h24a2.3 2.3 0 0 1 1.3 1 3 3 0 0 1 .5 1.7v18.1a53.9 53.9 0 0 0 16.6-7.6 57.3 57.3 0 0 0 22-28.4 56.8 56.8 0 0 0-1.3-40.5 55.8 55.8 0 0 0-12-17.8 57.7 57.7 0 0 0-17.9-12A54.2 54.2 0 0 0 64 8.5zm-2.7 9a3 3 0 0 1 3-3 2.8 2.8 0 0 1 2 1 3 3 0 0 1 1 2v15.7a3 3 0 0 1-1 2.1 2.8 2.8 0 0 1-2 1 3 3 0 0 1-3-3zM30.6 67.1H15a2.7 2.7 0 0 1-2-.9 3 3 0 0 1 0-4.2 2.7 2.7 0 0 1 2-1h15.7a3.1 3.1 0 0 1 3 3 3 3 0 0 1-.8 2.2 2.9 2.9 0 0 1-2.2 1zm-4.4-33.3a3 3 0 0 1-1-2.1 2.7 2.7 0 0 1 .9-2.1 3 3 0 0 1 4.2 0l11.3 10.9a3 3 0 0 1-2.2 5 2.9 2.9 0 0 1-2-.8l-11.2-11zm57 50.4l-3.4 4a21.4 21.4 0 0 0-2.8 4.3H51.4a20.2 20.2 0 0 0-2.8-4.3q-1.7-2.1-3.5-4a25.8 25.8 0 0 1-4.4-7.7 25.2 25.2 0 0 1 5.7-26.6 25.9 25.9 0 0 1 8-5.4 25.3 25.3 0 0 1 9.8-2.2 25.3 25.3 0 0 1 9.8 2.2 25.6 25.6 0 0 1 13.3 13.4 24.3 24.3 0 0 1 2 9.8 26.9 26.9 0 0 1-1.6 8.8 25.7 25.7 0 0 1-4.5 7.7zm5.5-38.7a2.9 2.9 0 0 1-2-.9 3 3 0 0 1 0-4.2l10.9-11.2a2.7 2.7 0 0 1 2-1 3 3 0 0 1 2.2 5.1l-11 11.3a2.9 2.9 0 0 1-2.1.9zm24.4 21.9H97.5a3 3 0 0 1-3-3 2.8 2.8 0 0 1 .8-2.1 3 3 0 0 1 2.2-.9h15.6a3 3 0 0 1 2.2.9 2.8 2.8 0 0 1 .9 2 3 3 0 0 1-3 3z"/></svg>