<svg xmlns="http://www.w3.org/2000/svg" viewBox="0 0 128 128"><path d="M118 98H10V30h108z" style="fill:#fff"/><path d="M116 32v64H12V32h104m0-4H12a4 4 0 0 0-4 4v64a4 4 0 0 0 4 4h104a4 4 0 0 0 4-4V32a4 4 0 0 0-4-4z" style="fill:#bdbdbd"/><path d="M12 86.8h104V96H12z" style="fill:#f7b600"/><path d="M12 32h104v9.2H12zm35.4 19.4l-6.9 17.2-2.7-14.7a3 3 0 0 0-3-2.5H23.6l-.1.7a27.4 27.4 0 0 1 6.4 2.1 2.8 2.8 0 0 1 1.6 2.3l5.2 20.2h7l10.5-25.3zm34 17c0 5.3-4.6 8.7-11.5 8.7a20 20 0 0 1-7.2-1.3l1.2-5.6a13.7 13.7 0 0 0 6.7 1.6c1.9 0 3.9-.8 4-2.5 0-1-1-1.9-3.5-3.1s-5.8-3.3-5.7-7c0-4.9 4.6-8.3 11-8.3a17.7 17.7 0 0 1 6.2 1.1l-1.2 5.4a12.4 12.4 0 0 0-6.4-1.1c-1.9.2-2.8 1.2-2.8 2 0 3 9.2 3.4 9.2 10M97.7 73h-8.4L88 76.6H81l9.8-23.4a3 3 0 0 1 2.8-1.9h5.6l5.3 25.3h-6zm-1.1-5.2l-2-9.5-3.5 9.5zM57.1 51.4l-5.5 25.3h6.6l5.4-25.3z" style="fill:#1a1f71"/></svg>