<svg xmlns="http://www.w3.org/2000/svg" viewBox="0 0 128 128"><path d="M118 98H10V30h108z" style="fill:#fff"/><path d="M116 32v64H12V32h104m0-4H12a4 4 0 0 0-4 4v64a4 4 0 0 0 4 4h104a4 4 0 0 0 4-4V32a4 4 0 0 0-4-4z" style="fill:#bdbdbd"/><path d="M64.3 83.5a2.8 2.8 0 0 0 0 5.7 3.3 3.3 0 0 0 2.3-.8l-.6-.8a2.6 2.6 0 0 1-1.6.5 1.5 1.5 0 0 1-1.6-1.3h4v-.5a2.6 2.6 0 0 0-2.5-2.8zM62.8 86a1.4 1.4 0 0 1 1.5-1.3 1.3 1.3 0 0 1 1.3 1.3h-2.8zm-2.3 1.9l.4 1a2.8 2.8 0 0 1-1.5.4c-1.4 0-1.9-.8-1.9-2v-2.5h-1v-1h1V82h1.2v1.6h2v1.1h-2v2.5c0 .5.2.9.8.9a2.2 2.2 0 0 0 1-.3zM43 85.7V89h-1.2v-3c0-1-.4-1.5-1.2-1.5h-.2a1.3 1.3 0 0 0-1.1 1.5v3h-1.2v-3c0-1-.4-1.5-1.2-1.5h-.2a1.3 1.3 0 0 0-1 1.5v3h-1.3v-5.5h1.2v.7a1.8 1.8 0 0 1 1.6-.8 2 2 0 0 1 1.8 1 2.1 2.1 0 0 1 1.9-1h.2a2 2 0 0 1 1.9 2.2zm27.6-2.2a2.5 2.5 0 0 1 .9.1l-.4 1.2a2 2 0 0 0-.7-.2c-.8 0-1.2.5-1.2 1.4v3h-1.1v-5.4h1.1v.7a1.6 1.6 0 0 1 1.5-.8zm-15 4c0 1-.9 1.7-2.4 1.7a4 4 0 0 1-2.4-.7l.6-1a2.9 2.9 0 0 0 1.8.6c.8 0 1.2-.2 1.2-.6s-.3-.5-1-.6h-.6c-1.2-.3-1.8-.8-1.8-1.7 0-1 .9-1.7 2.2-1.7a4 4 0 0 1 2.3.6l-.6 1a3.5 3.5 0 0 0-1.7-.5c-.6 0-1 .3-1 .6s.4.5 1 .6h.5c1.2.2 1.9.6 1.9 1.6zm-7-3.2a2 2 0 0 0-1.8-.8 2.8 2.8 0 0 0 0 5.7 2 2 0 0 0 1.7-.8v.6h1.2v-5.4h-1.2zM46.8 88a1.6 1.6 0 0 1-1.6-1.6v-.2a1.6 1.6 0 1 1 1.6 1.8zm49 .2zm.1.5a.1.1 0 0 0 0-.1.1.1 0 0 0 0-.1.2.2 0 0 0-.2 0h-.2v.5-.2h.1l.2.2h.1l-.2-.2a.2.2 0 0 0 .2 0zm-.3 0v-.1h.2-.2zm.6-.2a.6.6 0 0 0-1 0 .5.5 0 0 0 0 .4.6.6 0 0 0 .5.4.5.5 0 0 0 .3 0 .5.5 0 0 0 .2-.3.5.5 0 0 0 0-.5zm-.2.5a.4.4 0 0 1-.1.1.4.4 0 0 1-.2 0 .4.4 0 0 1-.3-.7.4.4 0 0 1 .1 0 .4.4 0 0 1 .2 0 .4.4 0 0 1 .2 0 .4.4 0 0 1 0 .6zm-14.4-4.8a2 2 0 0 0-1.7-.8 2.8 2.8 0 0 0 0 5.7 2 2 0 0 0 1.7-.8v.6h1.2v-5.4h-1.2zM80.1 88a1.6 1.6 0 0 1-1.6-1.6v-.2a1.6 1.6 0 1 1 1.6 1.8zm-7-2a1.7 1.7 0 0 0 1.6 2 2.4 2.4 0 0 0 1.5-.5l.5 1a2.8 2.8 0 0 1-2 .6h-.2a2.7 2.7 0 0 1-2.6-2.8V86a2.7 2.7 0 0 1 2.9-2.6 2.8 2.8 0 0 1 2 .7l-.6 1a2.4 2.4 0 0 0-1.5-.5 1.7 1.7 0 0 0-1.6 1.5zM87 83.6a2.5 2.5 0 0 1 .8.1l-.3 1.2a2 2 0 0 0-.8-.2c-.7 0-1 .5-1 1.4v3h-1.3v-5.4h1.2v.7a1.6 1.6 0 0 1 1.4-.8zm5.7.8a2 2 0 0 0-1.7-.8 2.8 2.8 0 0 0 0 5.7 2 2 0 0 0 1.7-.8v.6h1.1v-7.5h-1.1zM91 88.1a1.6 1.6 0 0 1-1.7-1.6v-.2a1.6 1.6 0 1 1 1.7 1.8z" style="fill:#231f20"/><path d="M55 42.4h18v32H55z" style="fill:#ff5f00"/><path d="M64 74.4a20.4 20.4 0 1 1 0-32 20.4 20.4 0 0 0 0 32z" style="fill:#eb001b"/><path d="M97 58.4a20.4 20.4 0 0 1-33 16 20.4 20.4 0 0 0 0-32 20.4 20.4 0 0 1 33 16zm-2.4 12h.3v.6h.2v-.7h.2v-.1h-.6zm1.3.4l-.2-.5h-.2v.7h.1v-.6l.3.5h.1l.2-.5v.6h.1v-.8h-.2z" style="fill:#f79e1b"/></svg>