<svg xmlns="http://www.w3.org/2000/svg" viewBox="0 0 128 128"><path d="M64 8a56 56 0 1 0 56 56A56 56 0 0 0 64 8zm37.1 28.3a5.6 5.6 0 1 1 .4 11.2h-.4a5.6 5.6 0 0 1 0-11.2zM14 56.8v-.1a53 53 0 0 1 1.4-6.6v-.3a50.4 50.4 0 0 1 11.9-21l.4-.4.6-.6.1-.2a22.8 22.8 0 0 1 2.4-2 50.3 50.3 0 0 1 31.6-12.7v48.8l-47 14.1s-3-7.8-1.4-19zm12.3 34a5.6 5.6 0 1 1-.3-11.2h.4a5.6 5.6 0 0 1 0 11.2zM42 107.2a5.6 5.6 0 1 1-.5-11.2h.4a5.6 5.6 0 0 1 0 11.2zm22 4.7a5.6 5.6 0 1 1-.4-11.2h.4a5.6 5.6 0 0 1 0 11.2zM84.6 21a5.6 5.6 0 1 1 .4 11.3h-.4a5.6 5.6 0 0 1 0-11.2zm1.2 86.2a5.6 5.6 0 1 1-.4-11.2h.4a5.6 5.6 0 0 1 0 11.2zm15.3-16.4a5.6 5.6 0 1 1-.4-11.1h.4a5.6 5.6 0 0 1 0 11.1zm5.6-21.7a5.6 5.6 0 1 1-.4-11.1h.4a5.6 5.6 0 0 1 0 11.2zM22.3 57.3a5.6 5.6 0 1 0 5.6 5.6 5.6 5.6 0 0 0-5.6-5.6zm5.6-20a5.6 5.6 0 1 0-.4 11.2h.4a5.6 5.6 0 0 0 0-11.2zm15-14.9a5.6 5.6 0 1 0-.4 11.2h.4a5.6 5.6 0 0 0 0-11.2z"/></svg>