<svg xmlns="http://www.w3.org/2000/svg" viewBox="0 0 128 42"><path d="M106.9 8a13 13 0 0 1 5.7 1.3l.8.4-1.2 1.1-1.8-1.9-3 2.8-1.8-2-5.7 5.1 3.6 4-1.4 1.2 3.6 4-1.4 1.2 5 5.8 3-2.8 2.7 3a14.7 14.7 0 0 1-1.7 1.2A13 13 0 1 1 106.9 8zm-2.4 12.2l3.1-2.8 2.8 3.1-3.1 2.8zm2.2 5.3l3.1-2.8 2.8 3.1-3 2.8zM102.3 15l3.1-2.8 2.8 3.1L105 18zm5.7-1.5l2.3-2 2 2.2-2.2 2.1zm4.1 9.6l2.3-2 2.1 2.2-2.3 2.1zm2 4.7l2.3-2.1 2.1 2.3-2.3 2.1zm1-10.7l1.5-1.4 1.4 1.5-1.5 1.4zm-2-4.6l1.5-1.4 1.4 1.5-1.5 1.4zm3.9 9.1l1.5-1.4 1.5 1.6-1.6 1.4zm-7-3.4l2.4-2.1 2.1 2.3-2.3 2.1zm-93 7.3H19l2.7-12h-2l-1.7 9h-.1l-2.3-9H14l-2.2 9-2-9H8l2.7 12h1.8l2.2-8.4h.1zm7-5.1h3.7c0-1.8-.9-2.5-1.8-2.5s-1.8.8-2 2.5m5.1 3.2v1.3a5.8 5.8 0 0 1-3 .7c-2.7 0-3.9-1.7-3.9-4.4s1.3-4.4 3.8-4.4c2 0 3.4 1.3 3.4 4.1v.6h-5.4c0 2 .8 3 2.5 3a5 5 0 0 0 2.7-1m4 .8a3.8 3.8 0 0 0 1.6.3c1.2 0 2.2-.8 2.2-3.6 0-2.1-.8-2.8-2-2.8a3.4 3.4 0 0 0-1.7.6zm0-6.8a5 5 0 0 1 2.3-.6c2 0 3.2 1.4 3.2 4.1 0 3.2-1.5 4.7-4 4.7a7.6 7.6 0 0 1-3.2-.8V13l1.8-.4zm9.3-4h-2v12h1.5v-8.5h.1l3.4 8.5h1l3.5-8.7h.1v8.7h1.8v-12h-2l-3.6 9.5zM59 21.1c0-2.3-.9-3.2-2-3.2s-2 1-2 3.2.9 3.3 2 3.3 2-1 2-3.3m-5.8 0c0-3 1.6-4.4 3.8-4.4s3.8 1.4 3.8 4.4-1.5 4.4-3.8 4.4-3.8-1.5-3.8-4.4m9-3.2v7.5H64v-6.7a4.5 4.5 0 0 1 2-.7c.8 0 1.5.2 1.5 1.6v5.7h1.7v-6c0-1.8-.7-2.6-2.7-2.6a8.4 8.4 0 0 0-4.2 1.2zm10.6 2.4h3.8c-.1-1.8-1-2.5-1.8-2.5s-1.8.8-2 2.5m5.1 3.2v1.3a5.8 5.8 0 0 1-3 .7c-2.7 0-3.9-1.7-3.9-4.4s1.3-4.4 3.8-4.4c2 0 3.4 1.3 3.4 4.1v.6h-5.5c0 2 .9 3 2.6 3a5 5 0 0 0 2.6-1m5.3-.5h-.1L81 16.7h-1.8l3.2 8.4c-.4 1.3-1 2.2-2.2 2.2v1.4c1.9 0 3-1.2 3.7-3.6l3-8.4h-1.7z" style="fill:#036cb5"/></svg>