<svg xmlns="http://www.w3.org/2000/svg" viewBox="0 0 128 128"><g><rect x="10" y="30" width="108" height="68" style="fill:#fff"/><path d="M116 32v64H12V32h104m0-4H12a4 4 0 0 0-4 4v64a4 4 0 0 0 4 4h104a4 4 0 0 0 4-4V32a4 4 0 0 0-4-4z" style="fill:#bdbdbd"/><path d="M56.4 84.3a2 2 0 0 0-1.7-.8 2.9 2.9 0 0 0 0 5.7 2 2 0 0 0 1.7-.8v.7h1.2v-5.4h-1.2zm-1.6 3.8a1.7 1.7 0 1 1 1.7-1.7 1.6 1.6 0 0 1-1.7 1.7zm32.5.5a.5.5 0 0 0 0-.2.6.6 0 0 0-.3 0 .5.5 0 0 0-.2 0 .6.6 0 0 0-.2 0 .5.5 0 0 0-.2 0 .5.5 0 0 0 0 .2.5.5 0 0 0 0 .4.6.6 0 0 0 .4.4.5.5 0 0 0 .2 0 .6.6 0 0 0 .2-.2.6.6 0 0 0 .1-.1.5.5 0 0 0 0-.4zm0 .4a.4.4 0 0 1-.2.1.4.4 0 0 1-.1.1.4.4 0 0 1-.2 0 .4.4 0 0 1-.1 0 .4.4 0 0 1-.2 0 .4.4 0 0 1 0-.7.4.4 0 0 1 .2 0 .4.4 0 0 1 .1 0 .4.4 0 0 1 .2 0 .4.4 0 0 1 .2.5zm-25.9-5.5a2.8 2.8 0 0 0 0 5.7 3.3 3.3 0 0 0 2.3-.7l-.6-1a2.6 2.6 0 0 1-1.5.6 1.5 1.5 0 0 1-1.7-1.3h4v-.4a2.6 2.6 0 0 0-2.5-2.9zM60 86a1.4 1.4 0 0 1 1.4-1.3 1.3 1.3 0 0 1 1.4 1.3zm-9-.2V89h-1.2v-3c0-1-.4-1.4-1.2-1.4a1.3 1.3 0 0 0-1.4 1.4v3H46v-3c0-1-.4-1.4-1.1-1.4a1.3 1.3 0 0 0-1.4 1.4v3h-1.1v-5.4h1.1v.6a1.8 1.8 0 0 1 1.6-.8 2 2 0 0 1 1.8 1 2.1 2.1 0 0 1 2-1 2 2 0 0 1 2 2.2zm34-1.4a2.8 2.8 0 0 0-1-.6 3.2 3.2 0 0 0-2.3 0 2.8 2.8 0 0 0-1 .6 2.8 2.8 0 0 0-.6 1 3 3 0 0 0 0 2.2 2.8 2.8 0 0 0 .7.9 2.8 2.8 0 0 0 .9.6 3.2 3.2 0 0 0 2.3 0 2.8 2.8 0 0 0 1-.6 2.7 2.7 0 0 0 .5-.9 3 3 0 0 0 0-2.3 2.7 2.7 0 0 0-.6-.9zm-.6 2.8a1.6 1.6 0 0 1-.4.5 1.6 1.6 0 0 1-.5.4 1.8 1.8 0 0 1-1.3 0 1.6 1.6 0 0 1-.6-.4 1.7 1.7 0 0 1-.3-.5 2 2 0 0 1 0-1.4 1.7 1.7 0 0 1 .3-.6 1.6 1.6 0 0 1 .6-.3 1.8 1.8 0 0 1 1.3 0 1.6 1.6 0 0 1 .5.3 1.6 1.6 0 0 1 .4.6 2 2 0 0 1 0 1.4zm2.6 1.7a.1.1 0 0 0 0-.2.2.2 0 0 0-.2 0h-.2v.5-.2l.2.2h.2l-.2-.2a.2.2 0 0 0 .2 0zm-.3 0h.2zm-17.1-1.3c0 1-1 1.7-2.5 1.7a3.9 3.9 0 0 1-2.3-.7l.5-.9a2.9 2.9 0 0 0 1.8.6c.8 0 1.3-.3 1.3-.7s-.4-.5-1-.6h-.6c-1.2-.2-1.9-.8-1.9-1.6 0-1.1 1-1.8 2.3-1.8a4 4 0 0 1 2.2.6l-.5 1a3.5 3.5 0 0 0-1.7-.5c-.7 0-1 .3-1 .7s.4.4 1 .5h.5c1.2.2 1.9.7 1.9 1.7zm9-4a2.5 2.5 0 0 1 1 .2l-.4 1a2 2 0 0 0-.8 0c-.7 0-1.1.5-1.1 1.3v3H76v-5.3h1.2v.6a1.6 1.6 0 0 1 1.4-.8zm-4.1 4.3l.3 1a2.8 2.8 0 0 1-1.4.4c-1.4 0-2-.7-2-2v-2.5h-1v-1h1V82h1.3v1.6h1.9v1.1h-2v2.5c0 .5.3.9.9.9a2.2 2.2 0 0 0 1-.3z"/><path d="M73 74.5H55V42.4h18z" style="fill:#7673c0"/><path d="M64 74.5a20.4 20.4 0 1 1 0-32.1 20.4 20.4 0 0 0 0 32z" style="fill:#eb001b"/><path d="M94.7 70.3h.6-.2v.8h-.2v-.7h-.2zm1.2.5l-.2-.5h-.2v.8h.1v-.6l.3.5h.1l.2-.5v.6h.2v-.8h-.2zM76.6 38A20.3 20.3 0 0 0 64 42.4a20.4 20.4 0 0 1 0 32A20.4 20.4 0 1 0 76.6 38z" style="fill:#00a1df"/></g></svg>