<svg xmlns="http://www.w3.org/2000/svg" viewBox="0 0 128 56"><path d="M47.3 41.3a6.2 6.2 0 0 1-1.4 4.5 6.3 6.3 0 0 1-4 2.2H13.4a6.3 6.3 0 0 1-4.3-2.7 6.6 6.6 0 0 1-1.1-3V13.7a6.8 6.8 0 0 1 1.5-3.5 6.4 6.4 0 0 1 4-2.2h28.2a6.4 6.4 0 0 1 4.7 3 6 6 0 0 1 .9 2.8v27.5z" style="fill:#fff"/><path d="M13.6 8h28.1a6.4 6.4 0 0 1 4.7 3 6 6 0 0 1 .9 2.8v21.3a39 39 0 0 1-4.2-1.1c-3-.9-5.9-2-8.8-3.1a32.5 32.5 0 0 0 3.3-8.5H30v-2.8h9.5V18h-9.5v-4.7h-4a.6.6 0 0 0-.6.6v4h-9.6v1.6h9.6v2.9h-8V24h15.4a29 29 0 0 1-2.1 5.3.2.2 0 0 1-.3.1A42.2 42.2 0 0 0 20 27.1a9.8 9.8 0 0 0-5.9 1.4 7 7 0 0 0-3.1 4.7 6.6 6.6 0 0 0 1.5 5.5 8.2 8.2 0 0 0 5.3 2.7 13.2 13.2 0 0 0 7.8-1.6 19.6 19.6 0 0 0 5.9-4.8l.5-.5c5 2.4 10.2 4.6 15.3 6.9a6.2 6.2 0 0 1-1.4 4.4 6.3 6.3 0 0 1-4 2.2H13.4a6.3 6.3 0 0 1-4.3-2.7 6.6 6.6 0 0 1-1.1-3V13.7a6.8 6.8 0 0 1 1.5-3.5 6.4 6.4 0 0 1 4-2.2zm1.2 22.5a10.3 10.3 0 0 1 6.4-.6 30.2 30.2 0 0 1 7.3 2.9A16 16 0 0 1 22 38a9.1 9.1 0 0 1-6.1.3 5.3 5.3 0 0 1-3-2.2 3.8 3.8 0 0 1-.4-3 4.3 4.3 0 0 1 2.4-2.7z" style="fill:#2ba6df"/><path d="M62.3 11.6a.7.7 0 0 1 .6-.7h3.7V14h8v1.6h-8v2.5h7a17.2 17.2 0 0 1-6.7 9.3 42.1 42.1 0 0 0 8 3.8v1.8a31.9 31.9 0 0 1-5.2-1.6 35.2 35.2 0 0 1-5.1-2.5A36.5 36.5 0 0 1 54 33v-1.8a33 33 0 0 0 8.1-3.7 21 21 0 0 1-5.7-6.2H60a19.2 19.2 0 0 0 4.4 4.5 14.4 14.4 0 0 0 4.5-6H55.5V18h6.8v-2.5h-8V14h8v-2.4zm45.4-.8h4.2v2.1h6.5a1 1 0 0 1 1.1 1.1v2.7h-4v-2.3h-11.3v2.3H100V13h7.6v-2.1zm-28.1.2h3.9l-2.7 6h1.3v15.7h-3.5V21h-3.2l4.2-9.9zm12.9.2h3.7V15h1.4v1.6h-1.4v14.3a1.4 1.4 0 0 1-1.5 1.6h-4.6v-1.6H92a.6.6 0 0 0 .5-.7V16.6h-9V15h9v-3.8zm7.6 7h19.4v1.5h-7.7v3h7.8v1.6h-7.8v6.4h4l-1-3.3h3.3a.7.7 0 0 1 .7.5l1.2 4.3h-20v-1.5h7.9v-6.5H100v-1.5h7.8v-3H100zm-15.3.5h3a.8.8 0 0 1 .7.6l2.1 6.9h-3.5l-2.3-7.5zM59.8 36H61l3.3 9.1h-1.7l-.6-1.8h-3.3l-.6 1.8h-1.7c1-3.1 2.2-6.1 3.3-9.1zm.6 2.4c-.3 1.3-.8 2.5-1.2 3.7h2.5l-1-3.3a1.4 1.4 0 0 0-.3-.4zm9.3-2.4h1.6v7.9h3.9V45h-5.5V36zm11.4 0h1.6v9.1h-1.6V36zm8.2 0H93a2.9 2.9 0 0 1 2.3 1.2 3 3 0 0 1 .4 2.4 2.7 2.7 0 0 1-1.8 1.8 13.6 13.6 0 0 1-3 .2v3.5h-1.6V36zm1.7 1.2v3.1h2a1.3 1.3 0 0 0 1-.9 1.6 1.6 0 0 0-1-2.2h-2zm12-1.2h1.3l3.3 9.1H106l-.6-1.8h-3.2l-.7 1.9h-1.7L103 36zm.7 2.4l-1.2 3.7h2.4l-1.2-3.8zm7.6-2.4h1.8l1.7 3.8h.2l1.6-3.8h1.8l-2.7 5.4v3.8H114v-3.8l-2.8-5.4z" style="fill:#3f3a39"/></svg>