<svg xmlns="http://www.w3.org/2000/svg" viewBox="0 0 128 128"><path d="M70.8 44H58v16h12.8a8 8 0 0 0 0-16z"/><path d="M108 8H20A12 12 0 0 0 8 20v88a12 12 0 0 0 12 12h59.7A28.5 28.5 0 1 1 120 79.7V20a12 12 0 0 0-12-12zM70 76H58v24H42V28h28a24 24 0 0 1 0 48z"/><path d="M100 80a20 20 0 1 0 20 20 20 20 0 0 0-20-20zm2 29.2v3.3h-3.2v-3a13 13 0 0 1-5.3-1.4l1-3.7a11 11 0 0 0 5.1 1.4c1.9 0 3-.7 3-2s-1-2-3.3-2.8c-3.4-1.1-5.7-2.7-5.7-5.8 0-2.8 2-5 5.3-5.7v-3h3.1v2.8a11.2 11.2 0 0 1 4.6 1l-1 3.7a9.6 9.6 0 0 0-4.5-1.1c-2 0-2.7.9-2.7 1.8s1.1 1.7 3.8 2.7c3.8 1.3 5.2 3 5.2 6s-1.9 5.2-5.5 5.8z"/></svg>