<svg xmlns="http://www.w3.org/2000/svg" viewBox="0 0 128 128"><path d="M118 75.7l-6.7-5.3a47.3 47.3 0 0 0 .2-11.8l7-6.8c1.7-1.6 2.3-5.3-.4-11.4s-7.6-6.2-7.6-6.2l-8.5.8a47.7 47.7 0 0 0-8.2-8.2l.2-10c0-2.2-2.3-5.2-8.5-7.6s-9.8 1-9.8 1l-5.3 6.6a47.8 47.8 0 0 0-11.7 0l.3-.2-7.1-7.3c-1.6-1.6-5.4-2.1-11.5.6s-6 7.7-6 7.7l.9 8.5a47 47 0 0 0-8.4 8.1l-10-.2c-2.2 0-5.3 2.2-7.8 8.4s1 9.7 1 9.7l6.6 5.5.1-.1a46.7 46.7 0 0 0-.2 11.2l-7.3 7.1c-1.6 1.6-2.1 5.4.6 11.5s7.8 6 7.8 6l8.1-.9a48 48 0 0 0 9.1 9.2v10.1c0 2.1 2.4 5.3 8.7 7.5s9.7-1.3 9.7-1.3l5.3-6.7a47.5 47.5 0 0 0 10.4 0l7 7.3c1.5 1.5 5.4 2.2 11.5-.5s6.1-7.6 6.1-7.6l-.8-8.6a47.1 47.1 0 0 0 8.7-8.4l-.2.4 10.2.1c2.2 0 5.3-2.3 7.7-8.5s-1.2-9.7-1.2-9.7zm-28.1 7.1a32 32 0 1 1-7-44.7 32 32 0 0 1 7 44.7zM60 40.3A24 24 0 1 0 87.7 60 24 24 0 0 0 60 40.3z"/></svg>