<svg xmlns="http://www.w3.org/2000/svg" viewBox="0 0 112 97">
  <path d="M56,0 C25.1,0 0,19.7 0,44 C0.24297312,55.2671691 5.34803078,65.8783961 14,73.1 L8.2,90.7 C7.62433518,92.2337108 8.04204462,93.9634099 9.2542053,95.0653742 C10.466366,96.1673384 12.2279303,96.4187972 13.7,95.7 L35.7,85 C42.2802968,87.0018517 49.1219517,88.0129337 56,88 C86.9,88 112,68.3 112,44 C112,19.7 86.9,0 56,0 Z M56,80 C48.9499091,80.0343512 41.9468946,78.8502666 35.3,76.5 L35.3,76.4 L35,76.3 L18.8,84.3 L23.5,70.5 C14,63.9 8,54.5 8,44 C8,24.1 29.5,8 56,8 C82.5,8 104,24.1 104,44 C104,63.9 82.5,80 56,80 Z M80,28 C80,30.209139 78.209139,32 76,32 L36,32 C33.790861,32 32,30.209139 32,28 C32,25.790861 33.790861,24 36,24 L76,24 C78.209139,24 80,25.790861 80,28 Z M80,44 C80,46.209139 78.209139,48 76,48 L36,48 C33.790861,48 32,46.209139 32,44 C32,41.790861 33.790861,40 36,40 L76,40 C78.209139,40 80,41.790861 80,44 Z M64,60 C64,62.209139 62.209139,64 60,64 L36,64 C33.790861,64 32,62.209139 32,60 C32,57.790861 33.790861,56 36,56 L60,56 C62.209139,56 64,57.790861 64,60 Z"/>
</svg>
