<svg xmlns="http://www.w3.org/2000/svg" viewBox="0 0 128 128"><path d="M32.2 120a4.7 4.7 0 0 1-2.6-.8c-1-.6-2.8-2.4-1.7-6.3l10.6-34.3a1.6 1.6 0 0 0-.3-1.2L10.4 56.2c-3.1-2.4-2.5-5.2-2.3-6s1.5-3.3 5.4-3.3H48a1.4 1.4 0 0 0 .6-.6L59.1 12C60.3 8.2 63 7.8 64 7.8c1 0 3.7.4 4.9 4.2l10.6 34.3a1.3 1.3 0 0 0 .7.6h34.3c4 0 5 2.6 5.3 3.3s1 3.6-2.3 6L89.8 77.4a1.7 1.7 0 0 0-.3 1.2l10.6 34.3c1.1 3.8-.8 5.6-1.7 6.2-.6.5-3.1 1.9-6.3-.6L64.3 97.3a1 1 0 0 0-.6 0l-27.8 21.2a6 6 0 0 1-3.7 1.5zM64 89.3a8.6 8.6 0 0 1 5.2 1.7l20.6 15.7-8-25.8a9.4 9.4 0 0 1 3-9.8L106 54.9H80.1a9 9 0 0 1-8.2-6.2L64 23.3l-7.8 25.4a9 9 0 0 1-8.3 6.2H22l21 16.2a9.4 9.4 0 0 1 3.2 9.8l-8 25.8L58.8 91a8.6 8.6 0 0 1 5.2-1.7z"/></svg>