<svg xmlns="http://www.w3.org/2000/svg" viewBox="0 0 128 128"><path d="M112 96V64c0-12-4.8-34-7-43.5a8 8 0 0 0-5.5-5.9C91.5 12.3 81.8 8 64 8s-27.4 4.3-35.5 6.6a8 8 0 0 0-5.6 6C20.8 30 16 52 16 64v32a8 8 0 0 0 8 8h11.8l-17.6 14.2a1 1 0 0 0 .6 1.8h12.8a1 1 0 0 0 .7-.3L48 104h32l15.7 15.7a1 1 0 0 0 .7.3h12.8a1 1 0 0 0 .6-1.8L92.2 104H104a8 8 0 0 0 8-8zM56 20a4 4 0 0 1 4-4h8a4 4 0 0 1 4 4 4 4 0 0 1-4 4h-8a4 4 0 0 1-4-4zM34 94a10 10 0 1 1 10-10 10 10 0 0 1-10 10zm-6-30a4 4 0 0 1-4-4.8l4.3-24a4 4 0 0 1 4-3.2h63.6a4 4 0 0 1 3.9 3l4 24a4 4 0 0 1-4 5zm66 30a10 10 0 1 1 10-10 10 10 0 0 1-10 10z"/></svg>