<svg xmlns="http://www.w3.org/2000/svg" viewBox="0 0 128 128"><path d="M99 31a7 7 0 1 1 7 7 7 7 0 0 1-7-7zm18.2 11.6A71.4 71.4 0 0 0 106 41a71.4 71.4 0 0 0-11.2 1.5c-2.8.7-3 2.4-2.7 4.3l2.3 21.7a3.1 3.1 0 0 0 1 1.9l1.2 1.3a3.1 3.1 0 0 1 1 2l2.4 27.4a3.1 3.1 0 0 0 3.1 2.8h5.8a3.1 3.1 0 0 0 3-2.8l2.6-27.5a3.1 3.1 0 0 1 .9-2l1.3-1.2a3.1 3.1 0 0 0 .9-1.9l2.3-21.7c.3-1.9.1-3.6-2.7-4.3zM88 79v9a8 8 0 0 1-6 7.7V98a6 6 0 0 1-12 0v-2H26v2a6 6 0 0 1-12 0v-2.3A8 8 0 0 1 8 88v-9a16 16 0 0 1 5.7-12.2L21 46.9A12 12 0 0 1 32.1 40H64a12 12 0 0 1 11 7l7.3 19.8A16 16 0 0 1 88 79zM23.6 63h48.8l-4.8-13a4.2 4.2 0 0 0-3.7-2H32a4.2 4.2 0 0 0-3.7 2zM26 78a6 6 0 1 0-6 6 6 6 0 0 0 6-6zm56 0a6 6 0 1 0-6 6 6 6 0 0 0 6-6z"/></svg>