<svg xmlns="http://www.w3.org/2000/svg" viewBox="0 0 128 128"><path d="M110.4 32.7q-1.5-2.2-3.2-4.3l-1.7-2-3.8-3.8-2-1.8q-2.1-1.7-4.4-3.2a55.7 55.7 0 0 0-20-8.4l-2.7-.5a56.2 56.2 0 0 0-5.7-.6L64 8a56 56 0 0 0 0 112h2.9a56.2 56.2 0 0 0 5.6-.6l2.8-.5a55.7 55.7 0 0 0 20-8.5q2.2-1.5 4.3-3.2l2-1.7q2-1.8 3.8-3.8l1.8-2q1.7-2.1 3.2-4.3a56 56 0 0 0 0-62.7zM56 47c1-1 1.1.9 1.1 1-.1 1-.1 2 .9 2s1 2.1 1 3-3 2-3 1 1-1 1-2-1 0-1-1v-1c0-1-1 0-1-1a2.3 2.3 0 0 1 1-2zm-2 4.8c0-.8-.7-1 0-1.8 1-1 2.4 3 1 3-1 0-1 1-2 0-.7-.7.9-.3 1-1.1zM37 19.6c.2 1.7 1 6.4 2 6.4s0 2-1 3a3.7 3.7 0 0 0-1 3v3c0 2 0 3-2 3a3.7 3.7 0 0 1-3-2s-1-2 0-3c.7-.7-3.2-3.1-5.8-4.7A52.4 52.4 0 0 1 37 19.5zM24.5 30.2c1.5 1 4.5 5 4.5 5.8v2c0 1 2 0 1 2s-1 0-2 0 1 2 1 3-5-1-3-4c1-1.4-3.9-1.8-6.5-2a52.3 52.3 0 0 1 5-6.8zM12 64a51.9 51.9 0 0 1 1.8-13.5c2 .3 4.6 1 5.2 1.5s0 1 1 3 1-1 1-2 1-3 1-5 0-3 1-3 2 0 2 2 1 3 2 2 2 0 2 2 2 2 2 3-1 1-3 1-4 2-2 2 1 2 1 2l-4 4c-2 2-1 2-1 5s-2 2-3 1c-.7-.7-4.7-.4-6.8-.1L12 64zm29 27c0 2-1 2-3 4s-1 2-2 3a14.4 14.4 0 0 1-3 2l-3.2 3.2a52.1 52.1 0 0 1-15.4-23.5c1.6-1.4 4-3.4 4.6-2.7 1 1 1 2 2 3s4-2 4-2a3.5 3.5 0 0 1 4 1c2 2 2 1 3 1s2 1 3 3 3 1 5 2 3 1 3 2-2 2-2 4zm70-14c-1 1-3-.4-3 1 0 1-.1 3.8-1 2-1-2 0-5-1-5s-2-3-3-3-3 2-4 3-1 5-2 4-2-4-3-6c-.6-1.3-5-2-6-3-.7-.7-5-3-5-2a7.6 7.6 0 0 0 2 4c1 1 1 0 2 0 2 0 2 1 1 2s-4 3-6 3-2-3-3-5c-.6-1.3-1.9-3-3-1.4s2.3 5.6 3.6 7a6.5 6.5 0 0 0 3.8 1.7C86 80 80 85 79 87c-.9 1.8 0 2 0 3s-2 3-3 5-4 6-7 5a4.8 4.8 0 0 1-2-3c0-1.4-1-2-1-4 0-2.2 0-5-2-7-1-1-1-3-2-4-1.2-1.2-2.5 0-3.8.3a5.4 5.4 0 0 1-3.8-.1S50 79 50 77c0-1 1-3 2-4.7 1.9-3.4 2.7-3.4 3.9-4.4s2.6-1.8 3.8-1.4a28.8 28.8 0 0 0 4.3 1.1 10.3 10.3 0 0 1 3.4 1c.6.4 2-.1 3.3-.4.8 0 2.3.8 3.3.8s4-3 3-4-1-1-2-1-2 0-2-1a2.1 2.1 0 0 1 2-2h2c1 0 3 0 3-1 0-1.4 0-1-1-1s-1-1-2-1h-2c-1 0-1 2-2 3s-2 0-2 1 1 2 0 2a2.1 2.1 0 0 1-2-2c0-1 .1-.8-1-2s-1-1-2-1c0 0-1 0 0 1s2 1 2 2a1 1 0 0 1-1 1c-1 0 0-3-3-3-1 0-4 0-4 1s.4 3-1 3c-1 0-1 0-3-1-1.3-.6-1-3 0-3h1c1.4 0 1-1 1-2v-2s0-1 2-1c1 0 1-1 2-2s1-2 2-2 2 1 3 1 3 0 3-1-.7-1.3 0-2c1-1 2-2 3-2a1 1 0 0 0 1-1c0-1-3.3-.3-4-1-1-1 1-2 2-3s-1-1-1-1c-1 0-3 1.6-3 3 0 1 .3 5.4-1 6-2 1-2 0-2-1s1-1 0-2-1 1-2 1-1-2 0-3 3.5-10 8-10h3c1 0 3.3 2.3 4 3 1 1 1 2 0 2h-2s-1 0 0 1 1 2 2 2 1.7-1 1.8-2 3.2-3 4.2-3c3 0 4-1 5-1s1.1 1.1 2 0 0-2 0-3 2-2 2-1v2c0 1 1.2-.1 1.1-1s.9-1 1.9-2c.7-.7 5.5-1 8.2-1a51.7 51.7 0 0 1 11.3 40l-4.5 4c-1 1 1 1 0 2z"/></svg>