<svg xmlns="http://www.w3.org/2000/svg" xmlns:xlink="http://www.w3.org/1999/xlink" width="24" height="24" viewBox="0 0 24 24">
  <defs>
    <path id="world-a" d="M19.7000001,5.13100002 C19.5111167,4.85423395 19.3109481,4.58534077 19.1000001,4.32500002 L18.7810001,3.95000002 L18.0690001,3.23700001 L17.6940001,2.90000001 C17.4294518,2.68600996 17.1540893,2.48574625 16.8690001,2.30000001 C15.7342951,1.53432037 14.4601373,0.999174105 13.1190001,0.725000003 L12.6130001,0.631000003 C12.2580001,0.576000002 11.902,0.538000002 11.543,0.519000002 L11,0.500000002 C5.20100002,0.500000002 0.500000002,5.20100002 0.500000002,11 C0.500000002,16.7990001 5.20100002,21.5000001 11,21.5000001 L11.544,21.5000001 C11.895,21.4800001 12.2460001,21.4430001 12.5940001,21.3870001 L13.1190001,21.2940001 C14.4615313,21.0140285 15.7357787,20.4723884 16.8690001,19.7000001 C17.1440001,19.5120001 17.4130001,19.3130001 17.6750001,19.1000001 L18.0500001,18.7810001 C18.2996506,18.5563121 18.5373121,18.3186506 18.7620001,18.0690001 L19.1000001,17.6940001 C22.0633784,14.1025732 22.3076233,8.98849394 19.7000001,5.13100002 Z M9.50000004,7.81200003 C9.68800004,7.62500003 9.70600004,7.98200003 9.70600004,8.00000003 C9.68800004,8.18700003 9.68800004,8.37500003 9.87500004,8.37500003 C10.063,8.37500003 10.063,8.76900004 10.063,8.93700004 C10.063,9.10700004 9.50000004,9.31300004 9.50000004,9.12500004 C9.50000004,8.93700004 9.68800004,8.93700004 9.68800004,8.75000004 C9.68800004,8.56200004 9.50000004,8.75000004 9.50000004,8.56200004 L9.50000004,8.37500003 C9.50000004,8.18700003 9.31200004,8.37500003 9.31200004,8.18700003 C9.30550476,8.03787924 9.37662683,7.89601342 9.50000004,7.81200003 Z M9.12500004,8.71200004 C9.12500004,8.56200004 8.99400004,8.52500004 9.12500004,8.37500003 C9.31300004,8.18700003 9.57500004,8.93700004 9.31300004,8.93700004 C9.12500004,8.93700004 9.12500004,9.12500004 8.93700004,8.93700004 C8.80700004,8.80700004 9.10700004,8.88100004 9.12500004,8.73100004 L9.12500004,8.71200004 Z M5.93700002,2.67500001 C5.97500002,2.99400001 6.12500003,3.87500002 6.31200003,3.87500002 C6.50000003,3.87500002 6.31200003,4.25000002 6.12500003,4.43700002 C5.98119303,4.58704892 5.91220363,4.79365016 5.93700002,5.00000002 L5.93700002,5.56200002 C5.93700002,5.93700002 5.93700002,6.12500003 5.56200002,6.12500003 C5.32235956,6.10577944 5.10973593,5.96390424 5.00000002,5.75000002 C5.00000002,5.75000002 4.81200002,5.37500002 5.00000002,5.18700002 C5.13100002,5.05700002 4.40000002,4.60700002 3.91200002,4.30700002 C4.51055301,3.66932252 5.19157022,3.11441961 5.93700002,2.65700001 L5.93700002,2.67500001 Z M3.59400001,4.66200002 C3.87500002,4.85000002 4.43700002,5.60000002 4.43700002,5.75000002 L4.43700002,6.12500003 C4.43700002,6.31200003 4.81200002,6.12500003 4.62500002,6.50000003 C4.43700002,6.87500003 4.43700002,6.50000003 4.25000002,6.50000003 C4.06200002,6.50000003 4.43700002,6.87500003 4.43700002,7.06200003 C4.43700002,7.25000003 3.50000001,6.87500003 3.87500002,6.31200003 C4.06200002,6.05000003 3.14400001,5.97500002 2.65600001,5.93700002 C2.93400001,5.48700002 3.24700001,5.06200002 3.59400001,4.66200002 Z M1.25000001,11 C1.25000001,10.145 1.36400001,9.29400004 1.58700001,8.46900004 C1.96200001,8.52500004 2.45000001,8.65600004 2.56200001,8.75000004 C2.67500001,8.84400004 2.56200001,8.93700004 2.75000001,9.31300004 C2.93700001,9.68700004 2.93700001,9.12500004 2.93700001,8.93700004 C2.93700001,8.75000004 3.12500001,8.37500003 3.12500001,8.00000003 C3.12500001,7.62500003 3.12500001,7.43700003 3.31200001,7.43700003 C3.50000001,7.43700003 3.68700002,7.43700003 3.68700002,7.81200003 C3.68700002,8.18700003 3.87500002,8.37500003 4.06200002,8.18700003 C4.25000002,8.00000003 4.43700002,8.18700003 4.43700002,8.56200004 C4.43700002,8.93700004 4.81200002,8.93700004 4.81200002,9.12500004 C4.81200002,9.31300004 4.62500002,9.31300004 4.25000002,9.31300004 C3.87500002,9.31300004 3.50000001,9.68700004 3.87500002,9.68700004 C4.25000002,9.68700004 4.06200002,10.063 4.06200002,10.063 L3.31200001,10.813 C2.93700001,11.187 3.12500001,11.187 3.12500001,11.75 C3.12500001,12.3130001 2.75000001,12.1250001 2.56200001,11.938 C2.43200001,11.806 1.68200001,11.863 1.28700001,11.918 L1.25000001,11 Z M6.68700003,16.0630001 C6.68700003,16.4380001 6.50000003,16.4380001 6.12500003,16.8130001 C5.75000002,17.1880001 5.93700002,17.1880001 5.75000002,17.3750001 C5.57879608,17.5231077 5.38964526,17.6490963 5.18700002,17.7500001 L4.58700002,18.3500001 C3.2393866,17.1733856 2.24074601,15.6493086 1.70000001,13.9440001 C2.00000001,13.6810001 2.45000001,13.3060001 2.56200001,13.4370001 C2.75000001,13.6250001 2.75000001,13.8130001 2.93700001,14.0000001 C3.12500001,14.1880001 3.68700002,13.6250001 3.68700002,13.6250001 C3.95129052,13.5180188 4.25442125,13.5940036 4.43700002,13.8130001 C4.81200002,14.1870001 4.81200002,14.0000001 5.00000002,14.0000001 C5.18700002,14.0000001 5.37500002,14.1880001 5.56200002,14.5630001 C5.75000002,14.9370001 6.12500003,14.7500001 6.50000003,14.9370001 C6.87500003,15.1250001 7.06200003,15.1250001 7.06200003,15.3130001 C7.06200003,15.5000001 6.68700003,15.6880001 6.68700003,16.0630001 Z M19.8120001,13.4380001 C19.6250001,13.6250001 19.2500001,13.3630001 19.2500001,13.6250001 C19.2500001,13.8130001 19.2310001,14.3380001 19.0620001,14.0000001 C18.8750001,13.6250001 19.0620001,13.0620001 18.8750001,13.0620001 C18.6870001,13.0620001 18.5000001,12.5000001 18.3120001,12.5000001 C18.1250001,12.5000001 17.7500001,12.8750001 17.5620001,13.0630001 C17.3750001,13.2500001 17.3750001,14.0000001 17.1870001,13.8130001 C17.0000001,13.6250001 16.8120001,13.0630001 16.6250001,12.6870001 C16.5120001,12.4440001 15.6870001,12.3130001 15.5000001,12.1250001 C15.3690001,11.994 14.5620001,11.562 14.5620001,11.75 C14.6090001,12.0320001 14.7400001,12.2930001 14.9380001,12.5000001 C15.1250001,12.6880001 15.1250001,12.5000001 15.3120001,12.5000001 C15.6870001,12.5000001 15.6870001,12.6880001 15.5000001,12.8750001 C15.3120001,13.0630001 14.7500001,13.4380001 14.3750001,13.4380001 C14.0000001,13.4380001 14.0000001,12.8750001 13.8120001,12.5000001 C13.7000001,12.2560001 13.4560001,11.937 13.2500001,12.2380001 C13.0440001,12.5380001 13.6810001,13.2880001 13.9250001,13.5500001 C14.1210001,13.7310001 14.3710001,13.8430001 14.6370001,13.8690001 C15.1250001,14.0000001 14.0000001,14.9380001 13.8120001,15.3130001 C13.6440001,15.6500001 13.8120001,15.6880001 13.8120001,15.8750001 C13.8120001,16.0630001 13.4380001,16.4380001 13.2500001,16.8130001 C13.0620001,17.1880001 12.5000001,17.9380001 11.937,17.7500001 C11.7439226,17.6180512 11.6097865,17.4161298 11.563,17.1870001 C11.563,16.9250001 11.375,16.8120001 11.375,16.4370001 C11.375,16.0250001 11.375,15.5000001 11,15.1250001 C10.812,14.9370001 10.812,14.5620001 10.625,14.3750001 C10.4,14.1500001 10.156,14.3750001 9.91200004,14.4310001 C9.68100004,14.5110001 9.42700004,14.5050001 9.20000004,14.4130001 C9.20000004,14.4130001 8.37500003,13.8130001 8.37500003,13.4370001 C8.37500003,13.2500001 8.56200004,12.8750001 8.75000004,12.5570001 C9.10600004,11.919 9.25600004,11.919 9.48100004,11.731 C9.70600004,11.544 9.96900004,11.394 10.194,11.469 C10.4569698,11.5582904 10.7264359,11.6271613 11,11.675 C11.222,11.7 11.437,11.764 11.637,11.863 C11.75,11.938 12.0120001,11.843 12.2570001,11.788 C12.4070001,11.788 12.6870001,11.938 12.8750001,11.938 C13.0630001,11.938 13.6250001,11.375 13.4380001,11.188 C13.2500001,11 13.2500001,11 13.0620001,11 C12.8750001,11 12.6880001,11 12.6880001,10.812 C12.6980308,10.609746 12.859746,10.4480308 13.0620001,10.438 L13.4380001,10.438 C13.6250001,10.438 14.0000001,10.438 14.0000001,10.25 C14.0000001,9.98800004 14.0000001,10.062 13.8120001,10.062 C13.6250001,10.062 13.6250001,9.87500004 13.4380001,9.87500004 L13.0620001,9.87500004 C12.8750001,9.87500004 12.8750001,10.25 12.6880001,10.438 C12.5000001,10.625 12.3120001,10.438 12.3120001,10.625 C12.3120001,10.813 12.5000001,11 12.3120001,11 C12.109382,10.9899263 11.9475328,10.8276443 11.938,10.625 C11.938,10.437 11.956,10.475 11.75,10.25 C11.544,10.025 11.562,10.062 11.375,10.062 C11.375,10.062 11.187,10.062 11.375,10.25 C11.563,10.438 11.75,10.438 11.75,10.625 C11.7502678,10.6749424 11.7305468,10.7229166 11.6952317,10.7582317 C11.6599166,10.7935468 11.6119424,10.8132678 11.562,10.813 C11.375,10.813 11.562,10.25 11,10.25 C10.812,10.25 10.25,10.25 10.25,10.438 C10.25,10.625 10.325,11 10.062,11 C9.87500004,11 9.87500004,11 9.50000004,10.812 C9.25600004,10.7 9.31200004,10.25 9.50000004,10.25 L9.68800004,10.25 C9.95000004,10.25 9.87500004,10.062 9.87500004,9.87500004 L9.87500004,9.50000004 C9.87500004,9.50000004 9.87500004,9.31200004 10.25,9.31200004 C10.438,9.31200004 10.438,9.12500004 10.625,8.93700004 C10.813,8.75000004 10.813,8.56200004 11,8.56200004 C11.188,8.56200004 11.375,8.75000004 11.563,8.75000004 C11.75,8.75000004 12.1250001,8.75000004 12.1250001,8.56200004 C12.1250001,8.37500003 11.994,8.31900003 12.1250001,8.18700003 C12.3130001,8.00000003 12.5000001,7.81200003 12.6880001,7.81200003 C12.7912773,7.81200003 12.8750001,7.72827728 12.8750001,7.62500003 C12.8750001,7.43700003 12.2560001,7.56900003 12.1250001,7.43700003 C11.937,7.25000003 12.3130001,7.06200003 12.5000001,6.87500003 C12.6880001,6.68700003 12.3120001,6.68700003 12.3120001,6.68700003 C12.1250001,6.68700003 11.75,6.98700003 11.75,7.25000003 C11.75,7.43700003 11.806,8.26200003 11.562,8.37500003 C11.188,8.56200004 11.188,8.37500003 11.188,8.18700003 C11.188,8.00000003 11.375,8.00000003 11.188,7.81200003 C11,7.62500003 11,8.00000003 10.812,8.00000003 C10.625,8.00000003 10.625,7.62500003 10.812,7.43700003 C11,7.25000003 11.469,5.56200002 12.3120001,5.56200002 L12.8750001,5.56200002 C13.0630001,5.56200002 13.4940001,5.99400002 13.6250001,6.12500003 C13.8130001,6.31200003 13.8130001,6.50000003 13.6250001,6.50000003 L13.2500001,6.50000003 C13.2500001,6.50000003 13.0620001,6.50000003 13.2500001,6.68700003 C13.4380001,6.87500003 13.4380001,7.06200003 13.6250001,7.06200003 C13.8130001,7.06200003 13.9440001,6.87500003 13.9630001,6.68700003 C13.9810001,6.50000003 14.5630001,6.12500003 14.7500001,6.12500003 C15.3130001,6.12500003 15.5000001,5.93700002 15.6880001,5.93700002 C15.8750001,5.93700002 15.8940001,6.14400003 16.0630001,5.93700002 C16.2310001,5.73100002 16.0630001,5.56200002 16.0630001,5.37500002 C16.0630001,5.18700002 16.4380001,5.00000002 16.4380001,5.18700002 L16.4380001,5.56200002 C16.4380001,5.75000002 16.6630001,5.54400002 16.6440001,5.37500002 C16.6250001,5.20600002 16.8130001,5.18700002 17.0000001,5.00000002 C17.1310001,4.86900002 18.0310001,4.81200002 18.5380001,4.81200002 C20.2620774,6.90564247 21.0302473,9.62579076 20.6560001,12.3120001 L19.8130001,13.0620001 C19.6250001,13.2500001 20.0000001,13.2500001 19.8130001,13.4380001 L19.8120001,13.4380001 Z"/>
  </defs>
  <g fill="none" fill-rule="evenodd" transform="translate(1 1)">
    <mask id="world-b" fill="#fff">
      <use xlink:href="#world-a"/>
    </mask>
    <g fill="#383838" mask="url(#world-b)">
      <polygon points="0 0 24 0 24 24 0 24" transform="translate(-1 -1)"/>
    </g>
  </g>
</svg>
