<svg xmlns="http://www.w3.org/2000/svg" viewBox="0 0 128 128"><path d="M110 54a10 10 0 0 0-3 .5 43.7 43.7 0 0 0-5.9-14.2A10 10 0 1 0 87.6 27a43.7 43.7 0 0 0-14-5.8 10 10 0 1 0-19 0 43.7 43.7 0 0 0-14 5.8 10 10 0 1 0-13.7 13.4A43.7 43.7 0 0 0 21 54.5a10 10 0 1 0 0 19 43.7 43.7 0 0 0 5.8 14A10 10 0 1 0 40.3 101a43.8 43.8 0 0 0 10.3 4.9l-2 10.5a3 3 0 0 0 2.9 3.6h24.8a3 3 0 0 0 3-3.6L77.2 106a43.8 43.8 0 0 0 10.7-5 10 10 0 1 0 13.5-14 43.7 43.7 0 0 0 5.6-13.6 10 10 0 1 0 3-19.5zm-36.3 7.5a10 10 0 0 0-1.2-2.7l18.6-18.5a35.8 35.8 0 0 1 8.8 21.2zM69 55.3a10 10 0 0 0-2.5-1V28.1a35.8 35.8 0 0 1 21 8.7zm-7.5-1a10 10 0 0 0-2.6 1.1L40.3 37a35.8 35.8 0 0 1 21.2-8.9zM55.4 59a10 10 0 0 0-1 2.5H28a35.8 35.8 0 0 1 8.7-21zm-1 7.5a10 10 0 0 0 1 2.5L36.8 87.5a35.8 35.8 0 0 1-8.7-21zM91 87.3L72.6 69a10 10 0 0 0 1-2.5H100a35.8 35.8 0 0 1-8.1 20.4l-.7.4zm-50.8 3.8l18.5-18.5a10 10 0 0 0 2.7 1V90h-5.2a3 3 0 0 0-3 2.4l-1 5.6a36 36 0 0 1-12-7zm34.2 1.3a3 3 0 0 0-3-2.4h-5V73.7a10 10 0 0 0 2.7-1.1L87.6 91l-.1.3A36 36 0 0 1 75.6 98z"/></svg>