<svg xmlns="http://www.w3.org/2000/svg" viewBox="0 0 128 128"><path d="M62.6 70.8h-5.3c-1.6.3-2.4 1.4-2.4 3.4V84h7.8c3.8 0 6.2-2.5 6.2-6.6s-2.5-6.5-6.3-6.5zm4.6-13.3c0-3.5-2-5.6-5.5-5.6h-4c-2 .1-2.9 1.2-2.9 3.4v8.1h7c4 0 5.4-3.1 5.4-5.9z"/><path d="M103.6 57.3A15 15 0 0 0 89 39h-1.2A35 35 0 0 0 24 59v1.8a22 22 0 0 0 6 43.2h66a24 24 0 0 0 7.6-46.8zM62 92H46V49a5 5 0 0 1 4.7-5h11.1c8.8 0 14.4 4.9 14.4 12.5a11.8 11.8 0 0 1-3.8 9l-1.2 1.1 1.4.9C76 69.5 78 73.4 78 78c0 8.5-6.3 14-16 14zm26 0a6 6 0 1 1 6-6 6 6 0 0 1-6 6z"/></svg>