<svg xmlns="http://www.w3.org/2000/svg" viewBox="0 0 128 128"><path d="M117.3 112.2h-.2a203 203 0 0 0-69.1-8V72h32v-4a36 36 0 0 0-32-35.8V28a4 4 0 0 0-8 0v4.2A36 36 0 0 0 8 68v4h32v33a125.5 125.5 0 0 0-29.4 7.3 4 4 0 1 0 2.8 7.4c44-16.9 95.6-1.7 101.3.1a4.5 4.5 0 0 0 1.4.2 4 4 0 0 0 3.7-2.7 4 4 0 0 0-2.5-5zM36.2 64A56.6 56.6 0 0 1 44 41.2 56.6 56.6 0 0 1 51.8 64zm35.5 0H59.8a61.6 61.6 0 0 0-6.4-22.4A28 28 0 0 1 71.7 64zm-37-22.4A61.6 61.6 0 0 0 28.1 64h-12a28 28 0 0 1 18.4-22.4zM116 112a4 4 0 0 0-.8 0 3.7 3.7 0 0 1 1.9.1 4 4 0 0 0-1.1-.1zM96 16.5A15.4 15.4 0 0 1 98.5 8H120v21.4a15.5 15.5 0 0 1-24-13zM76 17c0-2.5 7.4-3.5 9.4-7.1A5.6 5.6 0 0 0 85 8h7a21.9 21.9 0 0 0 28 29.3v6.4a4.8 4.8 0 0 0-.9 0c-3.6 2-4.7 9.3-7.1 9.3s-3.5-7.4-7.1-9.4c-4.2 0-8.8 5.9-10.9 4.6s.7-8.1-1.5-11.7C89 34.3 82 37.1 80.8 35s4.6-6.7 4.6-10.9c-2-3.6-9.5-4.7-9.4-7.1z"/></svg>