<svg xmlns="http://www.w3.org/2000/svg" viewBox="0 0 128 128"><path d="M32 72a24 24 0 1 0 24 24 24 24 0 0 0-24-24zm0 40a16 16 0 1 1 16-16 16 16 0 0 1-16 16zm64-40a24 24 0 1 0 24 24 24 24 0 0 0-24-24zm0 40a16 16 0 1 1 16-16 16 16 0 0 1-16 16zM72 28a12 12 0 1 1 12 12 12 12 0 0 1-12-12zm-.1 49.3l-5 23.7a3.7 3.7 0 0 1-7.4-1l1.2-20.9-1-.7-16.6-12c-2.1-1.5-3.1-4-3.1-7.1a10.1 10.1 0 0 1 3-7.2l17-15.7a5.6 5.6 0 0 1 6.8-.5l.4.3 27.2 20.6a4 4 0 0 1-4.5 6.6L69.8 51l-11 11 11.6 10.4.4.4a4.6 4.6 0 0 1 1 4.5z"/></svg>