<svg xmlns="http://www.w3.org/2000/svg" viewBox="0 0 128 128"><path d="M32 72a24 24 0 1 0 24 24 24 24 0 0 0-24-24zm0 40a16 16 0 1 1 16-16 16 16 0 0 1-16 16zm64-40a24 24 0 1 0 24 24 24 24 0 0 0-24-24zm0 40a16 16 0 1 1 16-16 16 16 0 0 1-16 16zM72 28a12 12 0 1 1 12 12 12 12 0 0 1-12-12zm-.1 49.3l-5 23.7a3.7 3.7 0 0 1-7.4-1l1.2-20.9-1-.7-16.6-12c-2.1-1.5-3.1-4-3.1-7.1a10.1 10.1 0 0 1 3-7.2l17-15.7a5.6 5.6 0 0 1 6.8-.5l.4.3 27.2 20.6a4 4 0 0 1-4.5 6.6L69.8 51l-11 11 11.6 10.4.4.4a4.6 4.6 0 0 1 1 4.5zM16 36a.8.8 0 0 1 .5-1l4.2-1.9a.7.7 0 0 1 1 .5 6.8 6.8 0 0 0 6.7 4.7 6 6 0 0 0 3.8-1 3.1 3.1 0 0 0 1.4-2.6q0-3-6.5-4.6a17.4 17.4 0 0 1-7.3-3.4 7.6 7.6 0 0 1-2.6-6 7.7 7.7 0 0 1 3.2-6.3 11.3 11.3 0 0 1 4.8-2.1V9.4A1.4 1.4 0 0 1 26.6 8h2.8A1.4 1.4 0 0 1 31 9.4v2.7a11 11 0 0 1 3.9 1.3 12.3 12.3 0 0 1 4.3 4.3q.3.5-.4 1l-3.6 2.5q-.5.4-.8-.2a6.8 6.8 0 0 0-6.1-3.6 6.3 6.3 0 0 0-3.5 1 2.6 2.6 0 0 0-1.4 2.1 3 3 0 0 0 1.7 2.7 19.2 19.2 0 0 0 5.5 2 15.8 15.8 0 0 1 7 3.2A7.4 7.4 0 0 1 40 34a8.9 8.9 0 0 1-3.4 7.2 11.8 11.8 0 0 1-5.7 2.6v2.7a1.4 1.4 0 0 1-1.5 1.4h-2.8a1.4 1.4 0 0 1-1.4-1.4v-2.8a12.2 12.2 0 0 1-4.7-2A11.2 11.2 0 0 1 16 36z"/></svg>