<svg xmlns="http://www.w3.org/2000/svg" viewBox="0 0 128 128"><path d="M75.7 79.7l38.1-17a3.1 3.1 0 0 1 4.2 1.6s5.7 13.4-2.2 31.2c-.4.8-2.9 4.4-6.7 3.5l-31.5-6.8a5.1 5.1 0 0 1-3.6-3.8l-.7-4.2a4.3 4.3 0 0 1 2.4-4.5zm1.1 40.1c10.6 1.6 19.5-5.4 25.3-10 0 0 3.1-2.7-1.5-4l-20.6-6a4.2 4.2 0 0 0-4.6 2 17.7 17.7 0 0 1-5.8 5.7c-4 2.4-5.7 10.5 7.2 12.3zm41-68.2L71.5 73.2a5.4 5.4 0 0 1-5.3-.7l-4.8-4.1-4.8-4.1a5.3 5.3 0 0 1-1.5-5.2l14.7-48.7a3.5 3.5 0 0 1 4-2.3 72.7 72.7 0 0 1 27.6 14.2 72.1 72.1 0 0 1 18.2 25 3.5 3.5 0 0 1-1.7 4.3zm-68.8 4a4.4 4.4 0 0 1-4 3l-4.3-.1a5.1 5.1 0 0 1-4.4-3l-11.5-30c-1.4-3.6 1.9-6.5 2.6-7.1C43.9 8 58 11.7 58 11.7a3.1 3.1 0 0 1 2.1 3.8zm-26.7 10c-1.9 4.2-9.6 7.1-13.4-5.4-3-10 2.6-19.9 6.2-26.3 0 0 2.3-3.4 4.3 1l8.9 19.3A4.2 4.2 0 0 1 27 59a17.7 17.7 0 0 0-4.9 6.6z"/></svg>