<svg xmlns="http://www.w3.org/2000/svg" viewBox="0 0 128 128"><path d="M108 72a12 12 0 0 1 12-12V48.3a8 8 0 0 0-4.4-7.1L49.3 9A7 7 0 0 0 46 8a9.6 9.6 0 0 0-3 .6C21.6 16.7 8 39.2 8 63.4V112a8 8 0 0 0 9.4 7.9l96-17.2a8 8 0 0 0 6.6-7.9V84a12 12 0 0 1-12-12zm-78 28a10 10 0 1 1 10-10 10 10 0 0 1-10 10zm16-24a6 6 0 1 1 6-6 6 6 0 0 1-6 6zm26 24a8 8 0 1 1 8-8 8 8 0 0 1-8 8zm16-48a12 12 0 0 1-23.8 2L16 62.6a52.8 52.8 0 0 1 9-28.3c5.7-8.4 12.3-15 21-18.3l7.3 3.6C50.1 21.5 48 24.4 48 27c0 5 7.2 9 16 9a26 26 0 0 0 14.3-4.2l29.4 14.4-20 3.5A12 12 0 0 1 88 52z"/></svg>