<svg xmlns="http://www.w3.org/2000/svg" viewBox="0 0 128 128"><path d="M82.8 71.4A23.7 23.7 0 0 0 97 76a24 24 0 1 0-9.6-46A32 32 0 0 0 33 32.4 20 20 0 1 0 29 72a19.8 19.8 0 0 0 8.7-2 32 32 0 0 0 45.1 1.4zm-41-9a4 4 0 0 0-2.7-1.6 3.9 3.9 0 0 0-.5 0 4 4 0 0 0-2.4.8A11.9 11.9 0 0 1 29 64a12 12 0 1 1 4.6-23 4 4 0 0 0 5.2-2.2A24 24 0 0 1 82.4 37a4 4 0 0 0 5.8 1.6A16 16 0 1 1 85.5 63a4 4 0 0 0-6 .2 24 24 0 0 1-37.7-1zM120 83.7a28.3 28.3 0 0 1-47.4 21 21.1 21.1 0 0 1-12.2 3.8A21.4 21.4 0 0 1 39 87.1a4 4 0 0 1 8 0 13.4 13.4 0 0 0 13.4 13.4 13.3 13.3 0 0 0 9.6-4.1 4 4 0 0 1 3-1.2 4 4 0 0 1 3 1.4 20.3 20.3 0 0 0 36-13 4 4 0 0 1 8 0z"/></svg>