<svg xmlns="http://www.w3.org/2000/svg" viewBox="0 0 128 128"><path d="M117.1 66.4a24.7 24.7 0 0 1-4.6.5c-4.4 0-11.2-1.4-16.8-9a3.7 3.7 0 0 1-.8-2 55.8 55.8 0 0 1-10 .9H84a28.5 28.5 0 0 1-9.9 6.1 34.7 34.7 0 0 0-15.5 11.7c-5.3 6.5-3 15.5.5 22.7a16.4 16.4 0 0 1 6.2-4.4c-.8-3.6-.7-9.8 4.8-17.4a3.8 3.8 0 0 1 6.2 4.5c-4 5.4-4 9.4-3.6 11.2a77.2 77.2 0 0 1 8.7 0h2c1.1-3 2.7-8.4 1.2-13.2a3.7 3.7 0 1 1 7.2-2.2 28 28 0 0 1-.5 15.2 26 26 0 0 0 12.5-4.3A3.8 3.8 0 0 1 108 93a37 37 0 0 1-21.6 5.7 3.9 3.9 0 0 1-.5 0h-4.4l.2.4a6 6 0 0 0 5.8 3.5 3.7 3.7 0 0 1 3.7 3.6v.2a3.8 3.8 0 0 1-3.7 3.7c-8.7 0-12.6-6.2-14-11.4-4.9.3-8.1 1.7-10.3 5.8 2.1 3.1 3.9 5.2 3.9 5.2a1.7 1.7 0 0 1 .4.5 28.8 28.8 0 0 1 2.5 5 3.8 3.8 0 0 1-2.3 4.8 4.7 4.7 0 0 0-1.3-.1 3.9 3.9 0 0 1-3.6-2.7 22.4 22.4 0 0 0-1.5-3 74.2 74.2 0 0 1-6.6-9.4 55.7 55.7 0 0 0-6-1.7c-.6 2.6-1.3 6-3.4 8.8a4.6 4.6 0 0 1-3 1.2 4.1 4.1 0 0 1-2.4-.7 3.8 3.8 0 0 1-.6-5.3 13.3 13.3 0 0 0 1.9-5c-6.4 0-9.6 1.6-9.6 1.6l-.3.3a3.7 3.7 0 0 1-4.7-1 3.8 3.8 0 0 1 .2-4.6l.8-1c2.5-1.1 8.5-5 22.7-1.7a35.9 35.9 0 0 1-2.4-11.2c-4.5-2.3-6.8-.1-7.9.8a2.2 2.2 0 0 1-.6.5 14.2 14.2 0 0 1-9.8 4h-1a3.8 3.8 0 0 1 .2-7.5h.2a6.8 6.8 0 0 0 5.1-1.9 2 2 0 0 1 1-.7 13.3 13.3 0 0 1 13.8-3 20.7 20.7 0 0 1 .9-2.3v-.1s3.2-8.3-.4-14C46 66.6 38.6 70.8 27.8 72.5a103.8 103.8 0 0 1-11.6.6l-4.8-.1a3.7 3.7 0 0 1 .6-7.4c7.4.6 27.4-.2 31.4-10a26 26 0 0 0-7.5-1.6c-12-1-19.6-11.1-20-11.5a3.8 3.8 0 1 1 6-4.5 23.8 23.8 0 0 0 9.3 7.2c1-11-4.8-15.5-5-15.5a3.8 3.8 0 0 1 4.6-6c.4.4 9.7 7.4 7.8 23A31.4 31.4 0 0 1 47 49a13.8 13.8 0 0 0 .4-8.7 32.4 32.4 0 0 0-1-3.3c-1.8-5.5-9.7-11.8-5.7-24.3a3.8 3.8 0 0 1 4.8-2.5 3.6 3.6 0 0 1 2.4 4.6v.2a14.4 14.4 0 0 0-.1 9.3A31.2 31.2 0 0 0 59 10.5a3.8 3.8 0 0 1 7.1 2.4 37.6 37.6 0 0 1-14.8 17.9 15 15 0 0 1 2 3.8 30.8 30.8 0 0 1 1 3.7A20.5 20.5 0 0 1 53.1 53a17.2 17.2 0 0 1 2.6 3.3 19 19 0 0 1 2.5 7.4 37.6 37.6 0 0 1 8.7-6c.2-.3 3.8-5.1-4.2-16.7a3.8 3.8 0 1 1 6.1-4.4l.1.2c5 7.3 6.5 13 6.6 17a14.8 14.8 0 0 0 3.6-3 3.8 3.8 0 0 1 .6-.7 12.5 12.5 0 0 0 1-1.4c2.7-4.2 2.7-7.8 2.6-12.3A11.6 11.6 0 0 1 76 33c-6-6.3-5.3-12-5.2-13.5a3.9 3.9 0 0 1 3.9-3.6 3.8 3.8 0 0 1 3.6 3.9c-.1 4.2.2 5 3.2 8a3.3 3.3 0 0 0 2.1 1.1 26.3 26.3 0 0 1 4.5-11.6 3.8 3.8 0 1 1 6.3 4.2v.1c-3.8 5.4-3.7 9.6-3.6 14.6.1 3.9.2 8.2-1.7 12.9 14.7-1 18.2-7.8 18.2-7.9a3.8 3.8 0 0 1 6.7 3.3c0 .4-2.8 5.8-11.4 9.3 5.4 7 12.1 5 12.2 5a4 4 0 0 1 2.4 7.6h-.1z"/></svg>