<svg xmlns="http://www.w3.org/2000/svg" viewBox="0 0 128 128"><path d="M104 35s-7.2-.6-10.9 5a27.4 27.4 0 0 0-1.9-3.8A16.5 16.5 0 0 0 80.7 8a18 18 0 0 1-2.4 17.7 34.4 34.4 0 0 0-11.3-2h-6a34.4 34.4 0 0 0-11.3 2A18 18 0 0 1 47.4 8a16.5 16.5 0 0 0-11 28.7A27.7 27.7 0 0 0 35 40c-3.8-5.5-11-5-11-5C8 35 8 45 8 45c11.2 11.2 21 3 21 3a4.8 4.8 0 0 1 3.4 1.4A51.9 51.9 0 0 0 32 56a108 108 0 0 0 5 28.7 28 28 0 1 0 54 0A108 108 0 0 0 96 56a51.9 51.9 0 0 0-.4-6.7A4.8 4.8 0 0 1 99 48s9.8 8.2 21-3c0 0 0-10-16-10zM52 64a4 4 0 1 1 4-4 4 4 0 0 1-4 4zm24 0a4 4 0 1 1 4-4 4 4 0 0 1-4 4z"/></svg>