<svg xmlns="http://www.w3.org/2000/svg" viewBox="0 0 128 128"><path d="M39.3 96A50 50 0 0 1 9.8 85.2a4.6 4.6 0 0 1-1.1-6 3.8 3.8 0 0 1 5.5-1.3c21.1 15 34.5 9.1 50 2.2 14.5-6.4 30.8-13.7 53.6-1.3a4.5 4.5 0 0 1 1.8 5.8 3.9 3.9 0 0 1-5.4 2c-19.5-10.7-32.8-4.8-47 1.5-8.7 3.9-17.6 7.9-28 7.9zm28 8.1c14-6.3 27.4-12.2 46.9-1.6a3.9 3.9 0 0 0 5.4-2 4.5 4.5 0 0 0-1.8-5.8c-22.8-12.4-39.1-5-53.5 1.4-15.6 6.9-29 12.9-50.1-2.2a3.8 3.8 0 0 0-5.6 1.3 4.6 4.6 0 0 0 1.2 6A50 50 0 0 0 39.3 112c10.3 0 19.2-4 28-7.9zm-28-24.8a27 27 0 0 0 4.6-.4 28.1 28.1 0 0 1 4.6-15.3A28.4 28.4 0 0 1 92.2 59c5.4 5.3 12-3.1 4.3-10.7 3-6.3-2.5-14.6-8.3-16.7A39.7 39.7 0 0 0 67.5 30a50.7 50.7 0 0 0-22.7-14 1.9 1.9 0 0 0-2.2 3c0 .1 6.2 9.4 5.2 19l-2 1.6a46.7 46.7 0 0 0-14 18A44.7 44.7 0 0 0 28 76.8a27.8 27.8 0 0 0 11.3 2.6z"/></svg>