<svg xmlns="http://www.w3.org/2000/svg" viewBox="0 0 128 128"><path d="M80 116a4 4 0 0 1 4-4h25.8a2.2 2.2 0 0 0 2.2-2.2V66.2a2.2 2.2 0 0 0-2.2-2.2H84a4 4 0 0 1-4-4 4 4 0 0 1 4-4h28a8 8 0 0 1 8 8v48a8 8 0 0 1-8 8H84a4 4 0 0 1-4-4zm19.9-29.3L82.3 72.3a1.6 1.6 0 0 0-2.5 1.3V84H50a4 4 0 0 0 0 8h29.8v10.4a1.6 1.6 0 0 0 2.4 1.3L100 89.3a1.6 1.6 0 0 0 0-2.6zM38 15.9a22 22 0 1 0 22 22 22 22 0 0 0-22-22m0-8A30 30 0 1 1 8 38 30 30 0 0 1 38 8zm-6 15.7V42a4 4 0 0 0 1.1 2.8l8 8.3a4 4 0 0 0 5.6.2 4 4 0 0 0 .2-5.8l-5.7-5.7a4 4 0 0 1-1.2-2.9V23.6a4 4 0 0 0-4-4 4 4 0 0 0-4 4z"/></svg>