<svg xmlns="http://www.w3.org/2000/svg" viewBox="0 0 128 128"><path d="M92 12a24 24 0 1 0 24 24 24 24 0 0 0-24-24zm16 27a1 1 0 0 1-1 1H97a1 1 0 0 0-1 1v10a1 1 0 0 1-1 1h-6a1 1 0 0 1-1-1V41a1 1 0 0 0-1-1H77a1 1 0 0 1-1-1v-6a1 1 0 0 1 1-1h10a1 1 0 0 0 1-1V21a1 1 0 0 1 1-1h6a1 1 0 0 1 1 1v10a1 1 0 0 0 1 1h10a1 1 0 0 1 1 1zm12 12.5V112a8 8 0 0 1-.3 2l-34-34 12.6-12.6h.1A31.5 31.5 0 0 0 120 51.5zM14 40.3a8 8 0 0 1 2-.3h44.3a32 32 0 0 0 26.4 27.6L64 90.3zM42.3 80l-34 34a8 8 0 0 1-.3-2V48a8 8 0 0 1 .3-2zm71.8 39.7a8 8 0 0 1-2.1.3H16a8 8 0 0 1-2-.3l34-34 13.2 13.1a4 4 0 0 0 5.6 0L80 85.7z"/></svg>