<svg xmlns="http://www.w3.org/2000/svg" viewBox="0 0 128 128"><path d="M8.7 66.3a4 4 0 0 1 0-4.6C14.7 53.2 37.2 24 64 24a43.7 43.7 0 0 1 18.3 4.3L70 40.9A24 24 0 0 0 40.7 70L25.3 85.4A128.3 128.3 0 0 1 8.7 66.3zm54-18.2A16 16 0 0 0 48 62.6zm56.6 18.2c-6 8.5-28.5 37.7-55.3 37.7-9.3 0-18.1-3.5-25.9-8.5l-15.3 15.3a4 4 0 0 1-5.6-5.6l88-88a4 4 0 0 1 5.6 5.6L96.5 37.2a122.8 122.8 0 0 1 22.8 24.5 4 4 0 0 1 0 4.6zM88 64a23.9 23.9 0 0 0-4.5-13.9L77.8 56a15.9 15.9 0 0 1 2.2 8 16 16 0 0 1-16 16 15.9 15.9 0 0 1-8.1-2.2L50 83.5A24 24 0 0 0 88 64z"/></svg>