<svg xmlns="http://www.w3.org/2000/svg" viewBox="0 0 128 128"><path d="M86 106h30a4 4 0 0 1 4 4 4 4 0 0 1-4 4H86v-8zm-6-2.5v13a2.5 2.5 0 0 1-5 0V114h-9a4 4 0 0 1 0-8h9v-2.5a2.5 2.5 0 1 1 5 0zM91 64h25a4 4 0 0 1 4 4 4 4 0 0 1-4 4H91v-8zm15 21h10a4 4 0 0 1 4 4 4 4 0 0 1-4 4h-10v-8zm-6-2.5v13a2.5 2.5 0 0 1-5 0V93H69v-8h26v-2.5a2.5 2.5 0 1 1 5 0zm-15-21v13a2.5 2.5 0 0 1-5 0V72H69v-8h11v-2.5a2.5 2.5 0 1 1 5 0z"/><path d="M96.2 18.4a664 664 0 0 1-35 41.9V88c0 4.3-4 7.7-8.7 8-4.7-.2-8.7-3.6-8.7-8V60.3s-29.5-33.1-35-41.9a2.8 2.8 0 0 1-.8-1.9C8 11.3 28 7 52.5 7S97 11.3 97 16.5a2.8 2.8 0 0 1-.8 1.9zm-13.5 5.7a3.2 3.2 0 0 0-3.1-5.6c-.1.1-10.8 6-27 6a66.1 66.1 0 0 1-28-6 3.2 3.2 0 0 0-3 5.7c.5.2 13 6.7 30.9 6.7s29.7-6.5 30.2-6.8z"/></svg>