<svg xmlns="http://www.w3.org/2000/svg" viewBox="0 0 128 128"><path d="M64 39.4c0-12.7-4-24-10.2-31.4H18.2A49.6 49.6 0 0 0 8 39.4c0 20.4 10.4 37.4 24 40.2V112H20a4 4 0 0 0 0 8h32a4 4 0 0 0 0-8H40V79.6c13.6-2.8 24-19.8 24-40.2zM22.2 16h27.6c4 6.2 6.2 14.5 6.2 23.4v.6H16v-.6c0-9 2.2-17.2 6.2-23.4zM120 44a12 12 0 0 1-12 12h-3.6l3.4 59.8a4 4 0 0 1-4 4.2h-7.6a4 4 0 0 1-4-4.2L95.6 56H92a12 12 0 0 1-12-12l3.9-35.1a1 1 0 0 1 1-.9H87a1 1 0 0 1 1 1v19a4 4 0 0 0 4 4h4.8L98 9a1 1 0 0 1 1-1h2a1 1 0 0 1 1 1l1.1 23h4.9a4 4 0 0 0 4-4V9a1 1 0 0 1 1-1h2.1a1 1 0 0 1 1 .9z"/></svg>