<svg xmlns="http://www.w3.org/2000/svg" viewBox="0 0 128 128"><path d="M64.2 8h-.4a7 7 0 1 0 .4 0zm-7.1 12.9L38 40l-2-2 19.6-19.6a9.7 9.7 0 0 0 1.5 2.5z"/><path d="M116.4 103.7c-.9-2-2-3.8-1.4-6 1.3-4.3 2.8-8.6 4-13a34.5 34.5 0 0 0 1-9.7c0-4.8-2.7-9.3-4-14-.6-2.1-1.7-4-.6-6.3s2.3-4.4 3.6-6.7c2-3.6.3-8.1-2-10-2.5-2-5.8-2-9-1-4 1.3-7 2-11 3a25.3 25.3 0 0 1-7 1c-2.5-.2-4-1.6-6-3a8.2 8.2 0 0 0-8-1c-2.8 1.1-5.5 2.3-8.3 3.3a9.8 9.8 0 0 1-7.4 0c-2.9-1-5.5-2.1-8.3-3.3a8.2 8.2 0 0 0-8 1c-2 1.4-3.5 2.8-6 3a25.3 25.3 0 0 1-7-1c-4-1-7-1.7-11-3-3.2-1-6.5-1-9 1-2.3 1.9-4 6.4-2 10l3.5 6.7c1.1 2.3 0 4.2-.5 6.3-1.3 4.6-4 9.2-4 14a34.5 34.5 0 0 0 1 9.8c1.2 4.3 2.7 8.6 4 12.9.5 2.1-.6 4-1.4 6a43.7 43.7 0 0 0-2.5 4.8C8 112 9 116 12 118a9 9 0 0 0 7.7 1.4L32 116a10.4 10.4 0 0 1 6.8-.2c2.2.7 4.3 1.8 6.5 2.6a28.6 28.6 0 0 0 4.4 1.4c2.8.6 5.2-.6 7.4-2C59 116.4 62 115 64 115s5 1.5 7 2.7c2.1 1.5 4.5 2.7 7.3 2.1a28.6 28.6 0 0 0 4.4-1.4c2.2-.8 4.3-1.9 6.5-2.6a10.4 10.4 0 0 1 6.8.2l12.3 3.5a9 9 0 0 0 7.7-1.5c3-2 4-6 2.8-9.6a43.7 43.7 0 0 0-2.4-4.7zM16.7 113a1.8 1.8 0 1 1 1.8-1.8 1.8 1.8 0 0 1-1.8 1.8zm0-66.5a1.8 1.8 0 1 1 1.8-1.8 1.8 1.8 0 0 1-1.8 1.8zM106 99a7 7 0 0 1-7 7H29a7 7 0 0 1-7-7V57a7 7 0 0 1 7-7h70a7 7 0 0 1 7 7zm5.3 14a1.8 1.8 0 1 1 1.7-1.8 1.8 1.8 0 0 1-1.7 1.8zm0-66.5a1.8 1.8 0 1 1 1.7-1.7 1.8 1.8 0 0 1-1.7 1.7z"/><path d="M70.8 20.9L90 40l2-2-19.6-19.6a9.7 9.7 0 0 1-1.6 2.5z"/><circle cx="85.2" cy="66.8" r="10.8"/><polygon points="99 102 81 84 73.8 91.2 55.8 73.2 27 102 99 102"/></svg>