<svg xmlns="http://www.w3.org/2000/svg" viewBox="0 0 128 128"><path d="M116 112H69V80.7a10.5 10.5 0 0 0 5.5-9.2 8.5 8.5 0 0 0-.2-1.7 8.5 8.5 0 0 0 1 1.4 10.5 10.5 0 0 0 14.9-14.9 8.5 8.5 0 0 0-1.4-1 8.5 8.5 0 0 0 1.7.2 10.5 10.5 0 0 0 0-21 8.5 8.5 0 0 0-1.7.2 8.5 8.5 0 0 0 1.4-1 10.5 10.5 0 1 0-14.9-14.9 8.5 8.5 0 0 0-1 1.4 8.5 8.5 0 0 0 .2-1.7 10.5 10.5 0 1 0-21 0 8.5 8.5 0 0 0 .2 1.7 8.5 8.5 0 0 0-1-1.4 10.5 10.5 0 0 0-14.9 14.9 8.5 8.5 0 0 0 1.4 1 8.5 8.5 0 0 0-1.7-.2 10.5 10.5 0 0 0 0 21 8.5 8.5 0 0 0 1.7-.2 8.5 8.5 0 0 0-1.4 1 10.5 10.5 0 0 0 14.9 14.9 8.5 8.5 0 0 0 1-1.4 8.5 8.5 0 0 0-.2 1.7 10.5 10.5 0 0 0 5.5 9.2V112H12a4 4 0 0 0 0 8h104a4 4 0 0 0 0-8zM87.3 68.3a6.5 6.5 0 0 1-9.1 0 42 42 0 0 1-5.1-12 15.6 15.6 0 0 0 2.4-2.2 42.2 42.2 0 0 1 11.8 5 6.5 6.5 0 0 1 0 9.2zM97 45a6.5 6.5 0 0 1-6.5 6.5c-2 0-6.7-2.1-11.3-4.5a15.6 15.6 0 0 0 .4-3.3v-.9c4.4-2.3 9-4.3 11-4.3A6.5 6.5 0 0 1 97 45zM78.2 21.7a6.5 6.5 0 0 1 9.1 9.1 37 37 0 0 1-10.2 4.6 15.6 15.6 0 0 0-3.3-3.8c1.4-4.5 3.1-8.7 4.4-10zM64 12a6.5 6.5 0 0 1 6.5 6.5c0 1.7-1.7 5.8-3.8 9.9a14.7 14.7 0 0 0-5.4 0 35 35 0 0 1-3.8-10A6.5 6.5 0 0 1 64 12zm-23.3 9.7a6.5 6.5 0 0 1 9.1 0 32 32 0 0 1 4.5 9.9 15.6 15.6 0 0 0-3.4 3.8 35 35 0 0 1-10.2-4.6 6.5 6.5 0 0 1 0-9.1zM31 45a6.5 6.5 0 0 1 6.5-6.5c1.9 0 6.5 2 11 4.3v1a15.6 15.6 0 0 0 .3 3.2 38.8 38.8 0 0 1-11.3 4.5A6.5 6.5 0 0 1 31 45zm18.8 23.3a6.5 6.5 0 0 1-9.1-9.1c1.4-1.5 6.7-3.5 11.8-5a15.6 15.6 0 0 0 2.4 2.1 42.1 42.1 0 0 1-5 12zm12.7-9.1h3c2.5 4.8 5 10.2 5 12.3a6.5 6.5 0 0 1-13 0c0-2 2.5-7.4 5-12.3zM48 104q-24 0-24-24 24 0 24 24zm56-24q0 24-24 24 0-24 24-24z"/></svg>