<svg xmlns="http://www.w3.org/2000/svg" viewBox="0 0 128 128"><path d="M9.2 14.8a4 4 0 0 1 5.6-5.6l34 34a4 4 0 1 1-5.6 5.6zm17.6 36a4 4 0 0 0 0-5.6l-12-12a4 4 0 1 0-5.6 5.6l12 12a4 4 0 0 0 5.6 0zm18.4-24a4 4 0 0 0 5.6-5.6l-12-12a4 4 0 0 0-5.6 5.6zM72 64V46.6a16 16 0 0 0-4.7-11.3L56 24v17.4a16 16 0 0 0 4.7 11.3zm-19.3-3.3A16 16 0 0 0 41.4 56H24l11.3 11.3A16 16 0 0 0 46.6 72H64zm24 24A16 16 0 0 0 65.4 80H48l11.3 11.3A16 16 0 0 0 70.6 96H88zM89.4 104H72l11.3 11.3a16 16 0 0 0 11.3 4.7H112l-11.3-11.3a16 16 0 0 0-11.3-4.7zM96 88V70.6a16 16 0 0 0-4.7-11.3L80 48v17.4a16 16 0 0 0 4.7 11.3zm19.3-4.7L104 72v17.4a16 16 0 0 0 4.7 11.3L120 112V94.6a16 16 0 0 0-4.7-11.3z"/></svg>