<svg xmlns="http://www.w3.org/2000/svg" viewBox="0 0 128 128"><path d="M56.2 18a10 10 0 1 1 10 10 10 10 0 0 1-10-10zM92 40a4 4 0 0 0-4 4v3.9l-13.2 3.8L68 38.6a8 8 0 0 0-2.7-3.6c-3-2.2-8.1-2-10.1 1C45.5 51.1 42.6 63.1 43 72a9.2 9.2 0 0 0 .4 2.8L46.9 95l-14.3 20.2a3 3 0 0 0 .6 4 3 3 0 0 0 4.2-.4l17-20.4a3.3 3.3 0 0 0 .7-1.9v-.7l1.4-15.4 15.2 12.8 5.7 24.4a3 3 0 0 0 6-1.2l-4.1-26.2a3.2 3.2 0 0 0-.6-1.4l-.4-.6-14.1-18.5c-2.2-5.3-1-10 1.6-15.9l3.6 4.8.3.4a3.8 3.8 0 0 0 4.4 1.3L88 54.7V116a4 4 0 0 0 8.1 0V44a4 4 0 0 0-4-4zM34.9 63.8a4 4 0 0 0 1.1.2 4 4 0 0 0 3.9-2.8l8-26a4 4 0 0 0-2.7-5 4 4 0 0 0-5 2.6l-8 26a4 4 0 0 0 2.6 5z"/></svg>