<svg xmlns="http://www.w3.org/2000/svg" viewBox="0 0 128 128"><path d="M112.7 47.5c-.3-3.3-7.2-8-7.1-7.5.3 3.3-1.7 7.5-1.7 7.5-.8 1.6-1.1 3.1-.6 6.3a25.1 25.1 0 0 1-3.2 15.8c3.3 2.9 8.6 7.7 10.5 9 2.2 1.5 2 4.5 2.2 5.4a25 25 0 0 0 3.2 8.3c2.3 2.6 1.6 5.5 2.2 7.7s-.6 3.2-.7 4.8-.8 1.6-1.3 1.2l-2.7-2.3c-1-1-.4-2.4.2-3.5s-.6-2.4-.6-3.9-3.1-8.2-3.8-10.2-2.4-3.2-7-5.7l-7.5-4a105.3 105.3 0 0 0-3 13.7c-.2 2.5-1.5 5-1.6 6.6-.2 5.6 1.5 8.4 2.8 9.5s1.7 3 2.5 3.8.7 2 0 2H91c-1.8 0-.8-3.4-2.3-4.8s-2.8-5.6-2.2-8 .5-8.6.8-13.4a98 98 0 0 0-1-13h-.1c-9 3.1-17.7 1.7-23.5-.2-.1 3.1-2.7 8.8-2.6 10.3 0 1.8-.4 4.2-1.6 8.7s2.5 9.7 4 11.8a7.4 7.4 0 0 0 4.6 3.2c1.6.4 3.4 3.1 4 4 1 1.5 0 1.4-3 1.4s-3-.7-3.7-1.4-2.9 0-3.6-2.3S56.1 99.6 54 97s-1.4-6.3-.9-10.4c.6-3.9-7.3-11.2-8-12a1.8 1.8 0 0 0-1.6 1c-1 2.3-8.6 11.1-9.1 13-.4 1.6-4.1 7.6-4.9 9.5s-2 7.3-1.1 8 1 2.8 1.7 4.4-.1 1.5-.1 1.5h-3.3a2 2 0 0 1-2-1.1c-.4-1 0-2.4-.4-3.1-.8-1.5 2.7-11.8 3.8-16s2.4-7.3 3-8 3.6-4.1 3.3-6.6a74.7 74.7 0 0 1-.6-8.2 21.7 21.7 0 0 1-4.3-14.5l-.7.3s-2.9 2.5-.6 7.7c0 0-2.5-2-2.2-4.6 0 0-1.2.6-1 3 0 1.8-.2 4-.6 4.5 0 0-.2-2.7-1.1-3.5 0 0 0 9.4-6.2 14.3a11.4 11.4 0 0 0 2.1-4.2 16.6 16.6 0 0 1-1.3 2l-.4.5A22 22 0 0 1 8 80.8s2.8-2.7 4.3-13.5c2.2-16.1 13.4-15.6 17.8-15.2a7.6 7.6 0 0 1 .8-1.4c10.1-11.8 22.8-7.4 36-5.7 6 .8 10-1 12.9-3.8a6.8 6.8 0 0 1-2.7-.3 6.1 6.1 0 0 0 4.3-1.5 1.1 1.1 0 0 0 .3-.5c.1-.5-.1-.8-1.2-.1-1.7 1.2-4.9.3-5 0a4 4 0 0 0 4-1.6c1.2-1.8 3.8-2.7 4.3-2.9-1.7-1.1-6.2 1.1-6.3 1a14 14 0 0 1 7.7-3.2c-.2-.4-2.1-.2-4.3.3s-3.1-.4-3.2-.7c.6.7 5.2-1.3 5.2-1.3-2.4 0-3.1-1.1-3-1.2.7.5 3.3.2 3.7 0l3.7-1.6a12 12 0 0 1-5.3.3 2 2 0 0 0 2-.8c-2.1.2-2.4-1-2.4-1 1.4 1.3 6-1.6 6.2-1.8-5-.9-5-2.1-5-2.4 1.7 1.3 7-.9 7-1-5.6-1.4-4.8-3.3-4.8-3.3.2.8 3.8 2 5.9 1a11.4 11.4 0 0 1 7.8-.6 2.8 2.8 0 0 1-.7-2c2 2 6.3 2 6.6 2.1-2-1.1-1.8-2.1-1.8-2.1 1 .9 2.9.8 5 1.3a7 7 0 0 1 3.2 2 9.1 9.1 0 0 1 2.7 1.5c1-.8 2.4-1.4 2.2-1a7.2 7.2 0 0 0-1 1.8c1-1 3.5-2.4 3.3-1.8a7.6 7.6 0 0 0-1.4 3.7c3.8 3 3 7.8 2.7 10-.4 2.5-1 9 .2 11.9a4.6 4.6 0 0 1-4.1 6c-3.5.1-2.9-3.3-3-4z"/></svg>