<svg xmlns="http://www.w3.org/2000/svg" viewBox="0 0 128 128"><path d="M13.2 35.8L8 33l5.2-2.8L16 25l2.8 5.2L24 33l-5.2 2.8L16 41zM32 48l-2.8 5.2L24 56l5.2 2.8L32 64l2.8-5.2L40 56l-5.2-2.8zm32-8l4.2-7.8L76 28l-7.8-4.2L64 16l-4.2 7.8L52 28l7.8 4.2zM32 24l2.8-5.2L40 16l-5.2-2.8L32 8l-2.8 5.2L24 16l5.2 2.8zm64 0l2.8-5.2L104 16l-5.2-2.8L96 8l-2.8 5.2L88 16l5.2 2.8zm24 40a8 8 0 0 0-4-6.9 32.3 32.3 0 0 0-5.6-7.3c-9.7-9.7-21.4-8.2-28-1.6-6.8 6.7-8.3 19 2 29.3a48.6 48.6 0 0 1 6.6 8c1.3 3.4-1 5.8-3.8 5.6C75 79.8 48.2 63 12 88.1c4.5 5.7 20.9 43.7 74.7 28.2a6 6 0 0 0 1.9.3c7.8 0 14.2-4 17-11 1.7-4 5.6-18.3-12.6-36.5-5-5-4.7-9.9-2.1-12.4 2.1-2.2 6.3-3 11 1.6a27 27 0 0 1 2.6 3 8 8 0 0 0 5.3 10.5l5.7 6.6A2 2 0 0 0 119 77v-9.1a8 8 0 0 0 1-3.9z"/></svg>