<svg xmlns="http://www.w3.org/2000/svg" viewBox="0 0 128 128"><path d="M118.7 95.2c-.6.5-9.9 9-26.5 9-8.3 0-18.4-2-30.2-8.3-30.1-16-46.7-.8-46.9-.7a4.2 4.2 0 0 1-6-.2 4.3 4.3 0 0 1 .2-6c.9-.8 21.2-19.4 56.7-.6 29.8 15.8 46.2 1.2 46.9.6a4.3 4.3 0 0 1 5.8 6.2zM105.5 109c-.1.1-13.9 8.6-39.5-5.4-30.2-16.4-47.7-3-48.4-2.3a4.3 4.3 0 0 0 5.2 6.7c.6-.5 14.2-10.5 39.2 3.1a65 65 0 0 0 31.2 9 33 33 0 0 0 16.9-3.9 4.3 4.3 0 0 0 1.3-5.9 4.2 4.2 0 0 0-5.9-1.3zM88 88s24-17.1 24-32c-17.6 0-36.5 13.8-48 24 0 0 13 8 24 8zM8 55c0-14.6 5-26.6 14.6-35 9-7.8 21.6-12 36.4-12a4 4 0 0 1 3.4 2A135.5 135.5 0 0 0 71 21.5a4 4 0 0 1-2.7 6.5 62.8 62.8 0 0 0-6.6 1l9.7 29.1v.2a4 4 0 0 1 0 .5v.7a4 4 0 0 1 0 .4v.7a4 4 0 0 1-.1.4l-.2.3a4 4 0 0 1-.2.4l-.2.2a4 4 0 0 1-.3.3l-.2.2a4 4 0 0 1-.5.4h-.1a4 4 0 0 1-.7.4h-.3l-.3.1a4 4 0 0 1-.6 0h-.1a4 4 0 0 1-.7 0L32.5 57a27.8 27.8 0 0 0-.5 5 4 4 0 0 1-5.6 3.7l-16-7.1A4 4 0 0 1 8 55zm27-5.7l26.6 5L54 31.6a33.5 33.5 0 0 0-17.8 15.2L35 49.3z"/></svg>