<svg xmlns="http://www.w3.org/2000/svg" viewBox="0 0 128 128"><path d="M48 116a4 4 0 0 1-4 4H16a8 8 0 0 1-8-8V64a8 8 0 0 1 8-8h28a4 4 0 0 1 0 8H18.2a2.2 2.2 0 0 0-2.2 2.2v43.6a2.2 2.2 0 0 0 2.2 2.2H44a4 4 0 0 1 4 4zm29.9-29.3L60.3 72.3a1.6 1.6 0 0 0-2.5 1.3V84H28a4 4 0 0 0 0 8h29.8v10.4a1.6 1.6 0 0 0 2.5 1.3l17.6-14.4a1.6 1.6 0 0 0 0-2.6zM90 15.9a22 22 0 1 0 22 22 22 22 0 0 0-22-22m0-8a30 30 0 1 1-30 30A30 30 0 0 1 90 8z"/><path d="M84 23.6V42a4 4 0 0 0 1.1 2.8l8 8.3a4 4 0 0 0 5.6.2 4 4 0 0 0 .2-5.8l-5.7-5.7a4 4 0 0 1-1.2-2.9V23.6a4 4 0 0 0-4-4 4 4 0 0 0-4 4z"/></svg>