<svg xmlns="http://www.w3.org/2000/svg" viewBox="0 0 128 128"><path d="M58 51.6c-1.5-2.6-4.2-4-7.9-1.8l-3.7 2.1c-1.8 1.1-2 2.2-1 4.1l4 7 6.6-3.9a5.2 5.2 0 0 0 2-7.5zm2.8 14.1L56 68.4c-1.8 1.1-2.1 2.3-1 4l4.6 8.2 7-4c3.4-2 4.7-5.4 2.7-9s-6.3-3.2-8.5-2z"/><path d="M64 20a44 44 0 1 0 44 44 44 44 0 0 0-44-44zm6.2 63.7L56 92 34.7 55.3a5 5 0 0 1 1.5-6.8l10.3-5.9c7.8-4.5 14.9-3 18.6 3.4a11.6 11.6 0 0 1 1.3 9.7l-.6 1.7 1.7-.1a11.5 11.5 0 0 1 10 6c4.3 7.4 1.4 15.4-7.3 20.4zM90.5 71a5.5 5.5 0 1 1 5.5-5.5 5.5 5.5 0 0 1-5.5 5.5z"/><path d="M64 8a56 56 0 1 0 56 56A56 56 0 0 0 64 8zm0 104a48 48 0 1 1 48-48 48 48 0 0 1-48 48z"/></svg>