<svg xmlns="http://www.w3.org/2000/svg" viewBox="0 0 128 128"><path d="M64 12.8c31 0 56 19.6 56 43.8a36.9 36.9 0 0 1-8.4 23 11.3 11.3 0 0 1-1 1.3 48.2 48.2 0 0 1-6 6c-15.5 14-41 30.5-44.4 28-3-2.2 4.8-13.1-4.2-14.9l-1.9-.2C28 96 8 78.2 8 56.6c0-24.2 25-43.8 56-43.8zM31.5 70.6h11.3a2.9 2.9 0 0 0 3-2.9v-.2a2.9 2.9 0 0 0-3-2.9h-8.1v-18a2.9 2.9 0 0 0-3-2.9h-.2a2.9 2.9 0 0 0-3 2.9v21.1a2.9 2.9 0 0 0 3 2.9zm70-13.3v-.2a2.9 2.9 0 0 0-3-2.9h-8v-4.5h8a2.9 2.9 0 0 0 3-2.8v-.3a2.9 2.9 0 0 0-3-2.8H87.4a2.9 2.9 0 0 0-3 2.8v21.2a2.9 2.9 0 0 0 3 2.8h11.3a2.9 2.9 0 0 0 2.9-2.8v-.3a2.9 2.9 0 0 0-3-2.8h-8v-4.5h8a2.9 2.9 0 0 0 3-2.9zM79.8 69.7a2.8 2.8 0 0 0 .8-2V46.6a2.9 2.9 0 0 0-3-2.9h-.1a2.9 2.9 0 0 0-3 2.9V59L64 45.2a3 3 0 0 0-2.5-1.5h-.3a2.9 2.9 0 0 0-3 2.9v21.1a2.9 2.9 0 0 0 3 2.9h.2a2.9 2.9 0 0 0 3-2.9V55.1L75 69.3a2.6 2.6 0 0 0 .2.2 2.4 2.4 0 0 0 1.1.9 3 3 0 0 0 1.2.2h.2a3 3 0 0 0 1.4-.4 2 2 0 0 0 .7-.5zm-28.8.9h.2a2.9 2.9 0 0 0 3-2.9V46.6a2.9 2.9 0 0 0-3-2.9H51a2.9 2.9 0 0 0-3 2.9v21.1a2.9 2.9 0 0 0 3 2.9z"/></svg>