<svg xmlns="http://www.w3.org/2000/svg" viewBox="0 0 128 128"><path d="M103.2 24.3a55.5 55.5 0 0 0-87.3 67L8 120l29.4-7.7A55.5 55.5 0 0 0 64 119a55.5 55.5 0 0 0 39.3-94.8zM64 109.7a46 46 0 0 1-23.5-6.5l-1.7-1-17.4 4.6 4.6-17-1-1.8a46.1 46.1 0 1 1 39 21.7zM89.3 75c-1.4-.7-8.2-4-9.5-4.5s-2.2-.7-3.1.7-3.6 4.5-4.4 5.4-1.6 1-3 .4a37.9 37.9 0 0 1-11.2-6.9 41.8 41.8 0 0 1-7.7-9.6c-.8-1.4 0-2.1.6-2.8l2.1-2.5a9.5 9.5 0 0 0 1.4-2.3 2.5 2.5 0 0 0-.1-2.4L50 40.3c-1.2-2.7-2.3-2.3-3.1-2.4s-1.7 0-2.7 0a5 5 0 0 0-3.7 1.7 15.6 15.6 0 0 0-4.8 11.6c0 6.8 5 13.4 5.7 14.4s9.7 14.9 23.6 21a79.7 79.7 0 0 0 7.9 2.8 19 19 0 0 0 8.7.5c2.7-.4 8.2-3.3 9.4-6.6s1.2-6 .8-6.6-1.3-.9-2.6-1.6z" style="fill-rule:evenodd"/></svg>