<svg xmlns="http://www.w3.org/2000/svg" viewBox="0 0 128 128"><path d="M89.3 64.5c-1.6-.5-2.5-.7-1.8-2.7 1.8-4.4 2-8.4.2-11.1-3.5-5.1-13.3-4.9-24.2 0 0 0-3.5 1.3-2.7-1.3 1.8-5.6 1.6-10.3-1-13-5.8-6.4-22 .3-35.6 14C14 61 8 72 8 81.7 8 99.8 31.6 112 54 112c29.3 0 49-18.2 49-32 0-8.4-7.5-13.5-13.7-15.5zM53 104c-18 1.8-32.9-6.2-34-18-1.3-11.8 12-23.2 30-25s33.7 6.3 35 18c1.1 11.8-13 23.2-31 25zm33.1-88a4 4 0 0 0-.2 8A27 27 0 0 1 112 50.1a4 4 0 0 0 4 3.9h.1a4 4 0 0 0 3.9-4.1A35 35 0 0 0 86.1 16z"/><path d="M85.1 31H85a4 4 0 0 0-.1 8A11.5 11.5 0 0 1 96 50.1a4 4 0 0 0 4 3.9h.1a4 4 0 0 0 3.9-4.1A19.5 19.5 0 0 0 85.1 31zM44.4 72.5C37.1 74 32.2 80 33.5 86c1.2 6 8 9.8 15.2 8.2C56 93 60.8 86.7 59.5 80.7c-1-6-8-9.6-15-8.2z"/></svg>