<svg xmlns="http://www.w3.org/2000/svg" viewBox="0 0 128 128"><path d="M67.5 57.3l-1.7.1.6-1.7A11.6 11.6 0 0 0 65 46c-3.7-6.5-10.8-8-18.6-3.4l-10.3 6a5 5 0 0 0-1.5 6.7L55.9 92l14.3-8.3c8.7-5 11.6-13 7.3-20.4a11.5 11.5 0 0 0-10-6zM45.4 56c-1-1.8-.8-3 1-4l3.7-2.2c3.7-2 6.5-.7 8 1.8a5.2 5.2 0 0 1-2 7.6L49.3 63zm21.2 20.5l-7 4-4.7-8c-1-1.9-.7-3 1.1-4l4.8-2.8c2.2-1.3 6.5-1.5 8.4 2s.8 6.9-2.6 8.8z"/><path d="M64 8a56 56 0 1 0 56 56A56 56 0 0 0 64 8zm0 104a48 48 0 1 1 48-48 48 48 0 0 1-48 48z"/><circle cx="90.5" cy="65.5" r="5.5"/></svg>