<svg xmlns="http://www.w3.org/2000/svg" viewBox="0 0 128 128"><path d="M48.6 26h30.8a29.3 29.3 0 0 1 4.8-8.9c2.8-3.6.7-6.7-1-7.1-2.5-.6-3.5.3-5.1 1.3a4 4 0 0 1-5.4-1A4.8 4.8 0 0 0 69 8a4.5 4.5 0 0 0-3.3 1.6 2.1 2.1 0 0 1-3.2 0A4.5 4.5 0 0 0 59.1 8a4.8 4.8 0 0 0-3.8 2.2 4 4 0 0 1-5.4 1c-1.6-1-2.6-1.8-5-1.2-1.8.4-4 3.5-1.1 7a29.3 29.3 0 0 1 4.8 9zM64 64.2c-6.3 0-10 6.7-10 16.8 0 10.2 3.6 16.8 10 16.8S74 91.3 74 81s-3.6-16.8-10-16.8z"/><path d="M86 44.2A19 19 0 0 1 78.9 34H49c-.8 3.5-3 6.9-7 10.2-16 13-20.7 22.9-20.7 36.4 0 21.8 19.1 39.4 42.6 39.4s42.5-17.6 42.5-39.4c0-13.5-4.7-23.5-20.5-36.4zm-22 62c-11.3 0-18-9.8-18-25.3s6.8-25.2 18-25.2 18 9.8 18 25.2-6.5 25.4-18 25.4z"/></svg>