<svg xmlns="http://www.w3.org/2000/svg" viewBox="0 0 128 128"><path d="M119 97.9l-3.3-2.7a23.7 23.7 0 0 0 0-6l3.6-3.3c.8-.8 1.1-2.7-.2-5.7a4.5 4.5 0 0 0-3.9-3l-4.2.3a23.9 23.9 0 0 0-4-4.1v-5c0-1-1.1-2.7-4.3-3.9s-4.8.6-4.8.6l-2.7 3.3a24 24 0 0 0-5.8 0l.1-.1-3.6-3.7c-.9-.8-2.7-1-5.7.3s-3 3.9-3 3.9l.4 4.2a23.5 23.5 0 0 0-4.2 4h-5c-1 0-2.7 1-3.9 4.1S65 86 65 86l3.3 2.8v-.1a23.3 23.3 0 0 0 0 5.6L64.5 98c-.7.8-1 2.7.3 5.7a4.5 4.5 0 0 0 3.8 3l4.1-.4a24 24 0 0 0 4.6 4.5v5.1c0 1.1 1.2 2.7 4.3 3.8s4.9-.7 4.9-.7l2.6-3.3a23.8 23.8 0 0 0 5.2 0l3.5 3.6c.7.7 2.7 1.1 5.8-.2s3-3.8 3-3.8l-.4-4.3a23.6 23.6 0 0 0 4.3-4.3v.3h5c1 0 2.7-1.2 3.9-4.3S119 98 119 98zm-14 3.5a16 16 0 1 1-3.5-22.4 16 16 0 0 1 3.4 22.4zM20 112h36v8H20a12 12 0 0 1-12-12V20A12 12 0 0 1 20 8h64a12 12 0 0 1 12 12v36h-8V20a4 4 0 0 0-4-4H20a4 4 0 0 0-4 4v88a4 4 0 0 0 4 4zm28-88v8H24v-8zM24 40h56v8H24zm0 16h40v8H24zm0 16h32v8H24z"/></svg>