<svg xmlns="http://www.w3.org/2000/svg" viewBox="0 0 128 128"><path d="M120 116a4 4 0 0 1-4 4H12a4 4 0 0 1 0-8h104a4 4 0 0 1 4 4zM64 32a12 12 0 1 0-12-12 12 12 0 0 0 12 12zm32 60a12 12 0 1 0 12-12 12 12 0 0 0-12 12zm-49-5.3a4 4 0 0 0 6.5-4.7 4 4 0 0 0-.5-.7L40.4 64l5.1-5v.2L59 76a12 12 0 0 1 3 6h4.3a12 12 0 0 1 2.9-6l13.2-16.6 5.3 4.6L75 81.3a4 4 0 0 0-.5.7 4 4 0 0 0 6.5 4.7l18-20a4 4 0 0 0 0-5.3l-15-17a4 4 0 0 0-1.1-1A6 6 0 0 0 80 42s-9.8-2-16-2-16 2-16 2a6 6 0 0 0-3 1.5 4 4 0 0 0-1 .8l-15 17a4 4 0 0 0 0 5.4zM88 100v-8a4 4 0 0 0-.1-1l-1 1a12 12 0 0 1-20.2-4h-5.4a12 12 0 0 1-20.2 4l-3.6-4-6.5-8H8v24h76a4 4 0 0 0 4-4z"/></svg>