<svg xmlns="http://www.w3.org/2000/svg" viewBox="0 0 128 128"><path d="M100.4 110.6a8 8 0 0 0 3.6-6.6v-.8a56 56 0 1 0-80 0v.8a8 8 0 0 0 3.6 6.6l-9.4 7.6a1 1 0 0 0 .6 1.8h12.8a1 1 0 0 0 .7-.3L40 112h48l7.7 7.7a1 1 0 0 0 .7.3h12.8a1 1 0 0 0 .6-1.8zM90 56a4 4 0 0 1 3.9 3l2 16a4 4 0 0 1-4 5H36a4 4 0 0 1-4-4.8l2.3-16a4 4 0 0 1 4-3.2zM56 44a4 4 0 0 1 4-4h8a4 4 0 0 1 4 4 4 4 0 0 1-4 4h-8a4 4 0 0 1-4-4zm-16 60a8 8 0 1 1 8-8 8 8 0 0 1-8 8zm48 0a8 8 0 1 1 8-8 8 8 0 0 1-8 8zm3.5-67.4C83.5 34.3 74.2 32 64 32s-19.4 2.3-27.5 4.6a8 8 0 0 0-5.6 6C28.8 52 24 68 24 80v10.6a48 48 0 1 1 80 0V80c0-12-4.8-28-7-37.5a8 8 0 0 0-5.5-5.9z"/></svg>