<svg xmlns="http://www.w3.org/2000/svg" viewBox="0 0 128 128"><path d="M44.3 62.7L26.5 48.3a1.6 1.6 0 0 0-2.5 1.3V60H12a4 4 0 0 0 0 8h12v10.4a1.6 1.6 0 0 0 2.5 1.3l17.8-14.4a1.6 1.6 0 0 0 0-2.6z"/><path d="M76 20a44 44 0 0 0-40 25.6l13.2 10.7a9.6 9.6 0 0 1 0 15.4L36 82.3A44 44 0 1 0 76 20zm13.8 65.2a19 19 0 0 1-9.8 4.3v4.4a2.1 2.1 0 0 1-2.1 2.1H74a2.1 2.1 0 0 1-2.1-2.1v-4.6a19.7 19.7 0 0 1-8-3.1 18 18 0 0 1-7-9.3 1.2 1.2 0 0 1 .7-1.6l6.7-3a1 1 0 0 1 1.5.7q3.1 7.5 10.8 7.5a9.7 9.7 0 0 0 6-1.7 5 5 0 0 0 2.2-4q0-4.9-10.3-7.4-7.6-2-11.7-5.5a12 12 0 0 1-4.1-9.6 12.2 12.2 0 0 1 5-10 18.3 18.3 0 0 1 8.2-3.6V34a2.1 2.1 0 0 1 2.1-2.1h4a2.1 2.1 0 0 1 2.1 2.1v4.4a18 18 0 0 1 6.8 2.1 19.7 19.7 0 0 1 6.8 7q.5.8-.5 1.4l-5.7 4q-1 .7-1.4-.1-3.6-5.8-9.7-5.8a10 10 0 0 0-5.5 1.4 4.1 4.1 0 0 0-2.3 3.5 5 5 0 0 0 2.7 4.3 30.6 30.6 0 0 0 8.8 3q7.5 1.8 11.3 5.3a11.8 11.8 0 0 1 3.9 9.2 14.2 14.2 0 0 1-5.4 11.4z"/></svg>