<svg xmlns="http://www.w3.org/2000/svg" viewBox="0 0 128 128"><path d="M116 64H95.5L78.7 49a4 4 0 1 0-5.4 6l10.2 9h-39l10.1-9a4 4 0 1 0-5.3-6L32.5 64H12a4 4 0 0 0-3.7 5.6l21 48A4 4 0 0 0 33 120h62a4 4 0 0 0 3.7-2.4l21-48A4 4 0 0 0 116 64zM74.3 96H53.7l-2-8h24.5zm10.2-8h18.4l-3.5 8H82.5zm-12.2 16l-2 8H57.6l-2-8zM25.1 88h18.4l2 8H28.6zm24.7-8l-2-8h32.3l-2 8zm-10.2-8l2 8h-20l-3.5-8zm-7.5 32h15.3l2 8H35.6zm60.3 8H78.6l2-8H96zm14-32h-20l2-8h21.5zM104 43l-8-3 8-3 4-9 4 9 8 3-8 3-4 9zM76 23l-8-3 8-3 4-9 4 9 8 3-8 3-4 9zm-65.6-6a21.2 21.2 0 0 1 9-9A21.2 21.2 0 0 0 48 36.6 21.2 21.2 0 0 1 10.4 17z"/></svg>