<svg xmlns="http://www.w3.org/2000/svg" viewBox="0 0 128 128"><path d="M100 96l20 24H8l20-24 12.7 15.3L64 88l23.3 23.3zM12 65a4 4 0 0 0 4-4V44a19.9 19.9 0 0 0 8 3.6V76a4 4 0 0 0 8 0V48h8v28a4 4 0 0 0 8 0V48h8v28a4 4 0 0 0 8 0V48h8v12a4 4 0 0 0 8 0V48h8v12a4 4 0 0 0 8 0V48h4a12 12 0 0 1 0 24H84a4 4 0 0 0-4 4v8a4 4 0 0 0 8 0v-4h8v4a4 4 0 0 0 8 0v-4.4a20 20 0 0 0-4-39.6H28a12 12 0 0 1-4-23.3V28a4 4 0 0 0 8 0V16h8v12a4 4 0 0 0 8 0V16h4a4 4 0 0 0 0-8H28A20 20 0 0 0 8 28v33a4 4 0 0 0 4 4zm92-33l4-9 8-3-8-3-4-9-4 9-8 3 8 3zm-32 0l4-9 8-3-8-3-4-9-4 9-8 3 8 3z"/></svg>