<svg xmlns="http://www.w3.org/2000/svg" viewBox="0 0 128 128"><path d="M84 32h-9.5L82 19.1a4 4 0 0 0 .4-.9A8 8 0 0 0 74.7 8H53.3a8 8 0 0 0-7.6 10.3 4 4 0 0 0 .3.8L53.5 32H44a28 28 0 0 0-28 28v48a12 12 0 0 0 12 12h72a12 12 0 0 0 12-12V60a28 28 0 0 0-28-28zM53.5 16h21l-9.3 16h-2.4zm50.5 92a4 4 0 0 1-4 4H28a4 4 0 0 1-4-4V60a20 20 0 0 1 20-20h40a20 20 0 0 1 20 20zM88 64H40a16 16 0 0 1 16-16h16a16 16 0 0 1 16 16zM40 88h48a16 16 0 0 1-16 16H56a16 16 0 0 1-16-16zm56-12a4 4 0 0 1-4 4H36a4 4 0 0 1 0-8h56a4 4 0 0 1 4 4z"/></svg>