<svg xmlns="http://www.w3.org/2000/svg" viewBox="0 0 128 128"><path d="M86.8 81.2a4 4 0 0 1 0 5.6l-8 8a4 4 0 0 1-5.4.2 11.3 11.3 0 0 0-1.4-.9V116a4 4 0 0 1-4 4h-8a4 4 0 0 1-4-4V94.1a11.3 11.3 0 0 0-1.4 1 4 4 0 0 1-5.4-.3l-8-8a4 4 0 0 1 5.6-5.6l5.8 5.7a24 24 0 0 1 22.8 0l5.8-5.7a4 4 0 0 1 5.6 0zm32.5-27a4 4 0 0 1-.4.5v.1l-24 24A4 4 0 0 1 88 76V43.4a87.5 87.5 0 0 0-48 0V76a4 4 0 0 1-6.8 2.8l-24-24H9a4 4 0 0 1-.3-.5l-.2-.1a4 4 0 0 1-.3-.6v-.2a4 4 0 0 1-.2-.5v-.2a4 4 0 0 1 0-.7V28a4 4 0 0 1 1.5-3.1C10.3 24.2 30.9 8 64 8s53.6 16.2 54.5 16.9A4 4 0 0 1 120 28v24a4 4 0 0 1 0 .7v.2a4 4 0 0 1-.2.5v.2a4 4 0 0 1-.4.6zM32 46a87.4 87.4 0 0 0-13.7 6.6L32 66.3zm64 20.3l13.7-13.7A87.4 87.4 0 0 0 96 46zM70 74a6 6 0 1 0-6 6 6 6 0 0 0 6-6z"/></svg>