<svg xmlns="http://www.w3.org/2000/svg" viewBox="0 0 128 128"><path d="M68 20v-8a4 4 0 0 1 8 0v8a4 4 0 0 1-8 0zm25.8 8.3a4 4 0 0 0 5.5-1l4-6a4 4 0 1 0-6.6-4.5l-4 6a4 4 0 0 0 1 5.5zm-49.1-1a4 4 0 0 0 6.6-4.5l-4-6a4 4 0 1 0-6.6 4.4zM24 42.4l7 4a4 4 0 0 0 4-7l-7-4a4 4 0 0 0-4 7zm85 4.5a4 4 0 0 0 2.2-.7l6-4a4 4 0 1 0-4.4-6.6l-6 4A4 4 0 0 0 109 47zm11 45a24 24 0 0 1-24 24 23.7 23.7 0 0 1-14.2-4.6 32 32 0 0 1-45-1.4 19.8 19.8 0 0 1-8.8 2 20 20 0 1 1 4-39.6 32 32 0 0 1 8-9.4 32 32 0 0 1 64 1 32.2 32.2 0 0 1-.4 5.2A24 24 0 0 1 120 92zM48.7 58a32 32 0 0 1 37.8 12 24 24 0 0 1 9.2-2 24.2 24.2 0 0 0 .3-4 24 24 0 0 0-47.3-6zM112 92a16 16 0 0 0-24.8-13.3 4 4 0 0 1-5.8-1.6 24 24 0 0 0-43.6 1.7 4 4 0 0 1-5.2 2.1 12 12 0 1 0 2.6 20.7 4 4 0 0 1 2.4-.8 3.9 3.9 0 0 1 .5 0 4 4 0 0 1 2.7 1.6 24 24 0 0 0 37.7.9 4 4 0 0 1 6-.3 15.9 15.9 0 0 0 11.5 5 16 16 0 0 0 16-16z"/></svg>