<svg xmlns="http://www.w3.org/2000/svg" viewBox="0 0 128 128"><path d="M64 96s8 11.6 8 16a8 8 0 0 1-16 0c0-4.4 8-16 8-16zm-40 0a8 8 0 0 0 16 0c0-4.4-8-16-8-16s-8 11.6-8 16zm64 0a8 8 0 0 0 16 0c0-4.4-8-16-8-16s-8 11.6-8 16zm32-52a24 24 0 0 1-24 24 23.7 23.7 0 0 1-14.2-4.6 32 32 0 0 1-45-1.4 19.8 19.8 0 0 1-8.8 2 20 20 0 1 1 4-39.6A32 32 0 0 1 86.5 22 24 24 0 0 1 120 44zm-8 0a16 16 0 0 0-24.8-13.3 4 4 0 0 1-5.8-1.6 24 24 0 0 0-43.6 1.7 4 4 0 0 1-5.2 2.1 12 12 0 1 0 2.6 20.7 4 4 0 0 1 2.4-.8 3.9 3.9 0 0 1 .5 0 4 4 0 0 1 2.7 1.6 24 24 0 0 0 37.7.9 4 4 0 0 1 6-.3A15.9 15.9 0 0 0 96 60a16 16 0 0 0 16-16z"/></svg>