<svg xmlns="http://www.w3.org/2000/svg" viewBox="0 0 128 128"><path d="M9.6 53.5L35 45.1a2.2 2.2 0 0 1 2.4 3.4l-13 17.7a2.3 2.3 0 0 1-3 .3L8.9 57.4a2.1 2.1 0 0 1 .7-3.9zm68.3 38.8l-17.7 12a2.3 2.3 0 0 0-.4 3l9.2 12.5a2.1 2.1 0 0 0 3.8-.6l8.4-24.6a2.2 2.2 0 0 0-3.4-2.3zm-42.4.2c-3.8-3.9-6.2-7.8-14 0a81.3 81.3 0 0 0-13.4 24.2 2.5 2.5 0 0 0 3.2 3.1 78 78 0 0 0 24.2-13.4c7.8-7.7 3.9-10 0-14zm67-33.3l-49 36.4a2 2 0 0 1-2.6-.2L32.6 77a2 2 0 0 1-.2-2.7l36.4-48.8C89.1 5.3 120 8.2 120 8.2s2.5 31.4-17.3 51.1zM98 40a10 10 0 1 0-10 10 10 10 0 0 0 10-10z"/></svg>