<svg xmlns="http://www.w3.org/2000/svg" viewBox="0 0 128 128"><path d="M60 73.6a13.8 13.8 0 0 0-4.5-2.8 15 15 0 0 0-5.5-1 15.1 15.1 0 0 0-5.5 1 10.2 10.2 0 0 0-4.2 3.2H40a20.3 20.3 0 0 1 .5-3.5 14.2 14.2 0 0 1 1.4-3.8 9 9 0 0 1 2.5-2.9 6.3 6.3 0 0 1 4-1.2 5.6 5.6 0 0 1 3.8 1.4 6.1 6.1 0 0 1 2 3.2h8.4a11.5 11.5 0 0 0-1.6-4.4 10.8 10.8 0 0 0-3-3.2 14.2 14.2 0 0 0-4.3-2 19 19 0 0 0-5.2-.7 16.2 16.2 0 0 0-7.8 1.8 15.8 15.8 0 0 0-5.3 4.5 18.6 18.6 0 0 0-3 6.3 26.4 26.4 0 0 0-1 6.9 32.6 32.6 0 0 0 .8 7 16.6 16.6 0 0 0 2.7 6 14.2 14.2 0 0 0 5.1 4.5 17.5 17.5 0 0 0 8.1 1.6 17.7 17.7 0 0 0 6.2-1 14.5 14.5 0 0 0 4.8-2.9 12.6 12.6 0 0 0 3.1-4.3 13.2 13.2 0 0 0 1.1-5.3 12.6 12.6 0 0 0-.8-4.4 10.4 10.4 0 0 0-2.6-3.9zM54.2 85a6.4 6.4 0 0 1-1.3 2.2 6.7 6.7 0 0 1-2.1 1.5 6.4 6.4 0 0 1-2.8.6 7.2 7.2 0 0 1-3-.6 6.7 6.7 0 0 1-3.6-3.8 7.3 7.3 0 0 1-.4-2.5 8 8 0 0 1 .4-2.7 6.3 6.3 0 0 1 1.3-2.2A6.1 6.1 0 0 1 45 76a7.9 7.9 0 0 1 3.1-.5 6.7 6.7 0 0 1 3 .6 6 6 0 0 1 2 1.6 6.9 6.9 0 0 1 1.2 2.2 8.3 8.3 0 0 1 .4 2.6 7.5 7.5 0 0 1-.4 2.5zm40.3-11.4a13.8 13.8 0 0 0-4.6-2.7 15 15 0 0 0-5.4-1 15.1 15.1 0 0 0-5.6 1 10.2 10.2 0 0 0-4.2 3.1h-.1a20.3 20.3 0 0 1 .5-3.6 14.2 14.2 0 0 1 1.3-3.7 9 9 0 0 1 2.5-2.9 6.3 6.3 0 0 1 4-1.2 5.6 5.6 0 0 1 3.8 1.4 6.1 6.1 0 0 1 2 3.3H97a11.5 11.5 0 0 0-1.6-4.5 10.8 10.8 0 0 0-3-3.2 14.2 14.2 0 0 0-4.2-2A19 19 0 0 0 83 57a16.2 16.2 0 0 0-7.9 1.8 15.8 15.8 0 0 0-5.2 4.5 18.6 18.6 0 0 0-3 6.3 26.4 26.4 0 0 0-1 6.9 32.6 32.6 0 0 0 .8 7 16.6 16.6 0 0 0 2.6 6.1 14.2 14.2 0 0 0 5.2 4.4 17.5 17.5 0 0 0 8 1.6 17.7 17.7 0 0 0 6.3-1 14.6 14.6 0 0 0 4.8-2.8 12.6 12.6 0 0 0 3-4.3 13.2 13.2 0 0 0 1.2-5.4 12.6 12.6 0 0 0-.8-4.5 10.4 10.4 0 0 0-2.5-3.9zm-6 11.4a6.3 6.3 0 0 1-1.2 2.2 6.7 6.7 0 0 1-2.1 1.5 6.4 6.4 0 0 1-2.8.6 7.2 7.2 0 0 1-3-.6 6.7 6.7 0 0 1-3.6-3.8 7.3 7.3 0 0 1-.4-2.5 8 8 0 0 1 .4-2.6 6.3 6.3 0 0 1 1.3-2.2 6 6 0 0 1 2.2-1.6 7.9 7.9 0 0 1 3-.6 6.7 6.7 0 0 1 3 .6 6 6 0 0 1 2.1 1.6 6.9 6.9 0 0 1 1.2 2.3 8.3 8.3 0 0 1 .4 2.5 7.5 7.5 0 0 1-.4 2.6zM47.8 34.1a3.5 3.5 0 0 0 1.2 1.2 3.8 3.8 0 0 0 1.9.4 3.8 3.8 0 0 0 1.9-.4 3.6 3.6 0 0 0 1.2-1.1 4.7 4.7 0 0 0 .7-1.6 8.2 8.2 0 0 0 0-3.7 5 5 0 0 0-.7-1.6 3.5 3.5 0 0 0-3.1-1.6 3.8 3.8 0 0 0-1.9.4 3.6 3.6 0 0 0-1.2 1.2 4.8 4.8 0 0 0-.7 1.6 8.2 8.2 0 0 0 0 3.7 4.9 4.9 0 0 0 .7 1.5zm-10-4.6a2 2 0 0 0 .6-1.6 2 2 0 0 0-.6-1.6 2.5 2.5 0 0 0-1.7-.5h-3.5V30h3.6a2.5 2.5 0 0 0 1.6-.5zm70.7 32.6a33.4 33.4 0 0 1-1.8-10.2 78.4 78.4 0 0 1 .3-13.7l8.1-9.6L95 10a27.7 27.7 0 0 1-31-2c-.8.7-13.7 11.2-31 2L13 28.6l8 9.6a78.4 78.4 0 0 1 .4 13.7A33.3 33.3 0 0 1 19.6 62c-2 5.4-4.8 10.2-5.2 16-.4 5.2-.2 10.8 1.9 15.5 7.1 16.3 26.7 15.9 40.9 21.2 1.9.7 6.2 2.1 6.8 4.7.6-2.6 5-4 6.8-4.7 14.3-5.3 33.8-5 40.9-21.2a33 33 0 0 0 2-15.4c-.5-6-3.3-10.7-5.3-16.1zM88.2 23.3h11V26h-7.7v3.2h7.1v2.5h-7.1v3.7h8V38H88.2V23.3zm-13.8 0h12.1V26h-4.4v12H79V26h-4.5v-2.7zm-14.2 0h3.3v9.2a6.9 6.9 0 0 0 0 1.2 2.3 2.3 0 0 0 1.4 1.7 3.8 3.8 0 0 0 1.6.3 3 3 0 0 0 2.4-.8 3.7 3.7 0 0 0 .7-2.4v-9.2h3.2v9.2a5.6 5.6 0 0 1-1.7 4.5 6.8 6.8 0 0 1-4.6 1.5 6.8 6.8 0 0 1-4.6-1.5 5.7 5.7 0 0 1-1.7-4.5v-9.2zM44 27.7a7.4 7.4 0 0 1 1.4-2.5 6.6 6.6 0 0 1 2.3-1.7 7.5 7.5 0 0 1 3-.6 7.4 7.4 0 0 1 3.1.6 6.5 6.5 0 0 1 2.3 1.7 7.5 7.5 0 0 1 1.4 2.5 9.2 9.2 0 0 1 .5 3 9 9 0 0 1-.5 3 7.1 7.1 0 0 1-1.4 2.5 6.6 6.6 0 0 1-2.3 1.6 8.2 8.2 0 0 1-6 0 6.6 6.6 0 0 1-2.4-1.6 7.3 7.3 0 0 1-1.4-2.4 9 9 0 0 1-.5-3 9.2 9.2 0 0 1 .5-3.1zm-14.7-4.4h8a4.8 4.8 0 0 1 1.8.3 4.1 4.1 0 0 1 1.3.9 3.7 3.7 0 0 1 .9 1.3 4.2 4.2 0 0 1 .3 1.6 4.4 4.4 0 0 1-.6 2.2 3.5 3.5 0 0 1-1.8 1.5 2.5 2.5 0 0 1 1.6 1.3 3.6 3.6 0 0 1 .4 1 8.7 8.7 0 0 1 .1 1.1v.9l.1 1a6.7 6.7 0 0 0 .2.9 2.2 2.2 0 0 0 .3.8h-3.2a5.7 5.7 0 0 1-.3-1.7l-.2-1.9a3 3 0 0 0-.7-1.7 2.4 2.4 0 0 0-1.7-.5h-3.3V38h-3.2zm77.2 67.3c-3.8 13.7-21.4 13.5-32.5 16.3-1.8.4-9.7 2.3-10 5-.3-2.7-8.2-4.6-10-5-11.2-2.8-28.7-2.7-32.6-16.4a32.5 32.5 0 0 1 .4-18c1.5-5.2 4.1-10 5.4-15.4l1.2-7.6h71.2c-.1 0 1 7.2 1.2 7.6 1.2 5.4 3.9 10.2 5.4 15.5a32.5 32.5 0 0 1 .3 18z"/></svg>