<svg xmlns="http://www.w3.org/2000/svg" viewBox="0 0 128 128"><path d="M110.6 49.1L91 62a3.9 3.9 0 0 1-4.7-.4l-.4-.3-12-11c-5.9 6.8-10.6 13.7-9.2 19l14.4 18 .5.5a3.3 3.3 0 0 1 .7 1.5l4 27.3a3 3 0 0 1-2.5 3.4 3 3 0 0 1-3.5-2.3l-5.7-25.4L54.3 78l-2.4 21-.1.7a3.8 3.8 0 0 1-3.1 3.3L20 108a3 3 0 0 1-1.3-5.9L43.4 96l-2.6-23a7 7 0 0 1 0-2A60 60 0 0 1 50 41.4l-13.3-.9-15.6 15a3 3 0 0 1-4.3 0 3 3 0 0 1 0-4l15.4-17.7a3.6 3.6 0 0 1 2.5-1.2h.4L58.4 31a5.6 5.6 0 0 1 1.4 0A19 19 0 0 1 70 33a23.9 23.9 0 0 1 10.7 8.8l9.1 11.6 17.6-9.4a3 3 0 0 1 4.1 1.2 3 3 0 0 1-1 3.9zM76.5 28a10 10 0 1 0-10-10 10 10 0 0 0 10 10z"/></svg>