<svg xmlns="http://www.w3.org/2000/svg" viewBox="0 0 128 128"><path d="M52 100a4 4 0 0 1-4 4H12a4 4 0 0 1 0-8h36a4 4 0 0 1 4 4zM28 34a10 10 0 1 0-10-10 10 10 0 0 0 10 10zm37.6 46.2A6.3 6.3 0 0 0 62 77l-22-5V46c0-2-1-2.8-2.6-3.6a20.2 20.2 0 0 0-19.3.3 4 4 0 0 0-2.1 3.5V80a8 8 0 0 0 8 8h33.5l15 29.8a4 4 0 1 0 7-3.6zM83.3 14a4 4 0 1 0-7-3.8c-7.7 13.8-3.5 23.2 0 31.6 3.5 7.8 6.2 14 0 24.3a4 4 0 1 0 7 4c8.1-13.8 4-23.2.4-31.6-3.3-7.5-6.1-14-.4-24.5zm16 0a4 4 0 1 0-7-3.8c-7.7 13.8-3.5 23.2 0 31.6 3.5 7.8 6.2 14 0 24.3a4 4 0 1 0 7 4c8.1-13.8 4-23.2.4-31.6-3.3-7.5-6.2-14-.4-24.5zm16.4 24.6c-3.3-7.6-6.2-14.2-.4-24.6a4 4 0 1 0-7-3.8c-7.7 13.8-3.5 23.2 0 31.6 3.5 7.8 6.2 14 0 24.3a4 4 0 1 0 7 4c8.1-13.7 4-23.2.4-31.5z"/></svg>