<svg xmlns="http://www.w3.org/2000/svg" viewBox="0 0 128 128"><path d="M55.4 47.4a83.8 83.8 0 0 1 2.1 17v3.4a3.4 3.4 0 0 1-3.3 3.4l-3.2.1a80.7 80.7 0 0 0-16.5 2.1 82.3 82.3 0 0 0-12.8 4.1L18 79a3.3 3.3 0 0 1-4.5-2.3l-1-3.7-4-15.3v-.2a24 24 0 0 1 18.3-29c12.8-2.8 25.6 6 28.5 19zM37.6 82c-3 .7-8.2 2.5-11.5 3.6a3.7 3.7 0 0 0-2.4 4.4l5.4 20.6c1.7 7.3 10.1 10.6 16.5 9.1 12.8-3 13.3-12 11.8-18.9l-4-16.8v-1a3.6 3.6 0 0 0-4-3 90.3 90.3 0 0 0-11.8 1.9zM101 8.5a23.8 23.8 0 0 0-28 19.3v.1l-2.4 15.7-.6 3.8a3.4 3.4 0 0 0 3.2 4H77a81 81 0 0 1 13.3 1.3 79.8 79.8 0 0 1 15.9 4.6l3 1.3a3.3 3.3 0 0 0 4.4-1.8l1.2-3.1a84.1 84.1 0 0 0 4.7-16.6c2.5-13-5.8-26.1-18.5-28.6zM89.9 61.7c-3-.5-8.4-1-12-1.2a3.6 3.6 0 0 0-3.8 3L71 84.8c-1.4 7.3 5 13.7 11.5 14.9 12.8 2.3 16.8-5.8 18-12.7l3.1-17 .2-.8a3.7 3.7 0 0 0-2.3-4.4 89.2 89.2 0 0 0-11.6-3z"/></svg>