<svg xmlns="http://www.w3.org/2000/svg" viewBox="0 0 128 128"><path d="M97.7 16a8.1 8.1 0 1 1 8.1 8 8 8 0 0 1-8.1-8zm12 94.9c-3.2 1.7-6.8 1.4-11-1.2l-2.1-1.4a28662 28662 0 0 0-48.7-30.7L30.6 66.7a4 4 0 0 0-.6-.3l-9-5.7c-4.8-3-5-6-4.8-9.1a4 4 0 0 0-3.8-4.3A4 4 0 0 0 8 51.1c-.2 4.6.3 11.3 8.6 16.4l27 17c16.1 10.1 39.1 24.7 48.7 30.6l.4.3 1.8 1a21 21 0 0 0 11 3.6 16.7 16.7 0 0 0 8.1-2.1 4 4 0 0 0 1.6-5.5 4.1 4.1 0 0 0-5.5-1.5zm10-51.3l-3.8-7.2-1.7-3.7-1.8-3.7-.4-.5-2-3-2-3a340.9 340.9 0 0 1-4.2-6.5 17 17 0 0 0-4-5c-2.3-2.3-4-3.3-5.3-3.7l-14.8-8.6-.6-.3a2.4 2.4 0 0 0-.6-.3l-17.6-4a3 3 0 0 0-3.6 1.9 3 3 0 0 0 1.8 3.8l16.1 5.7 10.4 8.7-8.7 9.3-17 7.6-1 .5a1.4 1.4 0 0 0-.4.2L42 61.7a3 3 0 0 0-.6 4 3 3 0 0 0 4.3.7l17-11.6L77 53.2l4.3 13.1-3 20.2a3 3 0 0 0 2.4 3.4 3 3 0 0 0 3.7-2.3l5-20.8a1 1 0 0 0 0-.2V49.9l8-8.5 3.3 3c.8 1 1.7 1.8 2.5 2.6l2.5 2.6 2 2.8 2.3 3.3 4.4 6.8a3 3 0 0 0 4 1.1 3 3 0 0 0 1.2-4z"/></svg>