<svg xmlns="http://www.w3.org/2000/svg" viewBox="0 0 128 128"><path d="M12 120a4 4 0 0 1-2.8-6.8l104-104a4 4 0 0 1 5.6 5.6l-104 104A4 4 0 0 1 12 120zm70.6-96.3l3.3 1.4 6-6a57 57 0 0 0-6.5-2.9 4 4 0 1 0-2.8 7.5zM84 93.5a4 4 0 0 0 2.2-.7C97.7 85.3 104 75 104 64a30 30 0 0 0-5.7-17.4l-5.8 5.8A21.8 21.8 0 0 1 96 64c0 8.3-5 16.1-14.2 22.2a4 4 0 0 0 2.2 7.3zm26.2-58.7l-5.7 5.7a42 42 0 0 1 4 7.2 40.4 40.4 0 0 1 0 32.6 43.1 43.1 0 0 1-10.2 14.3 47.5 47.5 0 0 1-15.7 9.7 4 4 0 1 0 2.8 7.5 55.5 55.5 0 0 0 18.3-11.3 51 51 0 0 0 12.2-17 48.4 48.4 0 0 0 0-39 50 50 0 0 0-5.7-9.7zM16 88h7l8-8H16V48h16v31l8-8V48l24-32v31l8-8V16a8 8 0 0 0-14.4-4.8L36 40H16a8 8 0 0 0-8 8v32a8 8 0 0 0 8 8zm48-7v31L50.7 94.3 45 100l12.6 16.8A8 8 0 0 0 72 112V73z"/></svg>