<svg xmlns="http://www.w3.org/2000/svg" viewBox="0 0 128 128"><path d="M64 8C33.1 8 8 31.3 8 60a49.8 49.8 0 0 0 14.7 35.1l-6.5 19.6a4 4 0 0 0 5.5 5l22.7-11A59.5 59.5 0 0 0 64 112c30.9 0 56-23.3 56-52S94.9 8 64 8zm0 96a51.4 51.4 0 0 1-20.2-4l-17 8.3L32 92.8C22.2 84.8 16 73 16 60c0-24.3 21.5-44 48-44s48 19.7 48 44-21.5 44-48 44zm8.3-44.6l-1.8-.9 1.6-1.4c1.7-1.4 4.4-4.8 4.4-10.6 0-8.8-6.4-14.5-17-14.5h-14a5.9 5.9 0 0 0-5.5 6v50h19.5C71.3 88 79 81.4 79 71.5a13.5 13.5 0 0 0-6.7-12.1zM50.5 45c0-2.5 1-3.5 3.5-3.5h5c5 0 7 3 7 6.5 0 3-1.7 6.5-6.5 6.5h-9zM60 78.5h-9.5v-11c0-2.5 1-3.5 3.5-3.5h6.5c3 0 7.5 2.3 7.5 7s-3.3 7.5-8 7.5zm36 3a6.5 6.5 0 1 1-6.5-6.5 6.5 6.5 0 0 1 6.5 6.5z"/></svg>