<svg xmlns="http://www.w3.org/2000/svg" viewBox="0 0 128 128"><path d="M64 16C33.1 16 8 35.7 8 60a39 39 0 0 0 14 29.1l-5.8 17.6a4 4 0 0 0 5.5 5l22-10.7a69.3 69.3 0 0 0 20.3 3c30.9 0 56-19.7 56-44S94.9 16 64 16zm0 80a61.2 61.2 0 0 1-20.7-3.5v-.1l-.3-.1-16.2 8 4.7-13.8C22 79.9 16 70.5 16 60c0-19.9 21.5-36 48-36s48 16.1 48 36-21.5 36-48 36zm24-52a4 4 0 0 1-4 4H44a4 4 0 0 1 0-8h40a4 4 0 0 1 4 4zm0 16a4 4 0 0 1-4 4H44a4 4 0 0 1 0-8h40a4 4 0 0 1 4 4zM72 76a4 4 0 0 1-4 4H44a4 4 0 0 1 0-8h24a4 4 0 0 1 4 4z"/></svg>