<svg xmlns="http://www.w3.org/2000/svg" viewBox="0 0 128 128"><path d="M94.8 68a3.9 3.9 0 0 1-.1 5.8 180.2 180.2 0 0 1-46.9 30.4l-.6.3-2.8 1.1-.9.4-2.8 1-.7.2-3.5 1.1a80.2 80.2 0 0 1-23.2 3.7 5.3 5.3 0 0 1-5.3-5.2v-.1a4.7 4.7 0 0 1 3.7-4.5 91 91 0 0 0 25.8-11.8c3.1-2 6.3-4.1 9.4-6.3l.2-.2q1.5-1 2.9-2.2a285.4 285.4 0 0 0 28.4-24.5 4.4 4.4 0 0 1 6 0zM36 56h3.4L38 80.5c3.8-2.6 7.7-5.4 11.5-8.4l-1-16.1H52a12 12 0 0 0 12-12L60.1 8.9a1 1 0 0 0-1-.9H57a1 1 0 0 0-1 1v19a4 4 0 0 1-4 4h-4.8L46 9a1 1 0 0 0-1-1h-2a1 1 0 0 0-1 1l-1.2 23H36a4 4 0 0 1-4-4V9a1 1 0 0 0-1-1h-2.1a1 1 0 0 0-1 .9L24 44a12 12 0 0 0 12 12zm0 60.8a4 4 0 0 0 4 3.2h8a4 4 0 0 0 4.1-4.2l-.3-4.5a118 118 0 0 1-15.6 5.5zM120 24a4 4 0 0 0-8 0 28.2 28.2 0 0 1-7.1 18.6 17.3 17.3 0 0 0-18.5.1 3 3 0 0 0-.5 4.8L105.6 67a3 3 0 0 0 4.7-.5 17.3 17.3 0 0 0 .2-18.3A36.1 36.1 0 0 0 120 24z"/></svg>