<svg xmlns="http://www.w3.org/2000/svg" viewBox="0 0 128 128"><path d="M120 92c0 4.4-3.1 10.5-18 15.1-10.3 3.2-23.7 4.9-38 4.9s-27.8-1.7-38-4.9C11.1 102.5 8 96.4 8 92c0-8.3 8.3-12 16-12a4 4 0 0 1 0 8c-4.7 0-8 1.6-8 4 0 1.5 3.3 4.7 12.4 7.5C38 102.4 50.5 104 64 104s26.1-1.6 35.6-4.5c9-2.8 12.4-6 12.4-7.5 0-3-4.3-4-8-4a4 4 0 0 1 0-8c11 0 16 6 16 12zM59.2 45.3l.6 2 1.2 4.3a24.5 24.5 0 0 1 .5 5.8 46.7 46.7 0 0 1-.6 6.4l-.5 3.2-.7 3.9a1 1 0 0 0 .5 1 1 1 0 0 0 .5 0 1 1 0 0 0 .6-.2 28 28 0 0 0 8-13.1 23.3 23.3 0 0 0 .6-8.4 33.8 33.8 0 0 0-.7-3.7l-.9-3.8a44.1 44.1 0 0 1-1.3-6 31.1 31.1 0 0 1-.2-6 78.1 78.1 0 0 1 1.1-8.5l.8-5.1a1 1 0 0 0-.5-1 1 1 0 0 0-1 .1 31.2 31.2 0 0 0-4.7 6 30.4 30.4 0 0 0-3.3 7 26.1 26.1 0 0 0-1.2 8.2 29.2 29.2 0 0 0 .4 4.1c.2 1.3.5 2.6.9 3.8zm24 3.8l.6 1.8a46 46 0 0 1 1.2 3.7 18.1 18.1 0 0 1 .5 5A34.5 34.5 0 0 1 85 65l-.5 2.8-.7 3.3a.8.8 0 0 0 .5.8 1 1 0 0 0 .5.1 1 1 0 0 0 .6-.2 23.7 23.7 0 0 0 8-11.3 17.2 17.2 0 0 0 .6-7.2 25.2 25.2 0 0 0-.6-3.2l-1-3.2a33.2 33.2 0 0 1-1.3-5.1 22.9 22.9 0 0 1-.2-5.1 58 58 0 0 1 1.2-7.4l.8-4.4a.8.8 0 0 0-.5-.8 1 1 0 0 0-1.1.1 27.9 27.9 0 0 0-4.7 5 24.5 24.5 0 0 0-3.3 6 19.5 19.5 0 0 0-1.2 7 21.6 21.6 0 0 0 .4 3.6l.8 3.3zm-48 0l.6 1.8a46 46 0 0 1 1.2 3.7 18.1 18.1 0 0 1 .5 5A34.5 34.5 0 0 1 37 65l-.5 2.8-.7 3.3a.8.8 0 0 0 .5.8 1 1 0 0 0 .5.1 1 1 0 0 0 .6-.2 23.7 23.7 0 0 0 8-11.3 17.2 17.2 0 0 0 .6-7.2 25.2 25.2 0 0 0-.6-3.2l-1-3.2a33.2 33.2 0 0 1-1.3-5.1 22.9 22.9 0 0 1-.2-5.1 58 58 0 0 1 1.2-7.4l.8-4.4a.8.8 0 0 0-.5-.8 1 1 0 0 0-1.1.1 27.9 27.9 0 0 0-4.7 5 24.5 24.5 0 0 0-3.3 6 19.5 19.5 0 0 0-1.2 7 21.6 21.6 0 0 0 .4 3.6c.2 1.2.5 2.2.9 3.3z"/></svg>