<svg xmlns="http://www.w3.org/2000/svg" viewBox="0 0 128 128"><path d="M110.7 60.5L67.5 17.4a32 32 0 0 0-45.2 0l-5 4.9a32 32 0 0 0 0 45.2l43.2 43.2a32 32 0 0 0 45.2 0l5-5a32 32 0 0 0 0-45.2zM23 27.9l5-4.9a23.9 23.9 0 0 1 6.5-4.6l6.1 6-15.7 15.8-6.3-6.3a23.8 23.8 0 0 1 4.4-6zm-7 17l.1-2.2 8.8 8.8 27-27-8.4-8.4h1.4a24 24 0 0 1 17 7l18.7 18.6-6.1 6.2a19.2 19.2 0 0 0-26.6 26.6l-6.2 6.1L23 62a23.8 23.8 0 0 1-7-17zM72 72a11.2 11.2 0 0 1-12.6 2.3l14.9-14.9A11.2 11.2 0 0 1 72 72zM56 56a11.2 11.2 0 0 1 12.6-2.3l-15 14.9A11.2 11.2 0 0 1 56 56zm10 49L47.5 86.3l6.1-6.2a19.2 19.2 0 0 0 26.6-26.6l6.2-6.1L105 66a23.8 23.8 0 0 1 7 17v1.5l-8.4-8.5-27 27 8.8 8.8-2.3.1a23.8 23.8 0 0 1-17-7zm39-5l-5 5a23.9 23.9 0 0 1-6 4.4l-6.2-6.3 15.7-15.7 6.1 6.1a23.8 23.8 0 0 1-4.6 6.5z"/></svg>