<svg xmlns="http://www.w3.org/2000/svg" viewBox="0 0 128 128"><path d="M60 20v-8a4 4 0 0 1 8 0v8a4 4 0 0 1-8 0zm4 84a4 4 0 0 0-4 4v8a4 4 0 0 0 8 0v-8a4 4 0 0 0-4-4zM38.5 27.9a4 4 0 0 0 7-4l-4-7a4 4 0 1 0-7 4zm51 72.2a4 4 0 1 0-7 4l4 7a4 4 0 1 0 7-4zM27.9 38.5l-7-4a4 4 0 0 0-4 7l7 4a4 4 0 1 0 4-7zm83.1 48l-6.9-4a4 4 0 1 0-4 7l7 4a4 4 0 1 0 4-7zM24 64a4 4 0 0 0-4-4h-8a4 4 0 0 0 0 8h8a4 4 0 0 0 4-4zm92-4h-8a4 4 0 0 0 0 8h8a4 4 0 0 0 0-8zM23.9 82.5l-7 4a4 4 0 1 0 4 7l7-4a4 4 0 0 0-4-7zM102 46a4 4 0 0 0 2-.5l7-4a4 4 0 1 0-4-7l-7 4a4 4 0 0 0 2 7.5zM44 98.6a4 4 0 0 0-5.5 1.5l-4 7a4 4 0 1 0 7 4l4-7a4 4 0 0 0-1.5-5.5zm40-69.2a4 4 0 0 0 5.5-1.5l4-7a4 4 0 0 0-7-4l-4 7a4 4 0 0 0 1.5 5.5zM96 64a32 32 0 1 1-32-32 32 32 0 0 1 32 32zm-8 0a24 24 0 1 0-24 24 24 24 0 0 0 24-24z"/></svg>