<svg xmlns="http://www.w3.org/2000/svg" viewBox="0 0 128 128"><path d="M92.3 84.3C84 84.3 74 82.2 62 76c-30.3-16-47-.8-47.1-.7A4.3 4.3 0 0 1 9 69.1c.8-.8 21.3-19.3 56.9-.6 30 15.7 46.4 1.3 47 .6a4.3 4.3 0 0 1 5.9 6.2c-.6.6-9.9 9-26.6 9zm18 11.9a4.3 4.3 0 0 0-4.6-7.2c-.1 0-14 8.5-39.7-5.4-30.3-16.4-47.9-3-48.6-2.3a4.3 4.3 0 0 0 5.2 6.7c.6-.5 14.2-10.5 39.4 3.1 12.8 7 23.4 9 31.3 9 10.6 0 16.6-3.7 17-4zM32.6 51.5a58.6 58.6 0 0 1 9 .7 22.8 22.8 0 1 1 42 15.2A54.1 54.1 0 0 0 94 68.9c-1.2-1.8-2.4-3.8-2.3-5.7 2-3.8 9.8-4.9 9.7-7.4s-7.6-3.7-9.7-7.5c0-4.3 6-9 4.8-11.3s-8.5.7-12.2-1.6c-2.3-3.6.7-10.8-1.6-12s-7 4.7-11.3 4.7c-3.8-2.1-4.9-9.9-7.4-9.8s-3.6 7.7-7.4 9.8c-4.4 0-9.2-6-11.3-4.8s.7 8.5-1.6 12.2c-3.7 2.2-11-.7-12.1 1.5s4.8 7 4.7 11.3a9 9 0 0 1-3.7 3.2zm33.9 8.8A78.2 78.2 0 0 0 79.8 66a18.7 18.7 0 1 0-34.2-13.4 83 83 0 0 1 20.9 7.8z"/></svg>