<svg xmlns="http://www.w3.org/2000/svg" viewBox="0 0 128 128"><path d="M48 76v8a4 4 0 0 1-4 4h-8a4 4 0 0 1-4-4v-8a4 4 0 0 1 4-4h8a4 4 0 0 1 4 4zm44-4h-8a4 4 0 0 0-4 4v8a4 4 0 0 0 4 4h8a4 4 0 0 0 4-4v-8a4 4 0 0 0-4-4zM36 40h8a4 4 0 0 0 4-4v-8a4 4 0 0 0-4-4h-8a4 4 0 0 0-4 4v8a4 4 0 0 0 4 4zm48 0h8a4 4 0 0 0 4-4v-8a4 4 0 0 0-4-4h-8a4 4 0 0 0-4 4v8a4 4 0 0 0 4 4zm28-16v32a15.9 15.9 0 0 1-2.2 8 15.9 15.9 0 0 1 2.2 8v32a16 16 0 0 1-16 16H80a16 16 0 0 1-16-16 16 16 0 0 1-16 16H32a16 16 0 0 1-16-16V72a15.9 15.9 0 0 1 2.2-8 15.9 15.9 0 0 1-2.2-8V24A16 16 0 0 1 32 8h16a16 16 0 0 1 16 16A16 16 0 0 1 80 8h16a16 16 0 0 1 16 16zM24 40a8 8 0 0 0 8 8h16a8 8 0 0 0 8-8V24a8 8 0 0 0-8-8H32a8 8 0 0 0-8 8zm32 32a8 8 0 0 0-8-8H32a8 8 0 0 0-8 8v16a8 8 0 0 0 8 8h16a8 8 0 0 0 8-8zm8 0a15.9 15.9 0 0 1 2.2-8 15.9 15.9 0 0 1-2.2-8 15.9 15.9 0 0 1-2.2 8 15.9 15.9 0 0 1 2.2 8zm8-32a8 8 0 0 0 8 8h16a8 8 0 0 0 8-8V24a8 8 0 0 0-8-8H80a8 8 0 0 0-8 8zm32 32a8 8 0 0 0-8-8H80a8 8 0 0 0-8 8v16a8 8 0 0 0 8 8h16a8 8 0 0 0 8-8z"/></svg>