<svg xmlns="http://www.w3.org/2000/svg" viewBox="0 0 128 128"><path d="M116 112h-12V80h4c8.8 0 12-7.2 12-12a4 4 0 0 0-4-4 4 4 0 0 0-4 4c0 1.9-.8 4-4 4H96V55.4c5.8-1.8 8-7.4 8-11.4a4 4 0 0 0-4-4 4 4 0 0 0-4 4c0 1.9-.8 4-4 4H80V31.4c5.8-1.8 8-7.4 8-11.4a4 4 0 0 0-8 0 3.7 3.7 0 0 1-4 4h-4.8L68 11a4 4 0 0 0-4-3 4 4 0 0 0-3.9 3L57 24h-5c-3.2 0-4-2.2-4-4a4 4 0 0 0-8 0c0 4 2.2 9.6 8 11.4V48H36c-3.2 0-4-2.2-4-4a4 4 0 0 0-8 0c0 4 2.2 9.6 8 11.4V72H20c-3.2 0-4-2.2-4-4a4 4 0 0 0-8 0c0 4.8 3.2 12 12 12h4v32H12a4 4 0 0 0 0 8h44v-16c0-6 4.3-8 8-8a8.5 8.5 0 0 1 5.6 2 7.7 7.7 0 0 1 2.4 6v16h44a4 4 0 0 0 0-8zM56 32h16v16H56zM40 56h48v16H40zm24 32c-8 0-16 5.5-16 16v8H32V80h64v32H80v-8c0-10.5-8-16-16-16z"/></svg>