<svg xmlns="http://www.w3.org/2000/svg" viewBox="0 0 128 128"><path d="M80 56.9V8H8v48.9C8 78.5 23.9 96 43.4 96h1.2C64 96 80 78.5 80 56.9zM44.6 88h-1.2C28.4 88 16 74 16 56.9V16h56v40.9C72 74 59.7 88 44.6 88zM120 32v48.9c0 21.6-15.9 39.1-35.4 39.1h-1.2c-12.2 0-23-6.8-29.3-17.2a40.8 40.8 0 0 0 7.8-2.7c5 7.2 12.8 11.9 21.5 11.9h1.2c15 0 27.4-14 27.4-31.1V40H88v-8zM30.8 42.8a4 4 0 0 1-5.6-5.6l8-8a4 4 0 0 1 5.6 5.6zM92 64a4 4 0 0 1-2.8-6.8l8-8a4 4 0 0 1 5.6 5.6l-8 8A4 4 0 0 1 92 64zM62.8 37.2a4 4 0 1 1-5.6 5.6l-8-8a4 4 0 1 1 5.6-5.6zm-3.6 20.4a4 4 0 0 1 .7 3.4A16.5 16.5 0 0 1 28 61a4 4 0 0 1 3.9-5h24a4 4 0 0 1 3.2 1.6zM84 79a16.4 16.4 0 0 1 15.9 12 4 4 0 0 1-3.9 5H72a4 4 0 0 1-3.9-5A16.4 16.4 0 0 1 84 79z"/></svg>