<svg xmlns="http://www.w3.org/2000/svg" viewBox="0 0 128 128"><path d="M36.4 74.3l-21.1-21c1.6-2 3.5-4.2 5.6-6.4l21.4 21.4zm26.2-26.2a15.8 15.8 0 0 0-10 4.6L47 47a24 24 0 0 1 7.6-5.1A24.2 24.2 0 0 1 70 40.7l12.4-12.4A43.7 43.7 0 0 0 64 24c-14.1 0-27 8.1-37 17l21.4 21.3zM25.3 85.4l5-5L10 60l-1.3 1.7a4 4 0 0 0 0 4.6 128.2 128.2 0 0 0 16.6 19zm94-19.1a108.1 108.1 0 0 1-34.7 32.3L59.8 73.8l-6 6 22.3 22.3a41.3 41.3 0 0 1-10.1 1.8L47.8 86l-6 6 10.4 10a57.4 57.4 0 0 1-14-6.6l-15.4 15.3a4 4 0 0 1-5.6-5.6l88-88a4 4 0 0 1 5.6 5.6L96.5 37.2a122.8 122.8 0 0 1 22.8 24.5 4 4 0 0 1 0 4.6zM88 64a23.5 23.5 0 0 0-4.5-13.9L77.8 56a15.5 15.5 0 0 1 1 1.9 16 16 0 0 1-3.5 17.5L81 81a24 24 0 0 0 7-17z"/></svg>