<svg xmlns="http://www.w3.org/2000/svg" viewBox="0 0 128 128"><path d="M64 8a56 56 0 1 0 56 56A56 56 0 0 0 64 8zm36.8 86.8L86.3 80.3l11-11L109 81a48 48 0 0 1-8.1 13.9zm-19.5 14L69.8 97l11-11L95 100.5a48 48 0 0 1-13.8 8.2zm-48.5-8.3L47.3 86l11 11-11.7 11.7a48 48 0 0 1-13.8-8.2zM19.1 80.8l11.5-11.5 11 11-14.4 14.5a48 48 0 0 1-8.1-14zM16 64a48 48 0 0 1 .8-8.5l8.2 8.1-8.3 8.3A48 48 0 0 1 16 64zm11.5-31.2L41.6 47l-11 11-11-11-.4-.3a48 48 0 0 1 8.3-13.9zm19.8-13.6l11 11-11 11-14-14a48 48 0 0 1 13.9-8.1zm33.5-.1a48 48 0 0 1 14 8.1L80.7 41.3l-11-11 11-11.1zm28 27.6l-.3.2L97.4 58l-11-11 14.1-14.1a48 48 0 0 1 8.3 13.8zm-17 17l-11 11-11-11 11-11zM75 47L64 58 53 47l11-11zM58.3 63.7l-11 11-11-11 11-11zM53 80.3l11-11 11 11-11 11zm50-16.6l8.2-8.2a47.4 47.4 0 0 1 0 16.4zm-31.1-47L64 24.5l-8-8a47.5 47.5 0 0 1 16 0zm-16.4 94.5l8.5-8.5 8.5 8.5a47.4 47.4 0 0 1-17 0z"/></svg>