<svg xmlns="http://www.w3.org/2000/svg" viewBox="0 0 128 128"><path d="M103.1 33.6c-1-8.7-2-22.2-12.3-25.2C80 5.2 75.5 21.9 73.3 29.3a96.3 96.3 0 0 0-3 29.5 4 4 0 0 0 3.4 3.8l19 2.6a4 4 0 0 0 4.3-2.6c3-8.6 7-20.9 6.1-29zM89 74.8l-13.7-1.9a4 4 0 0 0-4.5 3.7c-1.1 22.8 16.5 26.3 21.5 3a4 4 0 0 0-3.3-4.8zM54.7 53.6C50.2 46 43.7 34.3 33.1 36c-11 1.7-8.3 18.8-7.2 26.4a95.8 95.8 0 0 0 9.5 28 4 4 0 0 0 4.7 2l18.3-5.8a4 4 0 0 0 2.8-4.1c-.8-9-2.3-22-6.5-29zm-11.5 52.7c8.4 21.2 25.8 16.9 20.8-6.5a4 4 0 0 0-5-2.9L45.6 101a4 4 0 0 0-2.5 5.3z"/></svg>