<svg xmlns="http://www.w3.org/2000/svg" viewBox="0 0 128 128"><path d="M118.7 95.2c-.6.5-9.9 9-26.5 9-8.3 0-18.4-2-30.2-8.3-30.1-16-46.7-.8-46.9-.7a4.2 4.2 0 0 1-6-.2 4.3 4.3 0 0 1 .2-6c.9-.8 21.2-19.4 56.7-.6 29.8 15.8 46.2 1.2 46.9.6a4.3 4.3 0 0 1 5.8 6.2zM105.5 109c-.1.1-13.9 8.6-39.5-5.4-30.2-16.4-47.7-3-48.4-2.3a4.3 4.3 0 0 0 5.2 6.7c.6-.5 14.2-10.5 39.2 3.1a65 65 0 0 0 31.2 9 33 33 0 0 0 16.9-3.9 4.3 4.3 0 0 0 1.3-5.9 4.2 4.2 0 0 0-5.9-1.3zM33.4 55c6.1 3.3 14 4.8 20.8 6.6s8.7 6.3 8.7 6.3l.6 1C65 72 65 75.3 63.5 79l14.7 6a28 28 0 0 0-.2-23 31.6 31.6 0 0 0-3.3-5.5 13.8 13.8 0 0 1 1.7-4c3.7-6 8.4-12.5 10.6-19.1s4.9-14 1-24c0 0-1-3.3-3.1 0s-3.4 8.7-7.1 10.2-5.2 1.3-11.6 8a42 42 0 0 0-8.4 10.6 44 44 0 0 0-13.4-1.9c-9.1-.4-10.1.7-13.8 2.2s-8.3-1.3-12-2.4-2.4 2.2-2.4 2.2c4 9.9 11 13.3 17.2 16.6z"/></svg>