<svg xmlns="http://www.w3.org/2000/svg" viewBox="0 0 128 128"><path d="M86.8 88.2a13.8 13.8 0 0 1-7.3-8.7c-2.3-8.2-8.3-14-15.5-14s-13.2 5.8-15.5 14a13.8 13.8 0 0 1-7.3 8.7c-6 3-10 8.5-10 14.8 0 9.4 9 17 20.1 17a23.5 23.5 0 0 0 5-.6 36.4 36.4 0 0 1 15.5 0 23.5 23.5 0 0 0 5 .6c11 0 20-7.7 20-17 0-6.3-4-11.8-10-14.8zm-9.3-25.8c5.3-.2 11.8-6.4 11.1-15.8S82.3 27.8 75 28.5c-5.2.5-9 8.3-8.3 17.6s3.5 16.5 10.8 16.3zm21.2-8.2c-6.3-1.7-5.1 7.2-12 12.8-6.5 5.4-1.7 15 4.6 17 4.6 1.3 11.9-2.2 14-10.4S105 56 98.6 54.2zM73 18.9c-.7 3.5 1.8 5.8 4.4 5.4s5-3.5 3.5-7.9-6-9.4-7.7-8.2c-1.4 1 .7 5.7-.2 10.7zm22.4 25.2c-.7 3.5 1.7 5.8 4.3 5.5s5-3.4 3.6-7.8-5.8-9.6-7.5-8.4c-1.4 1 .6 5.7-.4 10.7zM50.5 62.4c7.2.2 10-6.9 10.7-16.3S58.2 29 53 28.5c-7.3-.7-13 8.8-13.6 18.2s5.8 15.5 11 15.7zM36.7 84c6.2-2 11.1-11.6 4.6-17-6.9-5.6-5.7-14.5-12-12.8s-8.6 11.2-6.5 19.4S32 85.3 36.7 83.9zm13.9-59.7c2.6.4 5-2 4.4-5.5-1-5 1.2-9.6-.2-10.6C53 7 48.5 12 47 16.4s.8 7.6 3.5 8zM28.3 49.6c2.6.3 5-2 4.3-5.5-1-5 1-9.7-.4-10.7-1.7-1.2-6.1 4-7.5 8.4s.9 7.5 3.6 7.8z"/></svg>