<svg xmlns="http://www.w3.org/2000/svg" viewBox="0 0 128 128"><path d="M118.7 95c-.6.6-9.9 9-26.5 9-8.3 0-18.4-2-30.2-8.3-30-15.7-46.7-.7-46.9-.6a4.2 4.2 0 1 1-5.8-6.2c.9-.8 21.2-19.2 56.7-.6 29.9 15.6 46.2 1.2 46.9.6a4.3 4.3 0 0 1 6 .3 4.2 4.2 0 0 1-.2 5.9zm-13.2 13.7c-.1.1-14 8.7-39.5-5.4-30.2-16.7-47.7-3-48.4-2.5a4.4 4.4 0 0 0-.7 6 4.2 4.2 0 0 0 5.9.8C23.4 107.2 37 97 62 111c12.8 7 23.3 9.1 31.2 9.1 10.5 0 16.4-3.7 16.8-4a4.4 4.4 0 0 0 1.3-6 4.2 4.2 0 0 0-5.8-1.3zM28.2 69.4c-.1-.5-14.8-42.6 22-61A4 4 0 0 1 56 11l16.4 60c11.5-7.8 26.5-15 39.7-15 0 14.9-24 32-24 32-6.7 0-13.5-2.5-18.5-4.8a56.8 56.8 0 0 1-7.5-3.3A71.3 71.3 0 0 0 32 72a4 4 0 0 1-3.8-2.6zm30-19.2l-2.8-10.6L33 48.1a55.9 55.9 0 0 0 .9 11.6zM43.4 64.6A69 69 0 0 1 64 71.4l-3.6-13.5zm-9-25.5l18.9-7.2L49.5 18a34 34 0 0 0-15.1 21z"/></svg>