<svg xmlns="http://www.w3.org/2000/svg" viewBox="0 0 128 128"><path d="M52 20a12 12 0 1 1 12 12 12 12 0 0 1-12-12zm68 35.8v-.4a4.4 4.4 0 0 0-1-2.1l-.1-.2a4 4 0 0 0-.5-.4l-.2-.1a4 4 0 0 0-.4-.2l-.3-.1a4 4 0 0 0-.5-.2h-.2a4 4 0 0 0-.5 0h-.4a4 4 0 0 0-.4 0 4 4 0 0 0-.8.1L97 58.3S82.5 42.7 80 42c0 0-9.8-2-16-2s-16 2-16 2c-2.5.6-17.1 16.4-17.1 16.4l-17.6-6.2a4 4 0 0 0-.8-.2h-.2a4 4 0 0 0-.5 0h-.3a4 4 0 0 0-.5 0l-.2.2a4 4 0 0 0-.5.2H10a4 4 0 0 0-.5.4l-.2.2a4 4 0 0 0-.4.3 4.4 4.4 0 0 0-1 2.1v.4a4 4 0 0 0 0 .4 4 4 0 0 0 .1.4v.4a4 4 0 0 0 .2.4l.1.3.2.3.2.4a4 4 0 0 0 .3.3l.2.2a4 4 0 0 0 .7.5l20 12a4 4 0 0 0 2 .6 4 4 0 0 0 .8 0h.2a4 4 0 0 0 .7-.3 4 4 0 0 0 .7-.4L45.7 63l1.8 15.6a4.3 4.3 0 0 0 1.2 2.4L64 88l15.3-7a4.3 4.3 0 0 0 1.3-2.6l1.7-15.6 11.3 8.3a4 4 0 0 0 .6.4h.1a4 4 0 0 0 .7.2h.2a4 4 0 0 0 .8.1 4 4 0 0 0 2-.6l20-12a4 4 0 0 0 .7-.4l.2-.2a4 4 0 0 0 .3-.4 4 4 0 0 0 .2-.4l.2-.3.2-.3v-.4l.1-.3a4 4 0 0 0 .1-.5 4 4 0 0 0 0-.3zM92 81L64 96.7 36 81a8 8 0 1 0-8 14l19.8 11a8 8 0 0 0 9.1 13l7.1-4 7 4a8 8 0 0 0 9.2-13L100 95a8 8 0 1 0-7.8-14z"/></svg>